<svg id="Warstwa_1" data-name="Warstwa 1" xmlns="http://www.w3.org/2000/svg" viewBox="0 0 225 225"><defs><style>.cls-1{fill:#fff;}.cls-2{fill:#39a348;}.cls-3,.cls-8{fill:#db5252;}.cls-4{fill:#8f3c29;}.cls-5{fill:#b01e32;}.cls-6{fill:#9d3466;}.cls-7{fill:#010101;}.cls-8{stroke:#010101;stroke-miterlimit:10;}.cls-9{fill:#ff7300;}</style></defs><title>olga_logo</title><circle class="cls-1" cx="112.5" cy="112.5" r="112.5"/><path d="M64.1,117.8c-.6,1.9-1.2,3.8-1.9,5.7-.8,2.2-1.5,4.4-2.4,6.6a2.14,2.14,0,0,1-1.7.8,2.05,2.05,0,0,1-1-1.5c-.2-2.6-.4-5.2-.5-7.8-.2-3.7-.3-7.4-.5-11.2,0-1.2-.1-2.4-.2-3.5,1.8-.6,2.1-.4,2.3,1.6.2,2.8.3,5.6.4,8.3.1,2.1.3,4.1.4,6.2a24.52,24.52,0,0,0,.2,2.7c.7-1.9,1.4-3.9,2.1-5.8.8-2.4,1.6-4.9,2.5-7.4.2-.7,2-.8,2.3-.1a5.84,5.84,0,0,1,.4,1.8c.3,2.9.6,5.9.9,8.8a24.73,24.73,0,0,0,.5,3.8c.7-2.5,1.2-5,2-7.4,1.2-3.2,2.6-6.4,3.9-9.6.3-.7.1-1.6,1.3-1.3.8.2,1.1.6.8,1.4-.4,1.1-.9,2.2-1.3,3.3-1.2,3.5-2.4,6.9-3.6,10.4-.6,1.8-1,3.6-1.5,5.4a10.89,10.89,0,0,1-1,2.5c-.2.4-.9.8-1.2.7-.5-.2-1.2-.7-1.3-1.2-.6-3.1-1-6.3-1.4-9.4a21.14,21.14,0,0,1-.2-3.5Z" transform="translate(0 -0.06)"/><path d="M140.6,102.2c.9-2.1,1.7-3.9,2.4-5.8.6-1.5,1-3,1.6-4.4a25,25,0,0,0,.9-2.5c.4-1.8,2.4-2.9,3.6-1.9a4.07,4.07,0,0,1,1.1,2.5c0,2.4-.3,4.8-.4,7.2,0,1.8.2,3.5.3,5.3.1,2,.1,3.9.1,5.9,0,.4-.6.9-.8,1.3-1.8-.9-1.6-2.5-1.7-4-.1-2.6-.2-5.2-.2-7.9,0-2.2.2-4.3,0-6.6-.8,2.3-1.6,4.5-2.4,6.8-.6,1.5-1.3,2.9-1.9,4.3-.3.9-.7,1.8-1.1,2.7-.3.6-.9,1.3-1.4,1.3-1.1.1-1.7-1-1.9-1.9a50.54,50.54,0,0,1-1.2-5.6c-.4-2.2-.7-4.4-1.1-6.6h-.4c-.2,1.6-.4,3.1-.6,4.7l-.6,9.6c0,.4-.5,1-.7,1a4.19,4.19,0,0,1-1.6-.4c.1-1.2.2-2,.3-2.8l.9-10.8a16.45,16.45,0,0,1,.5-3.2c.2-.7.7-1.7,1.2-1.7a3,3,0,0,1,2.2,1,7.26,7.26,0,0,1,1,2.8c.3,1.3.6,2.6.8,3.9Z" transform="translate(0 -0.06)"/><path d="M67.5,85.4c.6-1.7,1.2-3.3,1.8-5v-.3c-.3-.7-.4-1.3.7-1.2s1.7.6,1.4,1.6a24.65,24.65,0,0,1-1.8,5.2,4.5,4.5,0,0,0-.2,3.6,14.25,14.25,0,0,1-1.7,12.2c-1.3,2.1-3.5,2.1-5.6,1.9a6.72,6.72,0,0,1-5.2-4,13.74,13.74,0,0,1-1.5-8.2,14.62,14.62,0,0,1,.5-2c.2-.6.4-1.1.6-1.7.2-2.2,1.1-3.4,3.3-3.9A8.59,8.59,0,0,1,67.5,85.4Zm-.2,4.2a9.26,9.26,0,0,1-9.1.7,3.55,3.55,0,0,0-.4.9,13.5,13.5,0,0,0,1,6.6c.8,2,2,3.4,4.4,3.3,1.8-.1,2.7-.2,3.3-1.9a22.64,22.64,0,0,0,1.4-5.7A15.92,15.92,0,0,0,67.3,89.6Zm-8.1-1.4a6,6,0,0,0,6.2-.1c.9-.7.9-1.2-.1-1.6a11.92,11.92,0,0,0-2-.8,2.35,2.35,0,0,0-2.5.6c-.5.5-1,1.2-1.6,1.9Z" transform="translate(0 -0.06)"/><path d="M111.1,98.6c1.8.1,3.7-.4,5.5,1.2a13.44,13.44,0,0,1-2.4,1.2,10.07,10.07,0,0,1-3-.1l1.2,6.2c-2.3.8-2.4.7-2.8-1.5-.2-1.3-.5-2.6-.7-3.9-.1-.6-.1-.9-.9-.9-1.6,0-3.2-.2-4.9-.2a1.46,1.46,0,0,0-.9.6,35.94,35.94,0,0,0-1.2,3.5c-.2.7-.7,1.1-1.4.8-.5-.3-1.2-.5-.9-1.4.9-2.2,1.7-4.5,2.6-6.8l3-7.2c.5-1.3,1-2.6,1.4-3.9.3-.9.8-1.7,1.9-1.6s1.2,1,1.4,1.8a61.94,61.94,0,0,1,1.6,10.5C110.8,97.5,110.9,98.1,111.1,98.6Zm-3.8-9.5h-.4c-.4,1.3-.9,2.6-1.3,3.8-.6,1.5-1.2,3-1.7,4.5a1,1,0,0,0,.2.9c1.5.1,3,0,4.7,0Z" transform="translate(0 -0.06)"/><path d="M164.3,103.4c.1,2,.4,3.9.4,5.7a2.58,2.58,0,0,1-1,1.9c-.8.3-1.5-.7-1.5-1.9v-5.9l-5.7-.5c-.6,1.6-1.2,3.1-1.8,4.6-.2.6-.7,1.2-1.4.9a1.19,1.19,0,0,1-.7-1.5c0-.1,0-.1.1-.2.8-2.2,1.5-4.5,2.3-6.8,1-2.8,1.9-5.5,2.9-8.3.3-.7.6-1.4.9-2.2a2,2,0,0,1,2.7-1.1,2.54,2.54,0,0,1,1,.8,4.38,4.38,0,0,1,.7,1.9c.4,3.3.6,6.6,1,9.8,0,.2.4.5.7.5,1.3.2,2.6.2,3.8.5.8.2.6.8.2,1.3-.9,1-2.1.7-3.2.7A6.75,6.75,0,0,1,164.3,103.4ZM161,91h-.3l-3.4,9.5,4.7.3Z" transform="translate(0 -0.06)"/><path d="M84.5,98.2A17.22,17.22,0,0,1,87,89.6a9.85,9.85,0,0,1,4.5-4.3,8.16,8.16,0,0,1,6.5.1,1.43,1.43,0,0,1,.6,1.2c-.1.6-.7.7-1.3.5-2.6-.7-5.1-.5-6.9,1.7A12.7,12.7,0,0,0,87,96.2a8.18,8.18,0,0,0,3,7.6,2.89,2.89,0,0,0,3.7.4,4.15,4.15,0,0,0,1.1-2.3c.3-1.3.3-2.7.6-4.1.2-1.1-.4-1.5-1.3-1.5h-2a4,4,0,0,1-1.8-1,.66.66,0,0,1-.1-.6c.3-.3.7-.8,1.1-.7a50.67,50.67,0,0,1,5.4.9c1.3.3,1.3,1.6,1.1,2.6-.3,2.3-.7,4.6-1.1,6.9A3.25,3.25,0,0,1,93,107h-.1a6.65,6.65,0,0,1-4.6-1.6,8.94,8.94,0,0,1-3-4.4A16.8,16.8,0,0,0,84.5,98.2Z" transform="translate(0 -0.06)"/><path d="M151,114.9c-.7,2.9-3.1,2.8-4.5,3.7,1.1,2.8,2.1,5.7,3.2,8.4.5,1.2,1.2,2.2,1.6,3.4a2.79,2.79,0,0,1-.1,1.8.91.91,0,0,1-1.7.2,15.87,15.87,0,0,1-1.8-3.4c-.9-2.4-1.6-4.8-2.4-7.2a3.13,3.13,0,0,0-.5-1c-.8-1.3-.9-1.3-2.2-.5a7.84,7.84,0,0,1-1.8,1.1c-1.4.4-1.4,1.3-1.3,2.6.2,2.2.2,4.5.3,6.7a1.1,1.1,0,0,1-1,1.3h-.3a2.11,2.11,0,0,1-1.3-1.6c-.2-2.2-.1-4.5-.1-6.8v-.1c-.2-.8-.9-2.2-.7-2.3.9-.6.7-1.6.8-2.3.1-1.3.1-2.7.1-4a27.15,27.15,0,0,1,.1-2.8,1.2,1.2,0,0,1,1-.7c.6,0,1.3.1,1.2,1-.1,1.8-.2,3.6-.2,5.4v1.4c1.4-.7,2.9-1.4,4.3-2s2.9-1.6,4.4-2.1A24.77,24.77,0,0,1,151,114.9Z" transform="translate(0 -0.06)"/><path d="M122.9,115c0,1.7.1,3.2,0,4.7-.1.9.3,1.1,1.1,1.1h4.6c.6,0,1.2.2,1,.9s-.1,1.5-1.2,1.4c-1.8-.1-3.5-.2-5.4-.2-.2,1.9-.4,3.7-.5,5.6,0,.3.6.8,1,.8,1.5,0,3-.2,4.5-.3.2,0,.4.1.6.1.8,0,1.6.4,1.4,1.3s-1,1.1-1.9,1.1c-1.5,0-3,.2-4.5.2-2.7,0-3.8-.2-3.4-3.5.3-2.9.3-5.8.4-8.7.1-2,0-3.9.2-5.9,0-.3.7-.8,1.1-.8a50.68,50.68,0,0,1,5.5-.3,24.13,24.13,0,0,1,3.8.1c.5.1.9.7,1.3,1-.4.5-.5,1.3-1.5,1.3-2.1-.1-4.1,0-6.2,0A6.37,6.37,0,0,0,122.9,115Z" transform="translate(0 -0.06)"/><path d="M101.9,127.8c0,1.5.1,3,0,4.4,0,.5-.7,1-1,1.5-.4-.3-1.1-.6-1.2-1a23.08,23.08,0,0,1-.3-3.7c0-2.2.2-4.5.3-6.7.1-1.1.1-2.2.1-3.3s-.2-2.1-.4-3.2.3-1.6,1.1-1.6c1.9,0,3.8-.1,5.7.9s2.2,2.8,2.4,4.4c.4,2.4.3,4.8-1.7,6.6A5.18,5.18,0,0,1,101.9,127.8Zm0-11.5a19.42,19.42,0,0,1,.2,2.4c0,2-.2,4.1-.2,6.1a1.14,1.14,0,0,0,.3.8,6.18,6.18,0,0,0,2.8-.9c1.6-1.4,1.6-3.3,1.2-5.2-.3-1.4-.8-2.9-2.6-3.2Z" transform="translate(0 -0.06)"/><path d="M82.9,135.5c-1.2-.8-1.3-1.6-1-3.1a10.9,10.9,0,0,0,.3-2.6c.2-2.3.5-4.7.7-7a3.91,3.91,0,0,0-.4-2.6c-.7-1.5-1.4-3-2-4.5-.5-1.1-1.1-2.2-1.6-3.3a1.47,1.47,0,0,1-.1-1.1c.1-.1,1-.4,1.2-.2a9.09,9.09,0,0,1,1.8,2.1c.8,1.7,1.5,3.6,2.3,5.3a1.13,1.13,0,0,0,1.1.3,9.5,9.5,0,0,0,1.9-1.6c1.6-1.6,3.2-3.2,4.9-4.7a1.91,1.91,0,0,1,1.8,0c.7.4.3,1-.1,1.5-1,.9-2,1.8-3,2.8a11.32,11.32,0,0,0-1,1.3,26.08,26.08,0,0,1-2.3,2.4,1.56,1.56,0,0,1-.8.6,1.9,1.9,0,0,0-1.5,1.9c-.3,2.8-.5,5.7-.7,8.5a12.59,12.59,0,0,1-.4,2.7C83.9,134.8,83.3,135.1,82.9,135.5Z" transform="translate(0 -0.06)"/><path d="M83.1,101.6c-.6,1.8-1.3,2.1-3.1,1.7-1.5-.3-3-.1-4.5-.3a4.22,4.22,0,0,1-3.4-1.7,2,2,0,0,1-.3-1.1c.3-2.7.8-5.3,1.1-8s.7-5.2,1-7.7c.1-1,.9-1,1.5-.8s1.1.6.6,1.4a2,2,0,0,0-.3,1.1c-.4,3.7-.8,7.3-1.2,11a24.52,24.52,0,0,0-.2,2.7c0,.2.2.7.4.7a15.26,15.26,0,0,0,3,.3A19,19,0,0,1,83.1,101.6Z" transform="translate(0 -0.06)"/><path d="M160.3,114.2c2.1.3,2.1.3,2.1,2.1,0,2.6-.1,5.1-.2,7.7-.1,1.8-.3,3.6-.4,5.3,0,.5.3,1,.2,1.4a4.55,4.55,0,0,1-.8,1.9.94.94,0,0,1-1.1.2,2.37,2.37,0,0,1-.9-1.5c.1-2.3.4-4.5.5-6.8.2-2.6.3-5.2.4-7.8A25,25,0,0,1,160.3,114.2Z" transform="translate(0 -0.06)"/><path d="M115.1,124.4c0,1.5-.1,4,0,6.5a4.22,4.22,0,0,1-.3,2.2c-.3.6-.8.7-1.2.4s-1-.8-1-1.2c0-2.1.3-4.2.3-6.3-.1-2.5-.4-4.9-.6-7.4a16.08,16.08,0,0,1-.1-3.1c0-.3.8-.9.9-.8.5.2,1.3.7,1.3,1.1A82.82,82.82,0,0,1,115.1,124.4Z" transform="translate(0 -0.06)"/><path d="M214.8,88.4a23,23,0,0,1-1.2,8.2c-.8,2.2-2.6,3-4.9,2.8-3.3-.3-6.6-.6-9.9-.8-3.5-.2-7-.2-10.5-.5a51.93,51.93,0,0,1-7.9-1.2,60.73,60.73,0,0,1-7-2.9c-1.5-.7-1.4-2.1-1.4-3.5a16.92,16.92,0,0,1,.7-3.8,4.89,4.89,0,0,1,1.7-2.5c2.6-1.6,5.4-3,8.1-4.4,2.1-1.2,4.1-2.4,6.2-3.6,2.4-1.4,4.8-2.7,7.3-4a12.74,12.74,0,0,0,1.9-1.3c.2-.2.1-.7.1-1.1a11.54,11.54,0,0,1-.1-2.6c.2-1.1.9-1.4,1.9-.8.5.3.6.2.8-.3.6-1.5,1.4-3,2.1-4.5a1.23,1.23,0,0,1,1.6-.8h.1c.8.3.8,1,.6,1.7-.2,1.2-.4,2.5-.6,3.7-.1.8.1.7.7.5a22.5,22.5,0,0,1,2.4-.8c.8-.2,1.8-.5,2.3.6a59.6,59.6,0,0,1,2.5,5.8,25,25,0,0,1,2,8.9C214.1,83.7,214.8,86,214.8,88.4Zm-1.1.5c.1-2.2,0-2.1-2.2-1.8-2.6.3-5.2.4-7.8.5-4.3.2-8.6.4-12.9.4s-8.4-.2-12.5-.4a21.05,21.05,0,0,1-2.5-.2c-2.3-.3-2.3-.3-2.4,2a1,1,0,0,0,.6.8c1.1.2,2.3.2,3.4.5a43.62,43.62,0,0,0,13,1.4c1.7-.1,3.5.1,5.2.1s3.4-.2,5-.3v.2c2.4-.2,4.8-.3,7.1-.7a30.68,30.68,0,0,0,5.2-1.4A1.55,1.55,0,0,0,213.7,88.9Zm-.7,5.7c.1-.7-.2-.6-.6-.4a21.65,21.65,0,0,1-8.3,1.4c-3.1,0-6.2.2-9.3.5a41.47,41.47,0,0,1-6.1.2h-1.2a5.64,5.64,0,0,0,1.2.4c2.2.2,4.4.3,6.6.5a30.28,30.28,0,0,0,3.1.2c1.6,0,3.3-.1,4.9,0,2,.1,4,.3,6.1.4C212,97.9,212.6,97.4,213,94.6Zm-.5-10a21.09,21.09,0,0,1,.4-3.3,22.54,22.54,0,0,0-.6-3.6c-.6-2.3-1.3-4.6-2-6.8a16.15,16.15,0,0,0-1.7-3.5,2.28,2.28,0,0,0-1.2-.6c-.1,0-.4.3-.5.5-.4.9-.7,1.9-1,2.8-.1.3,0,.9.1.9a1.44,1.44,0,0,1,1.2,1.6.71.71,0,0,1-.3.6c-.9,1.6-2.1,3.1-3.1,4.7a9.5,9.5,0,0,0-1,1.7c-.9,2-1.4,4.1-3.9,5-.6.2-1,1.2-1.5,1.8l1.7.2h.9c.1,0,.2-.3.2-.4.1-.3.1-.6.2-.9.3.1,1,.2,1,.3.1,1,.8.8,1.4.8s1.3-.2,2-.2c.5,0,1,.2,1-.7,0-.2.5-.4.8-.4s.5.4.5.6c-.3.8.2.5.6.5a26.2,26.2,0,0,0,2.8-.1C211.4,85.9,212.5,86,212.5,84.6Zm-1.8,9c.6.2,1.6-.8,1.5-1.4a1.23,1.23,0,0,0-.5-.8c-.7.2-1.6,0-1.5,1.5C210.3,93.1,210.4,93.6,210.7,93.6Zm-1.6-.2c0-.4-.4-.9-.8-1.6-.6.9-1.9.1-1.9,1.3,0,.4.6,1.3.8,1.2C207.9,94.3,209.1,94.7,209.1,93.4ZM205.4,69a2,2,0,0,0,.1-.8,2.2,2.2,0,0,0-.8.1c-.3.2-.6.5-.9.7s-.5.2-.6.1a.91.91,0,0,1-.3-.7c.2-1.9.4-3.8.7-5.7v-.8a2.65,2.65,0,0,0-.6.5l-.3.6c-.5,1.4-.9,2.8-1.5,4.1-.2.6-.4,1.5-1.5,1a5.58,5.58,0,0,1-.8-.5v1.2c.3,1.1.7,2.2,1,3.3a1,1,0,0,1-.2.9c-.2.2-.6.1-.9,0s-.4-.3-.6-.4-.3-.1-.5-.2a1.27,1.27,0,0,0,.1.6,38.27,38.27,0,0,0,2.5,4.4,1.36,1.36,0,0,0,1.9.5c.1-.1.2-.1.3-.2a35.84,35.84,0,0,0,2.6-2.9,17.39,17.39,0,0,0,1.1-1.8c-.4-.3-.6-.7-.9-.7-.8-.1-1.1-.5-.8-1.2Zm-1.7,25.6c.8-.4,1.7.2,1.6-1a1.93,1.93,0,0,0-.5-.9c-.6.3-1.9-.3-1.8,1C202.9,94.1,203.4,94.3,203.7,94.6Zm-2.8,0c.9,0,1-.6.9-1.2-.1-.3-.6-.5-1-.8-.6.3-1.4.6-1.4.9C199.4,94.5,200.1,94.7,200.9,94.6Zm.4-14.3c.1-.3,0-1-.2-1.1-1.4-.6-2.3-2.2-4.1-2a6.75,6.75,0,0,0-1.4.2,3,3,0,0,0-.8.4,4.35,4.35,0,0,0,.7.4c1.2.5,1.3,1,.4,1.8a3.69,3.69,0,0,1-1.4.7l-1.8.6a3.33,3.33,0,0,0-.3.6c.1.1.3.1.5.2.8,0,.9.3.4.9-.7.9-1.5,1.8-2.3,2.7-.1.2-.2.3-.2.5.2,0,.4.1.5,0l2.1-.9c.8-.4,1.5-1.1,2.2-1.5a1.39,1.39,0,0,1,.9,0,1.72,1.72,0,0,1,.1.8c0,.3.1.6.1.8.2-.2.5-.4.7-.6.6-.7,1-1.8,1.6-1.9C200.7,82.8,200.9,81.5,201.3,80.3Zm-4.1-4,.7.1c-.1-.2-.1-.5-.2-.7a7.22,7.22,0,0,1-.9-2c-.2-.8-.6-.7-1.1-.4-2.6,1.5-5.3,3-7.9,4.5s-5.3,3-7.9,4.5c-1.7,1-3.3,1.9-4.9,3-.2.1-.2.4-.4.7.2.1.4.1.6.2,1.7.1,3.4.1,5.2.1,2.4.1,4.8.3,7.2.4a2.77,2.77,0,0,0,1.3-.3c.9-.8,1.7-1.6,2.6-2.4.5-.5.4-.8-.1-1.1-.8-.6-.7-1.2.1-1.7s1.9-.9,2.8-1.4l.6-.3c-.2-.1-.3-.2-.5-.3a6.89,6.89,0,0,0-.8-.3c-.7-.4-.8-1-.1-1.3a26.38,26.38,0,0,1,3.64-1.42S197.16,76.26,197.2,76.3Zm-.7,18.9c.8-.3,1.7.1,1.7-1.1,0-1.4-1.3-.8-1.9-1.2a8.45,8.45,0,0,0-.5,1.7C195.8,94.8,196.2,95,196.5,95.2Zm-1.2-8.9c0-.2-.3-.4-.4-.6l-.8.6.6.6C194.9,86.7,195.2,86.5,195.3,86.3Zm-1,8.8c.2-.1.6-.4.6-.5-.2-.5-.3-1.3-.7-1.4a6.88,6.88,0,0,0-2.5-.2c-.2,0-.4.3-.4.5-.1,1.5.2,1.8,1.6,1.8A7.84,7.84,0,0,0,194.3,95.1Zm-4.6.2a1.92,1.92,0,0,0,.4-1.2c0-1.5-1.1-1-1.8-1-1.6.1-1.6.1-.8,1.4.1.1,0,.3.1.3A16,16,0,0,0,189.7,95.3Zm-4-.4c.5,0,.7.1.5-.6a2.17,2.17,0,0,0-2.3-1.5c-.7,0-1.2,0-1.3,1s.6.8,1,.8A6.65,6.65,0,0,0,185.7,94.9ZM183.3,96l-.4-.3-.6.3c.1.1.2.1.4.2A1.07,1.07,0,0,1,183.3,96Zm-2-2.2c.1-.4-.2-1.2-.5-1.3a10.15,10.15,0,0,0-2.5-.6c-.2,0-.5,0-.6.1a2.28,2.28,0,0,0,.9,2.2l1.5.3.2.2C180.7,94.3,181.3,94.1,181.3,93.8Zm-4.9-.7c.5-1.2-.3-2-2.2-2a2.35,2.35,0,0,0-.8.2,1.13,1.13,0,0,0,.1.8c.8.5,1.6,1,2.4,1.4C176.1,93.6,176.4,93.3,176.4,93.1Z" transform="translate(0 -0.06)"/><path class="cls-2" d="M205.5,68.2a2,2,0,0,1-.1.8l-.9,2.1c-.3.7,0,1.1.8,1.2.3,0,.5.4.9.7a17.39,17.39,0,0,1-1.1,1.8,35.84,35.84,0,0,1-2.6,2.9c-.1.1-.2.1-.3.2a1.36,1.36,0,0,1-1.9-.5,38.27,38.27,0,0,1-2.5-4.4,1.27,1.27,0,0,1-.1-.6c.2.1.3.1.5.2s.3.3.6.4.7.2.9,0a1,1,0,0,0,.2-.9c-.3-1.1-.7-2.2-1-3.3V67.6a5.58,5.58,0,0,0,.8.5c1.1.5,1.3-.4,1.5-1,.6-1.3,1-2.7,1.5-4.1l.3-.6a2.65,2.65,0,0,1,.6-.5v.8c-.3,1.9-.5,3.8-.7,5.7a.91.91,0,0,0,.3.7c.1.1.3.1.6-.1s.6-.5.9-.7A2.2,2.2,0,0,1,205.5,68.2Z" transform="translate(0 -0.06)"/><path class="cls-2" d="M201.1,79.2c.2.1.3.8.2,1.1-.4,1.2-.6,2.5-2.3,2.6-.6.1-1,1.2-1.6,1.9-.2.2-.5.4-.7.6,0-.2-.1-.5-.1-.8a1.72,1.72,0,0,0-.1-.8,1.39,1.39,0,0,0-.9,0c-.7.4-1.4,1.1-2.2,1.5l-2.1.9c-.1.1-.3,0-.5,0,0-.2.1-.3.2-.5.8-.9,1.6-1.8,2.3-2.7.5-.6.4-.9-.4-.9-.2-.1-.4-.1-.5-.2a3.33,3.33,0,0,1,.3-.6l1.8-.6a3.69,3.69,0,0,0,1.4-.7c.9-.8.8-1.3-.4-1.8a4.35,4.35,0,0,1-.7-.4,3,3,0,0,1,.8-.4,6.75,6.75,0,0,1,1.4-.2C198.8,77,199.7,78.6,201.1,79.2Z" transform="translate(0 -0.06)"/><path d="M197.4,76.1l-.25.08C197.16,76.13,197.23,76.1,197.4,76.1Z" transform="translate(0 -0.06)"/><path d="M211.8,82.3v.3c-.3.1-.5.3-.8.2a2.18,2.18,0,0,1-.8-.5c.3-.2.5-.6.8-.6S211.5,82.1,211.8,82.3Z" transform="translate(0 -0.06)"/><path d="M211.3,75.9l-1.1,1.2-.9-1c.3-.2.5-.7.8-.7A6.12,6.12,0,0,1,211.3,75.9Z" transform="translate(0 -0.06)"/><path d="M208.3,78.4c.4.4.7.7.7.8a3.59,3.59,0,0,1-.7,1c-.2-.2-.7-.5-.7-.6A2.4,2.4,0,0,1,208.3,78.4Z" transform="translate(0 -0.06)"/><path d="M208.4,69.8c.2,0,.5.4.7.6l-1,.7-.7-.6A1.69,1.69,0,0,1,208.4,69.8Z" transform="translate(0 -0.06)"/><path d="M207.6,76.1v.3a4.87,4.87,0,0,1-1.1.4c-.1,0-.2-.3-.4-.4a3,3,0,0,1,.7-.5C207,75.8,207.3,76.1,207.6,76.1Z" transform="translate(0 -0.06)"/><path d="M205.7,117.4c1.3,2,1.1,3.5-1.4,5.8a14,14,0,0,1-2.7,2.1,5.12,5.12,0,0,1-5.8,0,17.08,17.08,0,0,1-3.9-3.2,6,6,0,0,1-.9-2.2h.3a7.29,7.29,0,0,1,2.7-6.5,3.23,3.23,0,0,1,2.1-.8,25.6,25.6,0,0,1,5.5.5c1.8.3,2.9,1.8,3.7,3.4A3.55,3.55,0,0,0,205.7,117.4Zm-2.6,5.9a4.18,4.18,0,0,0,2-4.3c-.1-.9-.8-1.1-1-1.8a5.83,5.83,0,0,0-5-3.5,5.7,5.7,0,0,0-6.5,4.5,4.1,4.1,0,0,0-.1,1.1,14.16,14.16,0,0,0,.7,2.2,6.58,6.58,0,0,0,4.1,3,5.34,5.34,0,0,0,2.5.5A8.67,8.67,0,0,0,203.1,123.3Z" transform="translate(0 -0.06)"/><path class="cls-3" d="M205.1,119a4.18,4.18,0,0,1-2,4.3,8.67,8.67,0,0,1-3.3,1.7,5.34,5.34,0,0,1-2.5-.5,6.58,6.58,0,0,1-4.1-3,14.16,14.16,0,0,1-.7-2.2,4.1,4.1,0,0,1,.1-1.1,5.7,5.7,0,0,1,6.5-4.5,5.83,5.83,0,0,1,5,3.5C204.3,117.9,205,118.1,205.1,119Z" transform="translate(0 -0.06)"/><path d="M204.6,82.2a3.26,3.26,0,0,1,1,.3,5.83,5.83,0,0,1-1.1.7c-.3.1-.4-.4-.5-.6A1.54,1.54,0,0,1,204.6,82.2Z" transform="translate(0 -0.06)"/><path d="M195.8,138.1a7.05,7.05,0,0,1,3,6.8,8.92,8.92,0,0,1-8.7,7.1,8.64,8.64,0,0,1-6.6-2.1,13.16,13.16,0,0,1-1.9-2.9,19.85,19.85,0,0,1-.9-2.6c.4-2.7,1-5,3.3-6.6a9.19,9.19,0,0,1,2.7-1.6,8.17,8.17,0,0,1,2.7.1C191.6,136.6,193.8,136.7,195.8,138.1Zm.2,10.2c2-1.4,2.2-5.9.8-7.8-1.9-2.4-4.4-3.1-7.2-3.2a6.44,6.44,0,0,0-4.9,1.3,6.08,6.08,0,0,0-1.9,7c.6,1.5,1.3,3.1,2.8,3.8a33.32,33.32,0,0,0,5.1,1.6C192.9,151,194.4,149.5,196,148.3Z" transform="translate(0 -0.06)"/><path class="cls-3" d="M196.8,140.5c1.4,1.9,1.2,6.4-.8,7.8-1.6,1.2-3.1,2.7-5.3,2.7a33.32,33.32,0,0,1-5.1-1.6c-1.5-.7-2.2-2.3-2.8-3.8a6.08,6.08,0,0,1,1.9-7,6.44,6.44,0,0,1,4.9-1.3C192.4,137.4,194.9,138.1,196.8,140.5Z" transform="translate(0 -0.06)"/><path d="M190.7,78.1c0,.1-.3.3-.5.6-.3-.4-.6-.6-.6-.8s.3-.4.5-.7Z" transform="translate(0 -0.06)"/><path d="M187.5,79.8c.3.3.7.7.6.7a2.7,2.7,0,0,1-.7.8,1.47,1.47,0,0,1-.6-.5A6.07,6.07,0,0,1,187.5,79.8Z" transform="translate(0 -0.06)"/><path d="M186.1,83.8c.1,0,.5.4.5.4a5.55,5.55,0,0,1-.6.8c-.3-.3-.6-.6-.6-.7A3,3,0,0,0,186.1,83.8Z" transform="translate(0 -0.06)"/><path d="M184.9,43.9c.1,2.1,0,4.2-.1,6.2,0,.6-.3.8-.7,1.2-1.9,2.1-4.6,2.8-6.9,4.3A16.44,16.44,0,0,1,175,57c-2,1.3-4.1,2.6-6.1,3.9-2.7,1.8-5.4,3.6-8.1,5.3-1.8,1.2-3.6,2.2-5.5,3.3a29.77,29.77,0,0,0-2.9,2,35,35,0,0,1-10.1,5.8,1.58,1.58,0,0,1-2.1-.6.6.6,0,0,1-.1-.4c-.3-1.9-.6-3.8-.8-5.7-.1-2.5,1.4-4.5,2.5-6.5l7.5-13.8c1.6-2.8,3.1-5.7,4.8-8.5,2.7-4.7,5.4-9.3,8.3-13.9,1.9-3,4.1-4,7.6-2.4,2.8,1.3,5.7,2.6,7.7,5a56,56,0,0,1,5.9,7.9A12,12,0,0,1,184.9,43.9Zm-5.1,9c2.6-1.2,4.6-2.9,4.3-6.2l-.3-2.7c-.1-.7-.2-.6-.7-.3-1.2.9-2.4,1.8-3.7,2.6a1.75,1.75,0,0,0-1,1.8c.1,1.3.2,2.7.2,4C178.6,53.1,179,53.3,179.8,52.9Zm2.7-10.2a1.79,1.79,0,0,0,.7-2.4,15.87,15.87,0,0,0-1.8-3.4c-2.2-2.5-3.8-5.6-6.8-7.3-2-1.1-4-2.2-6.1-3.2a4.54,4.54,0,0,0-2.3-.1c-.4,0-1,.1-1.1.3-1.1,1.5-2.2,3.1-3.3,4.6-.1.3-.2.7-.3,1,.3-.1.7-.3,1-.4,1.6-1.2,3.2-2.3,4.6-2.2,2.5,0,4.7,2.1,4.5,3.5-.2,1.1-.4,2.2-.7,3.4v.6c.2,0,.4-.1.6-.1a10,10,0,0,1,5.1-.8,6.62,6.62,0,0,1,4.6,2.3,3.75,3.75,0,0,1,.7,3.8c-.1.2.1.4.2.6Zm-2.1-.6a3.55,3.55,0,0,0,.2-1,5.64,5.64,0,0,0-.4-1.2c-.1-.2-.3-1-.7-.1-.1.2-.6.2-.9.3,0-.2-.1-.6,0-.7.9-.7.1-1-.3-1.2a15.94,15.94,0,0,0-3-.6c-.1,0-.3.3-.4.5a8.66,8.66,0,0,0-.2,1c0,.1-.3.1-.5.1a3.35,3.35,0,0,1,0-1c.4-.8-.1-.6-.5-.5a1.21,1.21,0,0,0-.7.7c-.3.6-.6.8-1.1.2a1.08,1.08,0,0,0-.8-.2,5.47,5.47,0,0,0-2.5,3.6,2.51,2.51,0,0,1-.4.7s-.4-.1-.4-.2v-.8c0-.3.1-.6.1-.8a2,2,0,0,1,0-1.1c.4-1.1,1-2.1,1.4-3.2a5.7,5.7,0,0,0-.1-1.3c0-.3,0-.8.2-.8.8-.3.8-.9.5-1.5a3.12,3.12,0,0,0-3.1-2,5.78,5.78,0,0,0-4.1,2c-.73.65-2.14.84-2.14,2a2.24,2.24,0,0,0,.24.93v.4l-.1.1c-.2-.1-.5-.3-.7-.4a.63.63,0,0,0-.6,0c-.7.9-1.4,1.7-2,2.6l-.3.6c.2-.1.5-.2.7-.3a5.56,5.56,0,0,1,1.7-.9,5.15,5.15,0,0,1,6.1,2.7c.1.1-.1.5-.3.7-.4.5-.9.9-.2,1.6.1.1-.2.6-.4.8s-.5.2-.7.4-.2.5-.3.7h.7c1.3-.5,2.7-.9,4-1.4a1.06,1.06,0,0,0,.4-.31,2.11,2.11,0,0,1,.4-.39,3.17,3.17,0,0,0,.6-.5c.1.2.4.4.4.6-.1.9.3.8.9.6a1.22,1.22,0,0,1,.9.3c.2.7.4.9,1.1.5a.61.61,0,0,1,.6.1.45.45,0,0,1,0,.5c-1.1.7-.4,1.7-.6,2.6-.1.2.2.5.3.7,0-.2.1-.4.1-.6a2.28,2.28,0,0,1,.3-1.1,5,5,0,0,1,.7-.8l.3.9c0,.3.1.5.1.8.2-.1.5-.1.8-.2s.7-.3,1-.5c.1,0,.1-.2,0-.3a1.72,1.72,0,0,1-.1-.8,2.77,2.77,0,0,1,.9.1,1.85,1.85,0,0,1,.7.2c0-.2.1-.4.1-.7,0-.8.2-1.1,1-.7.2.1.6.2.7.1a1.31,1.31,0,0,0-.2-1.9.76.76,0,0,0-.4-.2,1.33,1.33,0,0,1-.6-.5c0-.1.2-.5.3-.5a1.88,1.88,0,0,1,.8.2C180,41.8,180.2,41.9,180.4,42.1Zm-4,12.7a1.51,1.51,0,0,0,1.1-1.6V49.1h-.2a2.77,2.77,0,0,0-.1-.9c-.1-.2-.5-.4-.6-.3-1.1.6-2.2,1.3-3.3,1.8a1.62,1.62,0,0,0-1,1.7v4.8a3.55,3.55,0,0,0,.2,1,4.18,4.18,0,0,0,1-.4A29.77,29.77,0,0,1,176.4,54.8Zm-5.3-6.6a3.59,3.59,0,0,0,.4-2.2,2.42,2.42,0,0,0-2.5-1.5,11.51,11.51,0,0,0-6.3,2.7c-.3.3-.7.5-1,.8a.9.9,0,0,1-.5.1c0-.2-.1-.5-.1-.6.7-1.4,1.3-2.8,2.1-4.1.5-.9.8-3,.3-3.5a3.15,3.15,0,0,0-3.4-1c-3,.9-4.5,3.5-6.3,5.7a3,3,0,0,0-.4,1h1c.3,0,.4-.2.6-.2a1.3,1.3,0,0,1,1.6,1v.1a6.5,6.5,0,0,1-.9,5.4c-.1.2-.1.3-.2.5a1.27,1.27,0,0,0,.6-.1,12,12,0,0,1,4.8-1.7c1.9-.3,2.6.3,2.6,2.5v.7a4.87,4.87,0,0,0,1.1-.4,13.73,13.73,0,0,1,2-1.3C168.6,51.3,170.4,50.3,171.1,48.2Zm.2,9.3c.1-1.7,0-3.4,0-5.2,0-.4-.1-.8-.1-1.2l-1,.5-1.2.6c-2.1.8-2.7,2.5-2.6,4.6.1,1.1.3,2.2.4,3.3.1.5.3.8.9.4.9-.6,1.9-1,2.8-1.7A2.22,2.22,0,0,0,171.3,57.5Zm-6,4.3a1.37,1.37,0,0,0,.4-1.2c0-1.9-.1-3.7-.1-5.6v-.6c-.2.1-.3.2-.5.2s-.5.3-.7.4c-2.1.8-2.4,2.8-2.9,4.5a16,16,0,0,0,0,3.1h-.1c0,.3.1.7.1,1,.1.7.5.6.9.3A26.39,26.39,0,0,0,165.3,61.8ZM161.9,53l.7-.4a8.34,8.34,0,0,0-1.2-.8,1.87,1.87,0,0,1-.4.3Zm-.6,2.1c.8-.6.6-1.4-.2-1.9a2.7,2.7,0,0,1-.7-.8,1.44,1.44,0,0,1-.2-.3,6.75,6.75,0,0,0-1.4.2c.1.2.3.3.3.5a3.79,3.79,0,0,1,0,1.5c0,.2-.4.3-.6.4-.1-.4-.1-.8-.2-1.2v-.1c0-.7-.1-.8-.8-.4-1.1.8-2.2,1.6-3.3,2.3a2.54,2.54,0,0,1-1.2.2l.3-.9a41,41,0,0,0,2.2-4.1c.4-.7.8-1.6-.2-2.3-.1-.1,0-.5,0-.8s.1-.4.1-.6c-.2,0-.4-.1-.5,0s-.6.4-.5.6c.1.8-.4.9-.8.6-.7-.5-.9,0-1.2.4A24.65,24.65,0,0,0,149,54a11.11,11.11,0,0,1-.7,1.6c-.2.2-.4.3-.5.5-1,1.9-2,3.9-3.1,5.8-.3.5-.8.8.2,1.1.1,0,.3.4.2.6a1.21,1.21,0,0,1-.5.5.55.55,0,0,1-.5-.3c-.2-.8-.4-.2-.5,0a3.74,3.74,0,0,1-.6,1c-.3.3-.7.8.3.8.1,0,.2.5.3.7-.3,0-.7.2-.8.1-.4-.9-.6-.2-.8.1l-.9,1.8a1.67,1.67,0,0,0,.1,1.2,1.08,1.08,0,0,0,1.1,0c2.3-1.6,4.5-3.2,6.7-4.9.3-.2.1-1,.3-1.3s1,.2,1.3,0a50.86,50.86,0,0,0,4.5-3.1C157.2,58.2,159.3,56.7,161.3,55.1Zm-.8,2.7-1.6,1c-.1,0-.2,0-.2.1-.9.8-2.4,1.1-2.7,2.6-.2.9-.2,1.9-.4,2.8.1,1,.2,2,.4,3a.83.83,0,0,0,.8.3,38.77,38.77,0,0,0,3.3-2.3,1.49,1.49,0,0,0,.3-1V59.9C160.4,59.2,160.5,58.5,160.5,57.8Zm-6.6,11.8a1.75,1.75,0,0,0,1.1-1.9c-.1-1-.2-2.1-.2-3.2V62.4c0-.7-.2-.6-.6-.3-1,.7-1.9,1.4-2.9,2-1.7,1.1-2,2.8-1.7,4.6.1.8.3,1.5.4,2.3h-.1l.1.8c.2-.1.5-.2.7-.3A24.57,24.57,0,0,1,153.9,69.6Zm-5.6,3.6c.5-.3,1.6-.6.2-1.2-.1-.1,0-.4,0-.6s.1-.6.2-.9c-.1-1-.3-1.9-.4-2.9,0-.3-.1-.5-.1-.8-.2.1-.5.2-.7.3a14.29,14.29,0,0,0-2,1.4c-1,.8-2.7,1.2-2.1,3.2.2,1,.3,2,.5,3a.81.81,0,0,0,.9.4C145.9,74.5,147.1,73.9,148.3,73.2Zm-5.4,2.1-.6-4.2c0-.2-.2-.4-.4-.6-.5.3-1.1.6-1.1.8.1,1.5.4,3,.6,4.5a2.51,2.51,0,0,0,1,.2A.75.75,0,0,0,142.9,75.3Z" transform="translate(0 -0.06)"/><path class="cls-4" d="M183.2,40.3a1.79,1.79,0,0,1-.7,2.4l-.4.2c-.1-.2-.3-.4-.2-.6a3.75,3.75,0,0,0-.7-3.8,6.62,6.62,0,0,0-4.6-2.3,10,10,0,0,0-5.1.8c-.2,0-.4.1-.6.1v-.6c.3-1.2.5-2.3.7-3.4.2-1.4-2-3.5-4.5-3.5-1.4-.1-3,1-4.6,2.2-.3.1-.7.3-1,.4.1-.3.2-.7.3-1,1.1-1.5,2.2-3.1,3.3-4.6.1-.2.7-.3,1.1-.3a4.54,4.54,0,0,1,2.3.1c2.1,1,4.1,2.1,6.1,3.2,3,1.7,4.6,4.8,6.8,7.3A15.87,15.87,0,0,1,183.2,40.3Z" transform="translate(0 -0.06)"/><path class="cls-4" d="M171.5,46a3.59,3.59,0,0,1-.4,2.2c-.7,2.1-2.5,3.1-4.5,3.9a13.73,13.73,0,0,0-2,1.3,4.87,4.87,0,0,1-1.1.4v-.7c0-2.2-.7-2.8-2.6-2.5a12,12,0,0,0-4.8,1.7,1.27,1.27,0,0,1-.6.1c.1-.2.1-.3.2-.5a6.5,6.5,0,0,0,.9-5.4v-.1a1.3,1.3,0,0,0-1.6-1c-.2,0-.3.2-.6.2h-1a3,3,0,0,1,.4-1c1.8-2.2,3.3-4.8,6.3-5.7a3.15,3.15,0,0,1,3.4,1c.5.5.2,2.6-.3,3.5-.8,1.3-1.4,2.7-2.1,4.1,0,.1.1.4.1.6a.9.9,0,0,0,.5-.1c.3-.3.7-.5,1-.8a11.51,11.51,0,0,1,6.3-2.7A2.42,2.42,0,0,1,171.5,46Z" transform="translate(0 -0.06)"/><path d="M180.3,157.3c2.4.1,3.8,1.3,3.8,3.1a3.74,3.74,0,0,1-3.4,3.4c-2.1,0-4.1-1.6-4-3.1a3.46,3.46,0,0,1,3.5-3.4Zm2.3,3.8a2.52,2.52,0,0,0-.9-2,5,5,0,0,0-2.7-.2,1.51,1.51,0,0,0-1.1,1.6c0,.1.1.3.1.4a3.52,3.52,0,0,0,2.6,1.8A2,2,0,0,0,182.6,161.1Z" transform="translate(0 -0.06)"/><path class="cls-3" d="M181.7,159.1a2.52,2.52,0,0,1,.9,2,2,2,0,0,1-2,1.6,3.52,3.52,0,0,1-2.6-1.8c0-.1-.1-.3-.1-.4a1.51,1.51,0,0,1,1.1-1.6A5,5,0,0,1,181.7,159.1Z" transform="translate(0 -0.06)"/><path d="M181.7,84a1.93,1.93,0,0,1-.3,1l-.9-1a4.35,4.35,0,0,1,.7-.4A1,1,0,0,1,181.7,84Z" transform="translate(0 -0.06)"/><path d="M180.2,186.3a6.92,6.92,0,0,1-3.7,7.2,38.07,38.07,0,0,1-5.6,3.1,59.79,59.79,0,0,1-7.1,2.5,58.14,58.14,0,0,1-5.8.9c-2.5.3-4.2-1-5.4-3-2-3.4-3.8-7-5.9-10.4-2.3-3.8-3.7-7.9-5.4-11.9a56.16,56.16,0,0,1-2.5-5.6c-1-3.1-2.5-6.2-2.2-9.6a7.43,7.43,0,0,1,1.7-4.3c1.2-1.4,2.2-2.9,3.4-4.3l.9-.9a1.6,1.6,0,0,1,2.3-.1l.1.1c2,1.8,4.1,3.7,6.2,5.4a66.22,66.22,0,0,0,6.4,4.4,50.41,50.41,0,0,0,4.9,3.1c.7.4.4.8.2,1.2a.27.27,0,0,1-.07.08,1.14,1.14,0,0,1-.83,0c-1-.6-2-1.3-3-1.9-2.4-1.6-4.9-3.1-7.1-4.8-2.4-1.9-4.6-4-7-6a1.61,1.61,0,0,0-.7-.4c0,.3-.1.6-.1.8,0,2.4,1.6,4.2,2.4,6.2,1.6,3.6,3.4,7.1,5.1,10.7,1.4,3,2.8,6.1,4.1,9.2l1.17,2.74c.49,1.19,1,2.37,1.43,3.56s1,1.6,2.2,1.3a35.83,35.83,0,0,1,4.5-.9,14.64,14.64,0,0,0,5-1.2,10.09,10.09,0,0,0,6.3-5.8c.5-1.3,0-2.5-1.5-3.7-2.1-1.6-4.2-3.1-6.2-4.7-.6-.4-.8-.4-.9.4s-.6,1.6-.8,2.5a2,2,0,0,0,.7,2.5,3.36,3.36,0,0,1,.9,4.7,5,5,0,0,1-.7.8c-1.7,1.7-5.6,2.4-7.6,1.1a4.6,4.6,0,0,1-1.24-1.45,5.31,5.31,0,0,1-.46-1.15,4.76,4.76,0,0,1,2.1-5.4c1.1-.8,2.3-.4,3.4-.3a1.7,1.7,0,0,0,2-1.3v-.2a10.55,10.55,0,0,1,.6-2.4,1.29,1.29,0,0,0-.6-1.8l-.9-.6a9,9,0,0,1-1.2-1c-.5.8-1.6,1.1-1.5,2.5a3.08,3.08,0,0,1-2.6,3.6,2.2,2.2,0,0,1-1.4-.1c-1.3-.2-2.7-.4-3.6-1.8s-.1-3.9,1.9-4.7c1.6-.6,2.9.1,4.1.9a1,1,0,0,0,1.4-.1l.1-.1,1.11-1.17c1.13-1.18,2.24-2.33,3.29-3.53a13,13,0,0,0,1-1.5,1.91,1.91,0,0,1,2.4-.6,6.26,6.26,0,0,1,4.1,4.4,28.37,28.37,0,0,1,.6,3.1c-.2.8-.4,1.7-.6,2.6a14.76,14.76,0,0,1-2.7-1,25,25,0,0,1-2.3-2.3l-.5-.6a1.42,1.42,0,0,1-.2.6c-.4.9-.1,1.5.7,2.1,2.3,1.7,4.6,3.4,6.9,5.2.8.7,1.5,1.4,2.2,2.1a.76.76,0,0,1,.2.5C179,179.5,179.7,182.9,180.2,186.3Zm-1.6,1c.3-.2.1-1.2.1-1.8a4.48,4.48,0,0,0-1.2.1.76.76,0,0,0-.5.2c-2.4,1.4-4.8,2.8-7.3,4.1a16.91,16.91,0,0,1-4.3,1.5,29.66,29.66,0,0,1-5.2.8c-1.5.1-1.8.1-1.8,1.9,0,1.2,1,.2,1.4.6a26.42,26.42,0,0,0,2.9-.2,37.54,37.54,0,0,0,11.3-4.2A45.3,45.3,0,0,0,178.6,187.3Zm.1,2a.6.6,0,0,0-.1-.4c-.1,0-.2.1-.3.1l-9.6,4.8c-.1.1-.1.5-.2.7s0,.4-.1.7c-.3-.1-.8-.1-.8-.3-.3-1.1-.7-.5-1.1-.1-1.1.2-2.3.4-3.4.7-.1,0-.2.4-.4.5s-.3.6-.5.6-.7-.2-.7-.4c0-.8-.5-.6-.9-.5a4.87,4.87,0,0,1-1.2.1,2.77,2.77,0,0,0-2.5,2.2c0,.2,0,.5.1.5a2.92,2.92,0,0,0,.9.2v-.6a1.34,1.34,0,0,1,.6-.7,1.18,1.18,0,0,1,.8-.1c.3,0,.6.1.9.1a5.72,5.72,0,0,1-.8.7c-.1.1-.3.1-.5.2.2.1.4.3.6.3,1.2-.2,2.5-.4,3.7-.7.1,0,.2-.4.3-.6s.2-.6.3-.8l.7.6c.2.1.4.3.5.3,1.2-.3,2.4-.7,3.6-1.1.4-.1.5-.7.9-.9a3,3,0,0,1,1-.4c.3,0,.6-.1.9-.1.7-.26,1.55-.3,1.55-1.24a2,2,0,0,0,0-.46c0-.1.9-.5,1-.4.5.5.8.3,1.2,0s.6-.3.9-.5A4.29,4.29,0,0,0,178.7,189.3Zm-.5-7.5a7.72,7.72,0,0,0-.2-1.5c-.1-.3-.3-.7-.6-.7a1.59,1.59,0,0,0-1.3.3c-.9.8-1.7,1.6-2.5,2.4-.1.1.1.4.1.5,0,.8.1,1.5.1,2.2a.31.31,0,0,0-.2.1c-.6.2-.8-.1-.8-.7a3.08,3.08,0,0,0-.5-1.2c-.4.2-.7.4-1.1.6-.1.1.2.5.2.7a2.77,2.77,0,0,1-.1.9c-.3-.1-.6-.3-.9-.4-.1,0,0-.4-.1-.4a1.06,1.06,0,0,0-.8-.1c-.2.1-.3.4-.4.6s-.1.7-.3.8-.8-.1-.8-.2c-.1-.7-.4-.4-.9-.3a52.28,52.28,0,0,1-5.4,1.2c-1,.1-1.2.4-1,1.3-1.2-.1-1.4.1-1.6,1.6v.4c0,.3-.1.7,0,.9a1.56,1.56,0,0,0,.8.6c.2.1.5-.1.7-.1a2.09,2.09,0,0,1-.4-.6,2.77,2.77,0,0,1-.1-.9c.3,0,.7-.1.8,0,.7,1.2,1.4.1,2.2.1.4,0,1.1-.9,1.3,0s-.7.6-1.1.7l-.6.3c.2.1.5.3.7.2a18.29,18.29,0,0,0,2.5-.6,4.35,4.35,0,0,0,.7-.4,1.7,1.7,0,0,1-.7-.1,4.35,4.35,0,0,1-.7-.6c.2-.2.4-.5.6-.5a15.52,15.52,0,0,1,2.1.4,4.93,4.93,0,0,0,4.4-2.3,1.33,1.33,0,0,1,.9-.6c1.1.8,1.9-.2,2.3-.8s.1-1.5.1-2.3a1.61,1.61,0,0,0-.3-.9c.2-.1.4-.1.6-.2a1.61,1.61,0,0,1,.3.9c0,.7.8,1.5,1.4,1.3a3.13,3.13,0,0,0,1.1-.9,2.92,2.92,0,0,1-.9-.2c-.2-.1-.3-.4-.5-.6.2-.1.4-.3.6-.4A.55.55,0,0,0,178.2,181.8Zm-4.9-14.9a4.09,4.09,0,0,0-.6-3.4,14.75,14.75,0,0,0-2.6-3c-.1-.1-.7.1-.7.2-.1.7-.1,1.4-.2,2.1-.1,1.4,2,4.1,3.4,4.5C172.7,167.5,173.2,167.1,173.3,166.9Zm-5.4-4.1a5.16,5.16,0,0,1-.2-1.1c-.2.2-.5.4-.7.6-.6.6-1.2,1.3-1.9,2-.5.5-.5.9.1,1.3a2.07,2.07,0,0,0,1,.6,1,1,0,0,0,.9-.3C167.4,164.9,167.6,163.8,167.9,162.8Zm-2.6,17.3c1.7-.3,2.6-2.1,2.2-3a5.26,5.26,0,0,0-3.4-3.1,4.13,4.13,0,0,0-2.9.2,3.32,3.32,0,0,0-1.8,3.9c.6,1.8,1.3,2.3,3.6,2.3A20.79,20.79,0,0,1,165.3,180.1Zm-4.4-11c.2-.4-.4-1.4-.9-1.8a5.23,5.23,0,0,0-2.3-1,2.23,2.23,0,0,0-2.2,1.2,1.17,1.17,0,0,0,.3,1.7c.1,0,.1.1.2.1,1,.5,2.1,1,3.1,1.4C159.8,170.2,160.7,169.8,160.9,169.1Zm-2.8,20.8a1.42,1.42,0,0,0,.2-.6c-.2-1.2-.4-2.5-.6-3.7-.2-.8-.7-.6-1-.2-.7.8-1.1.5-1.7-.1,1.9-1.4,2-1.9.8-4-.2-.4-.4-.9-.6-1.3-.2-.6-.3-1.2-1.2-.8-.2.1-.5-.2-.8-.4a1.69,1.69,0,0,1,.2-.5c1.1-.4.4-1,.2-1.5-.4-1-1.6-1.7-1.4-3,0-.1-.3-.2-.5-.3s-.6-.1-.9-.1a2.51,2.51,0,0,0,.4-.7,1.85,1.85,0,0,0,.2-.7,14.17,14.17,0,0,0-.8-1.8,1.38,1.38,0,0,0-.4-.3c-.3-.1-.7-.1-.8-.3s.1-.6.1-.9,0-1-.1-1c-.9-.2-.8-.7-.7-1.3a3.42,3.42,0,0,0-2.4-3.2,3.55,3.55,0,0,0-1,.2c.1.2.2.5.3.7.2.4.5.9.7,1.3s.2.7.3,1.1c.3.6.1,1.7,1.4,1.2.1,0,.3.2.4.4a.86.86,0,0,1-.3.6c-.2.2-.6.5-.6.6.4,1.1.9,2.2,1.4,3.4.3.6.6,1.3.9,1.9a1.85,1.85,0,0,1,.2.7c-.1.8,0,1.2,1,1,.2-.1.6.2.8.3a3.55,3.55,0,0,1-.4.9,1.61,1.61,0,0,1-.7.4,5.5,5.5,0,0,0,.9.7c.5.3,1.1.4.3,1.1a.82.82,0,0,0-.1.7c.9,1.7,1.8,3.3,2.6,4.9l2,2.8.6,1.2C157.5,189.8,157.8,189.9,158.1,189.9Zm-.7,2.6c0-.1.1-.3.2-.7a3.47,3.47,0,0,0-.6-.9,33,33,0,0,1-2.6-3.9c-1.6-2.9-3.4-5.7-4.4-8.9-.7-2.2-1.7-4.2-2.5-6.3-1.1-2.7-2.1-5.5-3.1-8.2s-1.8-5.4-2.7-8.1c-.2-.5-.3-1.1-.5-1.6,0-.1-.4-.1-.6-.2-.2.6-.7,1.2-.5,1.7.8,2.6,1.6,5.1,2.5,7.7.7,2,1.4,3.9,2.2,5.9,1.2,3.5,2.5,7,3.7,10.6a48.67,48.67,0,0,0,6.9,13.4,10.1,10.1,0,0,0,1.6,1.3A11.63,11.63,0,0,1,157.4,192.5Zm-1.2,3.3-1.1.8c-.2.1-.4.3-.6.4.3.4.5.8.8,1.2.1.1.6,0,.6-.2a20.48,20.48,0,0,0,.5-2.4,5.84,5.84,0,0,1-1.4-1.3c-.4-.9-1.2,0-1.4-.5a11.14,11.14,0,0,1-.2-1.7c0-.1-.1-.1-.2-.2-.9-1.4-1.7-2.8-2.6-4.1-.3-.5-.1-1.3-1.3-1-.5.1-1,.2-.9.6.2.6.7,1.4,1.1,1.5,1,.2,1.1.1.6,1.1-.3.6-.1.9.5,1,1.1.2,1.1.2.4,1.1a.37.37,0,0,0-.1.3c.6,1.1,1.3,2.2,1.9,3.2.1.1.4,0,.6,0Zm-7.6-9.9c.8-.4,1-.9.4-1.7-.4-.5-.4-1.6-.8-1.7-.9-.3-.7-.6-.5-1.3.1-.3,0-1.2-.8-.5a1.86,1.86,0,0,1-1-.1c0-.6.3-.9.9-.8a1.21,1.21,0,0,0,.5-.5l-1.2-3a11.39,11.39,0,0,0-.39-2.16,2.54,2.54,0,0,0-1.51-1.64c-.2-.1-.2-.6-.2-.8a5.91,5.91,0,0,0-.8-3.4c-.1-.1-.2,0-.3,0a4.08,4.08,0,0,1-.7-.2c.1-.3.1-.6.2-.8.6-.6.3-.9-.2-1.3a12.86,12.86,0,0,0-.4-1.9c-.2-.6-.3-1.3-1.2-.9-.1,0-.4-.1-.4-.2s0-.6.2-.6c1.5-.5.3-1.2.2-1.9l-.2-.7a14.27,14.27,0,0,0-.8-2.2l.1-.1-.2-.1a6.89,6.89,0,0,0-.4-1,.88.88,0,0,0-.7-.1,4.65,4.65,0,0,0-1,3.6c0,.5-.1,1.1.7,1v.8c-.1.3-.4.6-.3.9.3,1.3.7,2.5,1.1,3.8,0,.2.5.2.7.3s.4.1.7.1a5.94,5.94,0,0,1-.4.8c-.1.2-.5.4-.4.5l2.1,3.9.3.6c.2.8.1,2,.6,2.4,1.2.8.8,1.9,1.1,2.9.2.7.7,1.4.9,2.2s.6.9,1.2.7a7.41,7.41,0,0,0,.1,2.1,11.09,11.09,0,0,0,1.7,3A1.39,1.39,0,0,0,148.6,185.9Zm-2.1-23.2c.1,0,.2-.8.1-1.1-.3-.9-.8-1.6-1.1-2.5-.5-1.2-1.7-2-1.8-3.4,0-.4-.4-.7-.6-1.1l-.4.1a2.92,2.92,0,0,0-.2.9c.4,1.2.8,2.5,1.2,3.7.2.5.2.9.9.7.2,0,.5.3.7.5,0,0-.1.4-.2.4a1.15,1.15,0,0,0,0,1.7A2.29,2.29,0,0,0,146.5,162.7Zm-4.3-9.2.8-1c-.3-.5-.5-.8-.7-1.1a5,5,0,0,0-.8,1.2C141.4,152.8,141.9,153.2,142.2,153.5Z" transform="translate(0 -0.06)"/><path class="cls-4" d="M178.7,185.5c0,.6.2,1.6-.1,1.8a45.3,45.3,0,0,1-4.6,3,37.54,37.54,0,0,1-11.3,4.2,26.42,26.42,0,0,1-2.9.2c-.4-.4-1.4.6-1.4-.6,0-1.8.3-1.8,1.8-1.9a29.66,29.66,0,0,0,5.2-.8,16.91,16.91,0,0,0,4.3-1.5c2.5-1.3,4.9-2.7,7.3-4.1a.76.76,0,0,1,.5-.2A4.48,4.48,0,0,1,178.7,185.5Z" transform="translate(0 -0.06)"/><path class="cls-2" d="M172.7,163.5a4.09,4.09,0,0,1,.6,3.4c-.1.2-.6.6-.7.4-1.4-.4-3.5-3.1-3.4-4.5.1-.7.1-1.4.2-2.1,0-.1.6-.3.7-.2A14.75,14.75,0,0,1,172.7,163.5Z" transform="translate(0 -0.06)"/><path class="cls-5" d="M167.5,177.1c.4.9-.5,2.7-2.2,3a20.79,20.79,0,0,0-2.3.3c-2.3,0-3-.5-3.6-2.3a3.32,3.32,0,0,1,1.8-3.9,4.13,4.13,0,0,1,2.9-.2A5.26,5.26,0,0,1,167.5,177.1Z" transform="translate(0 -0.06)"/><path class="cls-5" d="M160,167.3c.5.4,1.1,1.4.9,1.8-.2.7-1.1,1.1-1.8,1.6-1-.4-2.1-.9-3.1-1.4-.1,0-.1-.1-.2-.1a1.17,1.17,0,0,1-.3-1.7,2.23,2.23,0,0,1,2.2-1.2A5.23,5.23,0,0,1,160,167.3Z" transform="translate(0 -0.06)"/><path class="cls-4" d="M157.6,191.8c-.1.4-.2.6-.2.7a11.63,11.63,0,0,0-.4,1.8,10.1,10.1,0,0,1-1.6-1.3,48.67,48.67,0,0,1-6.9-13.4c-1.2-3.6-2.5-7.1-3.7-10.6-.8-2-1.5-3.9-2.2-5.9-.9-2.6-1.7-5.1-2.5-7.7-.2-.5.3-1.1.5-1.7.2.1.6.1.6.2.2.5.3,1.1.5,1.6.9,2.7,1.7,5.4,2.7,8.1s2,5.5,3.1,8.2c.8,2.1,1.8,4.1,2.5,6.3,1,3.2,2.8,6,4.4,8.9a33,33,0,0,0,2.6,3.9A3.47,3.47,0,0,1,157.6,191.8Z" transform="translate(0 -0.06)"/><path d="M177.3,42.8c.2.1.5.3.4.4a4.05,4.05,0,0,1-.5.9c-.2-.3-.4-.5-.4-.6A4.23,4.23,0,0,1,177.3,42.8Z" transform="translate(0 -0.06)"/><path d="M178.2,38.8c-.3.3-.6.6-.7.6a5,5,0,0,1-.8-.7c.2-.2.4-.5.5-.5A8.79,8.79,0,0,1,178.2,38.8Z" transform="translate(0 -0.06)"/><path d="M177.2,40.7c.1-.1.4.2.8.4a7.63,7.63,0,0,1-1.1.8c-.1,0-.3-.3-.5-.5C176.7,41.2,176.9,40.9,177.2,40.7Z" transform="translate(0 -0.06)"/><path d="M176.7,180.7l.7.6c-.3.2-.5.5-.6.5a3.29,3.29,0,0,1-.6-.3A3.51,3.51,0,0,1,176.7,180.7Z" transform="translate(0 -0.06)"/><path d="M176,42.3l-.3.5c-.2.1-.4.3-.6.2a.89.89,0,0,1-.4-.5.66.66,0,0,1,.5-.4A1.88,1.88,0,0,1,176,42.3Z" transform="translate(0 -0.06)"/><path d="M176.2,44.7c-.4.3-.6.6-.9.6s-.5-.3-.6-.5.3-.5.4-.5A8.2,8.2,0,0,1,176.2,44.7Z" transform="translate(0 -0.06)"/><path d="M174.9,39.6c.1.2.4.4.4.5a4.35,4.35,0,0,1-.6.7,2.09,2.09,0,0,1-.4-.6C174.4,40,174.7,39.8,174.9,39.6Z" transform="translate(0 -0.06)"/><path d="M174,41.1c.2,0,.4.3.7.5-.4.2-.6.5-.8.4s-.3-.4-.4-.6S173.9,41.1,174,41.1Z" transform="translate(0 -0.06)"/><path d="M172.7,39.8c.1-.1.4.2.8.4-.3.2-.6.5-.9.7-.1,0-.3-.2-.5-.3A5.55,5.55,0,0,1,172.7,39.8Z" transform="translate(0 -0.06)"/><path d="M171.7,41.3c.1,0,.5.4.4.5a8,8,0,0,1-.6.8c-.2-.4-.5-.7-.4-.8A1,1,0,0,1,171.7,41.3Z" transform="translate(0 -0.06)"/><path d="M171.9,193.9l-.4,1.1h0l-.5-.9Z" transform="translate(0 -0.06)"/><path d="M171.2,39a2.74,2.74,0,0,1,.4.7,1.21,1.21,0,0,1-.5.5s-.4-.2-.3-.3A3.55,3.55,0,0,1,171.2,39Z" transform="translate(0 -0.06)"/><path d="M171.8,187.1c-.5.3-.7.6-1,.6s-.4-.2-.6-.4c.2-.2.3-.5.5-.5S171.2,187,171.8,187.1Z" transform="translate(0 -0.06)"/><path d="M169.2,32.9a2.19,2.19,0,0,1,.3.5c-.2.1-.5.4-.6.3-.4-.2-.8-.4-1.1.2,0,.1-.4,0-.7,0,.1-.3.1-.8.3-.9C168.1,33,168.6,32.9,169.2,32.9Z" transform="translate(0 -0.06)"/><path d="M169.2,187.6c0,.2-.3.4-.6.9-.2-.5-.4-.8-.3-1.1s.3-.4.5-.7C168.9,187.1,169.2,187.3,169.2,187.6Z" transform="translate(0 -0.06)"/><path d="M169.2,35.9c-.5.2-.7.5-.9.4a1.21,1.21,0,0,1-.5-.5c0-.1.3-.5.4-.4A3.13,3.13,0,0,1,169.2,35.9Z" transform="translate(0 -0.06)"/><path d="M168,37.5a1.55,1.55,0,0,1,.6.3,2.41,2.41,0,0,1-.8.6,2.74,2.74,0,0,1-.4-.5A2.09,2.09,0,0,0,168,37.5Z" transform="translate(0 -0.06)"/><path d="M167.3,31.4c.2,0,.4.2.8.4l-.9.8c-.1-.2-.4-.5-.4-.7A.64.64,0,0,1,167.3,31.4Z" transform="translate(0 -0.06)"/><path d="M167,195.5c0,.1-.2.3-.4.4s-.3-.1-.4-.1a3.55,3.55,0,0,1,.4-.9A3.11,3.11,0,0,1,167,195.5Z" transform="translate(0 -0.06)"/><path d="M167.3,40.3c0,.2-.3.4-.5.6-.2-.2-.4-.3-.5-.5s.2-.3.4-.6C167,39.9,167.3,40.1,167.3,40.3Z" transform="translate(0 -0.06)"/><path d="M166.3,35.1c.3.3.6.6.5.7a1.58,1.58,0,0,1-.6.5c-.3.1-.4-.3-.4-.4S166.1,35.5,166.3,35.1Z" transform="translate(0 -0.06)"/><path d="M166.6,38.1a1.06,1.06,0,0,1-.1.8c0,.1-.3.1-.5.2l-.6-1.8c0-.1.2-.2.5-.4A3.46,3.46,0,0,1,166.6,38.1Z" transform="translate(0 -0.06)"/><path d="M166.6,194.8Z" transform="translate(0 -0.06)"/><path d="M166.4,186.5c.1,0,.3.2.6.3l-.6.8c-.1-.2-.4-.4-.4-.6A.66.66,0,0,1,166.4,186.5Z" transform="translate(0 -0.06)"/><path d="M166.3,42.3s.3.2.5.3l-.6.7c-.1-.1-.3-.3-.3-.4A2.09,2.09,0,0,1,166.3,42.3Z" transform="translate(0 -0.06)"/><path d="M165.4,31.8a.78.78,0,0,1,.4.4,4.05,4.05,0,0,1-.5.9c-.2-.4-.5-.7-.5-.8A.63.63,0,0,1,165.4,31.8Z" transform="translate(0 -0.06)"/><path d="M166.1,33.8c-.3.3-.5.5-.7.5s-.5-.3-.4-.4a.82.82,0,0,1,.4-.6C165.6,33.4,165.8,33.6,166.1,33.8Z" transform="translate(0 -0.06)"/><path d="M162.5,34.8c.6,0,2.1,1.8,2,2.4,0,.2-.2.3-.3.4s-.4-.1-.4-.3a6.89,6.89,0,0,1-.3-.8c-.2-.5-.2-1.1-1-.9a.79.79,0,0,1-.5-.6,2.35,2.35,0,0,1,.2-.8Z" transform="translate(0 -0.06)"/><path d="M165.2,187.1c-.4.2-.6.5-.8.4a4.05,4.05,0,0,1-.9-.5c.2-.2.4-.5.7-.5S164.7,186.8,165.2,187.1Z" transform="translate(0 -0.06)"/><path d="M163.8,33.6l-.5.4c-.2-.2-.3-.5-.5-.7,0-.1-.1-.3-.1-.4.1.1.3.1.4.2Z" transform="translate(0 -0.06)"/><path d="M163.3,187.9c0,.2,0,.5-.1.5a16,16,0,0,1-2.1.5,3.55,3.55,0,0,1-.2-1c.7,0,1.4.9,2.1-.1C162.9,187.7,163.3,187.8,163.3,187.9Z" transform="translate(0 -0.06)"/><path d="M162.7,32.8Z" transform="translate(0 -0.06)"/><path d="M161.5,36.5l-.3.4-.5-.8.1-.1Z" transform="translate(0 -0.06)"/><polygon points="160.8 187.74 160.8 187.84 160.8 187.84 160.8 187.74"/><path d="M160.8,187.8Z" transform="translate(0 -0.06)"/><path d="M159.2,54.8c.2.2.5.4.5.5s-.3.4-.4.6c-.2-.2-.4-.3-.4-.6S159,55,159.2,54.8Z" transform="translate(0 -0.06)"/><path d="M157.5,55.7c.2,0,.4.2.8.4l-.8.7c-.1-.2-.4-.4-.4-.6A.66.66,0,0,1,157.5,55.7Z" transform="translate(0 -0.06)"/><path d="M157.5,187l-.8,1.3v-1.4Z" transform="translate(0 -0.06)"/><path d="M157,54.8c-.4.2-.6.4-.8.4s-.3-.2-.5-.4c.2-.2.4-.5.5-.5A4.45,4.45,0,0,1,157,54.8Z" transform="translate(0 -0.06)"/><path d="M156.4,57.8c-.2.2-.3.5-.4.5a.86.86,0,0,1-.6-.3,6.11,6.11,0,0,1-.7-1.4,1.69,1.69,0,0,1,.5-.2A17.41,17.41,0,0,1,156.4,57.8Z" transform="translate(0 -0.06)"/><path d="M155.2,183.2a2.74,2.74,0,0,1-.4.7c-.3-.3-.6-.5-.6-.7s.2-.4.4-.6C154.8,182.9,155.1,183,155.2,183.2Z" transform="translate(0 -0.06)"/><path d="M154.6,49.9a1.55,1.55,0,0,1,.3.6c-.2.2-.3.5-.6.7-.1-.2-.4-.3-.3-.4A3.49,3.49,0,0,1,154.6,49.9Z" transform="translate(0 -0.06)"/><path d="M154.1,58.1a1.87,1.87,0,0,0-.3.4l-.5.3a2.92,2.92,0,0,1-.2-.9c0-.2.4-.4.4-.4A1.7,1.7,0,0,1,154.1,58.1Z" transform="translate(0 -0.06)"/><path d="M153.9,48.9l.6.5c-.3.1-.5.3-.6.3s-.4-.3-.3-.4S153.8,49,153.9,48.9Z" transform="translate(0 -0.06)"/><path d="M153.9,180.3c.1-.1.3.2.6.4l-.7.7c-.2-.2-.5-.4-.5-.5A.9.9,0,0,1,153.9,180.3Z" transform="translate(0 -0.06)"/><path d="M153.3,52.6c.1,0,.4.2.4.3a2.74,2.74,0,0,1-.4.7c-.2-.3-.4-.4-.4-.6S153.2,52.6,153.3,52.6Z" transform="translate(0 -0.06)"/><path d="M153.7,59.9a1.21,1.21,0,0,1-.5.5c-.1,0-.3-.2-.4-.3a1,1,0,0,1,.4-.5C153.4,59.5,153.5,59.8,153.7,59.9Z" transform="translate(0 -0.06)"/><path d="M152.7,49.9c.2.5.4.7.4.9s-.2.4-.4.6c-.1-.2-.4-.3-.4-.5S152.5,50.6,152.7,49.9Z" transform="translate(0 -0.06)"/><path d="M153,55.3Z" transform="translate(0 -0.06)"/><path d="M153,55.3Z" transform="translate(0 -0.06)"/><path d="M153,59c-.4.2-.6.4-.8.3a3.51,3.51,0,0,1-.8-.5c.2-.2.5-.6.6-.6A3.92,3.92,0,0,1,153,59Z" transform="translate(0 -0.06)"/><path d="M151.9,55.6a3.55,3.55,0,0,1,1-.2,13.3,13.3,0,0,1-1.4,1.9c-.1.1-.7-.1-1-.2a4.35,4.35,0,0,1,.6-.7A3,3,0,0,1,151.9,55.6Z" transform="translate(0 -0.06)"/><path d="M152.4,54.1a2.65,2.65,0,0,1-.6.5,2.16,2.16,0,0,1-1.1.1.9.9,0,0,1-.6-.6,1.49,1.49,0,0,1,.2-.9,3,3,0,0,1,.5-.7l.4.7-.2.4a1.88,1.88,0,0,1,.8.2A3.33,3.33,0,0,0,152.4,54.1Z" transform="translate(0 -0.06)"/><path d="M151.5,61.4l-.6.5-.3-.6a5.94,5.94,0,0,1-.4-.8c-.1-.3-.3-.4-.3-.5a1.21,1.21,0,0,1,.5-.5,1.33,1.33,0,0,1,.5.3A7.58,7.58,0,0,1,151.5,61.4Z" transform="translate(0 -0.06)"/><path d="M150.9,50.9a1.24,1.24,0,0,0,.2.3c-.1.1-.2.3-.3.4l-.2-.2A2.19,2.19,0,0,1,150.9,50.9Z" transform="translate(0 -0.06)"/><path d="M149.9,171.8l.4.5-1.1.5v-.1Z" transform="translate(0 -0.06)"/><path d="M149.6,57.6l.5.5a9,9,0,0,1-.9,1c-.1-.2-.3-.4-.3-.5A3.59,3.59,0,0,0,149.6,57.6Z" transform="translate(0 -0.06)"/><path d="M148.3,55.3l1.4.2c-.2.2-.4.3-.6.5-.7.4-.8-.1-.8-.7Z" transform="translate(0 -0.06)"/><path d="M149.2,172.8Z" transform="translate(0 -0.06)"/><path d="M148.1,60.8l.8.4c-.1.1-.1.3-.2.4a2.49,2.49,0,0,1-.8.1H147c-.3,0-.5-.1-.8-.1,0-.2.1-.4.1-.7a1.61,1.61,0,0,1,.4-.7c.2-.2.4-.3.6-.5.1.2.3.5.4.7a1.09,1.09,0,0,1,.1.5Z" transform="translate(0 -0.06)"/><path d="M148.3,56.9c.2.1.5.3.5.4-.2.4-.4.7-.6,1.1-.2-.3-.4-.4-.3-.5A3,3,0,0,1,148.3,56.9Z" transform="translate(0 -0.06)"/><path d="M148.1,183.8c0,.2-.2.4-.4.9a5.78,5.78,0,0,1-.5-1.4c0-.1.3-.2.4-.4A4.05,4.05,0,0,1,148.1,183.8Z" transform="translate(0 -0.06)"/><path d="M147.7,165.2a2.92,2.92,0,0,1-.2.9l-.4-.2a1.42,1.42,0,0,0-.6-.2,4.35,4.35,0,0,1,.7-.6C147.3,165,147.7,165.1,147.7,165.2Z" transform="translate(0 -0.06)"/><path d="M147.3,63.3c.1,0,.3.2.6.5a8.65,8.65,0,0,1-1.7.7c-.2,0-.5-.4-.8-.6C146,63.7,146.6,63.5,147.3,63.3Z" transform="translate(0 -0.06)"/><path d="M146.5,165.6Z" transform="translate(0 -0.06)"/><path d="M146,176.3h0c-.2.3.3,1.2-.6.8-.3-.1-.4-.6-.6-.8Z" transform="translate(0 -0.06)"/><path d="M145.2,178.6c.1.3.3.5.3.7s-.3.3-.4.5c-.1-.2-.3-.4-.3-.5A2.74,2.74,0,0,1,145.2,178.6Z" transform="translate(0 -0.06)"/><path d="M144.5,65.5c.2.2.5.4.5.5a4.32,4.32,0,0,1-.6.9,3.08,3.08,0,0,1-.4-.9C144,65.8,144.4,65.7,144.5,65.5Z" transform="translate(0 -0.06)"/><path d="M144.3,174.4c.2,0,.4.3.7.6-.4.2-.6.4-.8.4s-.4-.3-.4-.4C143.9,174.7,144.1,174.4,144.3,174.4Z" transform="translate(0 -0.06)"/><path d="M143.1,173.5c.1-.1.3.2.6.4l-.7.7c-.2-.2-.5-.4-.5-.6S142.9,173.6,143.1,173.5Z" transform="translate(0 -0.06)"/><path d="M143.7,170.6c-.4.2-.6.4-.8.4s-.3-.3-.5-.5c.2-.2.3-.4.6-.5S143.3,170.3,143.7,170.6Z" transform="translate(0 -0.06)"/><path d="M143,67.8a2.91,2.91,0,0,1-.5,1c-.2-.6-.4-.8-.4-1s.2-.4.4-.6C142.7,67.4,143,67.6,143,67.8Z" transform="translate(0 -0.06)"/><path d="M142.3,166.1h0c-.2.2-.3.5-.5.6a.62.62,0,0,1-.7-.2.64.64,0,0,1,0-.6,1.7,1.7,0,0,1,.7-.1C142,165.9,142.1,166,142.3,166.1Z" transform="translate(0 -0.06)"/><path d="M141.5,169.3a8,8,0,0,1,.8.6l-.8.6a2,2,0,0,1-.4-.8C141,169.6,141.3,169.2,141.5,169.3Z" transform="translate(0 -0.06)"/><path d="M140.4,159.9l.2.7c-.1.1-.2.2-.3.2l-1.2-.3c0-.1,0-.4.1-.4C139.6,160,140,160,140.4,159.9Z" transform="translate(0 -0.06)"/><path d="M139.4,164c.3.4.5.6.4.7a1.21,1.21,0,0,1-.5.5s-.4-.3-.3-.4A1.23,1.23,0,0,1,139.4,164Z" transform="translate(0 -0.06)"/><path d="M139.7,157.6l-.1.1-.1-.2Z" transform="translate(0 -0.06)"/><path d="M139.6,157.5l.1.2-.9.9a2.41,2.41,0,0,1-.6-.8c-.1-.3.4-.5.6-.6A1.6,1.6,0,0,1,139.6,157.5Z" transform="translate(0 -0.06)"/><path d="M137.4,41.8a4.66,4.66,0,0,1,.4,3.1,6.3,6.3,0,0,1-2.9,3.9,11.15,11.15,0,0,1-10.2.8c-4-1.5-5.4-7.3-1.7-10.3,2-1.7,3.7-1.8,6.7-2A9.54,9.54,0,0,1,137.4,41.8Zm-2.9,5.9c2.1-1.1,3.3-3.9,1.3-5.8a16.39,16.39,0,0,0-3.7-2.6,7.13,7.13,0,0,0-8.4,1.1,4.71,4.71,0,0,0-.3,6.6l.5.5c1.6,1.3,3.3,1.7,6.1,1.8C131.5,48.8,133.1,48.3,134.5,47.7Z" transform="translate(0 -0.06)"/><path class="cls-3" d="M135.8,41.9c2,1.9.8,4.7-1.3,5.8-1.4.6-3,1.1-4.5,1.6-2.8-.1-4.5-.5-6.1-1.8l-.5-.5a4.71,4.71,0,0,1,.3-6.6,7.13,7.13,0,0,1,8.4-1.1A16.39,16.39,0,0,1,135.8,41.9Z" transform="translate(0 -0.06)"/><path d="M133,192.4c-.2,2.9-1,5.1-2.9,6.5a8,8,0,0,1-5.2,1.1,7.41,7.41,0,0,1-5.4-2.3,6.8,6.8,0,0,1,.4-9.6c.1-.1.2-.2.3-.2,1.7-1.6,3.8-1.7,6.1-1.3a8.25,8.25,0,0,1,5.9,3.6A11.26,11.26,0,0,1,133,192.4Zm-4.7,5.9c2.3-.4,4.1-3.9,3.3-6.2-1.1-3.1-3.5-4.5-7.3-4.6a6.28,6.28,0,0,0-1.9.3c-3.4,1.1-4.4,6-1.8,8.8C122.7,198.9,125.5,198.8,128.3,198.3Z" transform="translate(0 -0.06)"/><path class="cls-3" d="M131.6,192.1c.8,2.3-1,5.8-3.3,6.2-2.8.5-5.6.6-7.7-1.7-2.6-2.8-1.6-7.7,1.8-8.8a6.28,6.28,0,0,1,1.9-.3C128.1,187.6,130.5,189,131.6,192.1Z" transform="translate(0 -0.06)"/><path d="M107,22.8c0,2.2.3,4.5.2,6.7-.2,3.3-.7,6.6-1.2,9.9-.4,2.8-1,5.5-1.6,8.2-.5,2.1-.9,4.2-1.5,6.3-.7,2.7-1.5,5.3-2.3,7.9a7,7,0,0,1-1.3,2.4c-1.3,1.8-3.6,2-5.8.5a20.69,20.69,0,0,1-3.8-2.8A13.42,13.42,0,0,1,87,57.5c-1.7-4.1-3.2-8.3-4.7-12.5-1.3-3.6-2.4-7.2-3.7-10.7-1-2.6-2.4-5-3.5-7.6a15.23,15.23,0,0,1-1.4-6.3,15.84,15.84,0,0,0-1-4.3c-.6-2.2.1-3,2.3-2.6a17,17,0,0,1,7.5,3,1.08,1.08,0,0,0,.8.2c2.1-.2,4.2-.4,6.3-.8.8-.1,1.4-1,2.2-1.4a31.13,31.13,0,0,1,4-2.2c1.4-.6,1.7-.3,2,1,.1.6.1,1.2.2,1.8h-.1c0,.7-.3,1.8.1,2.1a6.6,6.6,0,0,0,2.7,1.2c1.3.4,2.7.5,4,1C106.7,20.3,107.1,21.3,107,22.8Zm-1.1,10.1a86.1,86.1,0,0,0,0-8.8,10,10,0,0,0-.4-2.4c-.2-.7-.5-.7-1-.1-.1.1-.2.1-.2.2-.1-.1-.2-.2-.2-.3,0-1.1-.8-1.1-1.5-1.1a5.58,5.58,0,0,0-.8-.5c-1.3-.4-1.4-.3-1.4,1a17.7,17.7,0,0,1-.1,2.3c-.9,4.7-1.7,9.3-2.6,13.9-.6,3.1-1.4,6.2-2.2,9.2-.3,1.2-.3,2.5-.7,3.7-.5,1.7-1.2,3.2-1.8,4.9-.7,2-1.5,3.9-2.2,5.9-.1.1-.1.4,0,.4,1.1.6,2.2,1.2,3.4,1.8l.2-.2.7-.3c0,.4.1.7.1,1.1,0,.2-.1.5,0,.6a2.59,2.59,0,0,0,3.2-.5,22.11,22.11,0,0,0,1.8-3.4,29.92,29.92,0,0,0,.8-3.2c.7-2.8,1.5-5.5,2.2-8.3.4-1.7.7-3.4,1.1-5.1a44.61,44.61,0,0,0,.8-4.6C105.4,37,105.7,35,105.9,32.9ZM99.4,21.7a14.37,14.37,0,0,0-.8-2.6c-.1-.3-.5-.4-.8-.6a2,2,0,0,0-.4.8c-.8,1.2-1.3,2.7-2.4,3.5-1.9,1.4-3.9,2.9-6.5,2.7a2.35,2.35,0,0,0-.8.2l-5.2,1.5a3.83,3.83,0,0,1-3.7-.8A23.28,23.28,0,0,1,76,23.8l-.9-.9c.1.5.1,1,.2,1.5a5.36,5.36,0,0,0,.5,1.1c1.6,3.7,3.2,7.5,4.8,11.2l.6,1.5V36.5c1-3.6,2.7-6.7,6.1-8.4.5-.2,1.5-.1,1.7.2a5.53,5.53,0,0,1,.7,2.5A7.18,7.18,0,0,1,87,37.5c-1.3,1-2.5,2.2-4.3,2.2-1.1,0-.9.4-.7,1.1,1.6,4.5,3.1,8.9,4.7,13.4a51.25,51.25,0,0,0,2.5,5.3c.1.3.5.4.8.6a5.55,5.55,0,0,0,.6-.8c.6-1.5,1-3.1,1.6-4.6a22.49,22.49,0,0,0,2.3-7.5,35,35,0,0,1,1.3-5.6c.5-2.3,1-4.5,1.5-6.8.3-1.5.5-3.1.8-4.7C98.4,27.3,98.9,24.8,99.4,21.7Zm-2.7-4.6a1.85,1.85,0,0,1-.2-.7L95,18.6c.2.1.5.4.7.4C96.9,18.8,96.3,17.7,96.7,17.1Zm-.4-2.8a2.35,2.35,0,0,0,.2-.8,1.1,1.1,0,0,0-.8,0c-4.6,2-7,4.5-7.5,9.6v.3c0,.3.1.5.1.8l.5-.6a19.17,19.17,0,0,1,1.8-2.2A17.16,17.16,0,0,0,96.3,14.3Zm-1.4,7a1.6,1.6,0,0,0,.5-1c-.3-.1-.7-.5-.9-.4a16.44,16.44,0,0,0-2.2,1.4l.3.3h.8v.1A8.33,8.33,0,0,0,94.9,21.3ZM92.7,23s-.1-.4-.2-.4c-1,0-2-.4-2.6.9l-.2.5.8.2C91.2,23.8,92,23.4,92.7,23Zm-4.2-4.6c.4-1.2.5-1.2-.8-1.2h-.5v-.1c-.9.2-1.8.3-2.7.5-.2.2-.3.4-.2.6.6,1.2,1.2,2.4,1.8,3.7.3.5.4,1.1.7,1.6l.3.3c0-.1.1-.2.1-.4C87.6,21.8,87.9,20.1,88.5,18.4Zm0,12.4a.76.76,0,0,0-.2-.5c-.1.1-.3.2-.4.4-.4.8-.8,1.6-1.2,2.3-1,1.6-2.2,3.1-3.2,4.6-.1.2-.2.3-.2.5s.2.1.3.2c.2-.1.3-.1.4-.2,2.3-1.6,4.7-3.1,4.3-6.5C88.3,31.3,88.5,31,88.5,30.8Zm-1.2-1.3-.3-.3c-.5.4-1,.7-1.7,1.3.6.2,1,.5,1.1.4A5.51,5.51,0,0,0,87.3,29.5Zm-3.2,4.6L86,32.5c-.3-.2-.9-.7-1-.6a10.7,10.7,0,0,0-1.6,1.4A8.43,8.43,0,0,0,84.1,34.1Zm.6-10.7h.6a.75.75,0,0,0-.1-.5c-.7-1.4-1.4-2.7-2.1-4.1a2.34,2.34,0,0,0-.7-.7,3.09,3.09,0,0,0-.2.8c.1,1.3.2,2.3.3,3.4a.66.66,0,0,0,.4.5Zm-.2,2.1a5,5,0,0,0,1.3-.5,5.78,5.78,0,0,0-1.4-.5c-3.9-.8-6.9-3.2-9.5-6.1a2.19,2.19,0,0,1-.5-.3c0,.2-.1.5,0,.6a42.32,42.32,0,0,0,2.2,4.2,7.41,7.41,0,0,0,5,3.4C82.5,26,83.5,25.8,84.5,25.5ZM84,35.4a.6.6,0,0,0-.3-.6c-.9-.2-1.5.5-1.4,1.9l.2.4c.2-.1.3-.2.5-.3A12.13,12.13,0,0,0,84,35.4ZM81.3,18.5c.2-1.2-.5-1.6-1.3-2.1-.5-.3-.8-.2-.8.5a16.55,16.55,0,0,0,.3,3.2c.2.7,1.1,1.1,1.7,1.7a4.65,4.65,0,0,1,.3-.9A6.52,6.52,0,0,1,81.3,18.5Zm-3.1,1.3.2-.7c-.1-3.4-.3-3.7-2.6-4.2a4.87,4.87,0,0,0-1.2-.1c-.2,0-.4.4-.4.5l3.1,4A4.05,4.05,0,0,0,78.2,19.8Z" transform="translate(0 -0.06)"/><path class="cls-2" d="M96.5,16.4a1.85,1.85,0,0,0,.2.7c-.4.6.2,1.7-1,1.9-.2,0-.5-.3-.7-.4Z" transform="translate(0 -0.06)"/><path class="cls-2" d="M96.5,13.5a2.35,2.35,0,0,1-.2.8,17.16,17.16,0,0,1-5.7,7.1,19.17,19.17,0,0,0-1.8,2.2l-.5.6c0-.3-.1-.5-.1-.8v-.3c.5-5.1,2.9-7.6,7.5-9.6A1.1,1.1,0,0,1,96.5,13.5Z" transform="translate(0 -0.06)"/><path class="cls-2" d="M95.4,20.3a1.6,1.6,0,0,1-.5,1,8.33,8.33,0,0,1-1.5.4v-.1h-.8l-.3-.3a16.44,16.44,0,0,1,2.2-1.4C94.7,19.8,95.1,20.2,95.4,20.3Z" transform="translate(0 -0.06)"/><path class="cls-2" d="M92.5,22.6c.1,0,.2.4.2.4-.7.4-1.5.8-2.2,1.2l-.8-.2.2-.5C90.5,22.2,91.5,22.6,92.5,22.6Z" transform="translate(0 -0.06)"/><path class="cls-2" d="M88.3,30.3a.76.76,0,0,1,.2.5c0,.2-.2.5-.2.8.4,3.4-2,4.9-4.3,6.5-.1.1-.2.1-.4.2-.1-.1-.2-.1-.3-.2s.1-.3.2-.5c1-1.5,2.2-3,3.2-4.6.4-.7.8-1.5,1.2-2.3C88,30.5,88.2,30.4,88.3,30.3Z" transform="translate(0 -0.06)"/><path class="cls-2" d="M87,29.2l.3.3a5.51,5.51,0,0,1-.9,1.4c-.1.1-.5-.2-1.1-.4C86,29.9,86.5,29.6,87,29.2Z" transform="translate(0 -0.06)"/><path class="cls-2" d="M86,32.5l-1.9,1.6a8.43,8.43,0,0,1-.7-.8A10.7,10.7,0,0,1,85,31.9C85.1,31.8,85.7,32.3,86,32.5Z" transform="translate(0 -0.06)"/><path class="cls-2" d="M85.3,23.4h-.6l-1.8-.6a.66.66,0,0,1-.4-.5c-.1-1.1-.2-2.1-.3-3.4a3.09,3.09,0,0,1,.2-.8,2.34,2.34,0,0,1,.7.7c.7,1.4,1.4,2.7,2.1,4.1A.75.75,0,0,1,85.3,23.4Z" transform="translate(0 -0.06)"/><path class="cls-2" d="M85.8,25a5,5,0,0,1-1.3.5c-1,.3-2,.5-2.9.8a7.41,7.41,0,0,1-5-3.4,42.32,42.32,0,0,1-2.2-4.2c-.1-.1,0-.4,0-.6a2.19,2.19,0,0,0,.5.3c2.6,2.9,5.6,5.3,9.5,6.1A5.78,5.78,0,0,1,85.8,25Z" transform="translate(0 -0.06)"/><path class="cls-2" d="M83.7,34.8a.6.6,0,0,1,.3.6,12.13,12.13,0,0,1-1,1.4c-.2.1-.3.2-.5.3l-.2-.4C82.2,35.3,82.8,34.6,83.7,34.8Z" transform="translate(0 -0.06)"/><path class="cls-2" d="M80,16.4c.8.5,1.5.9,1.3,2.1a6.52,6.52,0,0,0,.2,2.4,4.65,4.65,0,0,0-.3.9c-.6-.6-1.5-1-1.7-1.7a16.55,16.55,0,0,1-.3-3.2C79.2,16.2,79.5,16.1,80,16.4Z" transform="translate(0 -0.06)"/><path class="cls-2" d="M78.4,19.1l-.2.7a4.05,4.05,0,0,1-.9-.5l-3.1-4c0-.1.2-.5.4-.5a4.87,4.87,0,0,1,1.2.1C78.1,15.4,78.3,15.7,78.4,19.1Z" transform="translate(0 -0.06)"/><path d="M104.9,147.3c1.5.6,1.6,1.8,1.5,3.1,0,2.7-.1,5.4-.1,8.1,0,1.6-.2,3.1-.2,4.7,0,.9.2,1.9.2,2.8-.1,4.9-.3,9.8-.5,14.7v2.1c0,1.33,0,2.67,0,4,0,.67,0,1.33,0,2-.1,2-.5,3.9-2.7,4.7l-.1.1c-2.4,2.6-5.7,2.4-8.8,2.2s-6.1-.5-9.2-1a28.52,28.52,0,0,1-4.8-1.3c-1-.4-1.6-1.9-1.5-3.3a15.14,15.14,0,0,0,.2-3c-.3-5.2,1.7-9.6,4.1-14,1.1-2.1,2.2-4.2,3.4-6.2l5.1-8.1c1.7-2.7,3.3-5.6,5-8.3,1-1.5,2.1-3,3.2-4.4a5.56,5.56,0,0,1,1.7-.9c.2-.1.6,0,.6.1C102.7,146.7,103.9,146.9,104.9,147.3Zm.3,4.2a3,3,0,0,0-1.5-3.3c-.2-.1-.5-.3-.7-.2a.78.78,0,0,0-.3.7c0,1.3-.1,2.6,0,3.8,0,2.4.1,4.7.2,7.1,0,1.1.3,2.2.3,3.3-.1,2.5-.3,4.9-.3,7.4,0,3.2.1,6.4.2,9.6v4.6c.2,1.6.6,3.2.9,4.8h-.2v.4c.1.5.1,1.1.2,1.6a6.36,6.36,0,0,0,.6-1.8c.2-6.7.3-13.3.4-20,0-2.2-.1-4.5-.1-6.8,0-1.9.1-3.7.2-5.6S105.1,153.3,105.2,151.5Zm-4.1,37.1c.6,0,1.5.3,1.3-.9a18.29,18.29,0,0,0-.6-2.5.44.44,0,0,0-.5-.1c-2.2,1.4-4.7,1.4-7.1,1.6a20.27,20.27,0,0,1-7.7-1.1c-2-.6-3.9-1.3-5.9-1.9h-.1a4,4,0,0,0-.3,1.5,1.27,1.27,0,0,0,.4.9c3.8,1.4,7.6,2.6,11.8,2.3A50.59,50.59,0,0,1,101.1,188.6Zm-.7,5.5c1.2-.1,2.1-.9,1.7-1.5s-1.3-.7-2-.8-1.3.4-1.9.4c-2.2.1-4.3.1-6.5,0a13.17,13.17,0,0,1-3.4-.4c-2.4-.6-4.7-1.3-7-1.9-.3-.1-.9-.1-1,.1a1.72,1.72,0,0,0,.9,2.3h.1c4.7,1.5,9.6,1.9,14.8,2.3Zm.7-12.3c.7.2.7,0,.6-.6-.2-2.7-.3-5.5-.3-8.2,0-4,.2-8,.2-12,0-1.4-.5-2.7-.4-4.1,0-3,.3-6,.4-9a5.64,5.64,0,0,0-.4-1.2,7,7,0,0,0-.9.6c-.8,1.1-1.6,2.2-2.4,3.4l-5.1,8.4c-1.1,1.7-2.2,3.4-3.2,5.1-.2.2-.6.6.2.7.2.1.5.1.7.2-.1.2-.2.6-.4.7a1.06,1.06,0,0,1-.8-.1c-.5-.8-.6-.1-.8.2-1.2,2.1-2.4,4.3-3.5,6.4-.9,1.7-1.8,3.5-2.6,5.2-.3.8-.7,1.5-1,2.3-.7,1.8-.1,2.8,1.7,3.2,1.5.4,3,.8,4.4,1.2.6.2,1.2.4,1.7-.2.4-.4.8-.4.8.4a1.06,1.06,0,0,0,.6.7,3.8,3.8,0,0,0,2.1.2c.8-.3,2.3.7,2.3-1.1,0-.1.4-.2.7-.3a2,2,0,0,0,.1.7,1.45,1.45,0,0,0,.2.7,4.62,4.62,0,0,0,3-1.1c.2-.2.8-.4.9-.3,1.1.7,1.3-.1,1.6-.9,0-.1-.2-.4-.3-.4h-.9l-.1-.4A1.49,1.49,0,0,1,101.1,181.8Zm-.8,8.9c.3.2.5-.1.8-.4a5.55,5.55,0,0,0-.8-.6c-.8-.2-1.6-.4-2.6-.6-.1.1-.5.2-.5.3a4.3,4.3,0,0,0,0,1.6c0,.1.3.3.4.3a.86.86,0,0,0,.6-.3c.1-.2,0-.5,0-.7l.3-.6c.2.1.3.2.5.3s.1.5.2.5A2,2,0,0,0,100.3,190.7Zm-4.1.6.3-.9c-.1-1-.1-1-1.1-1.1a6.6,6.6,0,0,1-1.4-.1c-1.5-.2-1.5-.2-1.2,1.2.1.3.4.5.6.7l.6-.6a5.55,5.55,0,0,0,.6-.8c.2.2.4.5.6.7A1.76,1.76,0,0,0,96.2,191.3Zm-5.3-.1.8-.9a7.3,7.3,0,0,1-.9-1c-.2.3-.5.5-.4.8A3.7,3.7,0,0,0,90.9,191.2Zm-2.3-.5.8-.7-.8-.8c-.2.2-.5.4-.5.5A9.29,9.29,0,0,0,88.6,190.7Zm-1.6-1-.9-1.2c-.3.5-.7.8-.6.9a2.36,2.36,0,0,0,.9.8C86.5,190.3,87,189.7,87,189.7Zm-3.1,0c.1,0,.5-.4.4-.5-.3-.5-.6-1-1.1-1.7a4.05,4.05,0,0,0-.5.9C82.6,189.4,83.3,189.5,83.9,189.7Zm-1.8-1.5-.6-.7a2.62,2.62,0,0,0-.5.9c0,.1.3.4.5.5Z" transform="translate(0 -0.06)"/><path class="cls-4" d="M103.7,148.2a3,3,0,0,1,1.5,3.3c-.1,1.8,0,3.7-.1,5.6s-.2,3.7-.2,5.6c0,2.3.1,4.6.1,6.8-.1,6.7-.2,13.3-.4,20a6.36,6.36,0,0,1-.6,1.8c-.1-.5-.1-1.1-.2-1.6v-.4h.2c-.3-1.6-.7-3.2-.9-4.8v-4.6c-.1-3.2-.2-6.4-.2-9.6,0-2.5.2-4.9.3-7.4,0-1.1-.3-2.2-.3-3.3-.1-2.4-.2-4.7-.2-7.1-.1-1.2,0-2.5,0-3.8a.78.78,0,0,1,.3-.7C103.2,147.9,103.5,148.1,103.7,148.2Z" transform="translate(0 -0.06)"/><path class="cls-4" d="M102.4,187.7c.2,1.2-.7.9-1.3.9a50.59,50.59,0,0,0-8.7-.2c-4.2.3-8-.9-11.8-2.3a1.27,1.27,0,0,1-.4-.9,4,4,0,0,1,.3-1.5h.1c2,.6,3.9,1.3,5.9,1.9a20.27,20.27,0,0,0,7.7,1.1c2.4-.2,4.9-.2,7.1-1.6a.44.44,0,0,1,.5.1A18.29,18.29,0,0,1,102.4,187.7Z" transform="translate(0 -0.06)"/><path class="cls-4" d="M102.1,192.6c.4.6-.5,1.4-1.7,1.5l-4.3.5c-5.2-.4-10.1-.8-14.8-2.3h-.1a1.72,1.72,0,0,1-.9-2.3c.1-.2.7-.2,1-.1,2.3.6,4.6,1.3,7,1.9a13.17,13.17,0,0,0,3.4.4c2.2.1,4.3.1,6.5,0,.6,0,1.2-.5,1.9-.4S101.7,192,102.1,192.6Z" transform="translate(0 -0.06)"/><path d="M104.3,24.3c0,.2-.2.4-.4.8a1.61,1.61,0,0,1-.3-.9c0-.1.2-.2.4-.3C104.1,24,104.3,24.2,104.3,24.3Z" transform="translate(0 -0.06)"/><path d="M103.8,27a.78.78,0,0,1,.4.4,3.59,3.59,0,0,1-.7,1c-.1-.5-.3-.7-.2-.9A1.18,1.18,0,0,1,103.8,27Z" transform="translate(0 -0.06)"/><path d="M103.7,31.1c.1.2-.3.5-.5.8-.3-.4-.5-.8-.8-1.2l.5-1A6.38,6.38,0,0,1,103.7,31.1Z" transform="translate(0 -0.06)"/><path d="M102.7,34.5c.3.3.5.5.5.6a3.13,3.13,0,0,1-.5,1c-.2-.2-.5-.5-.5-.7S102.5,35,102.7,34.5Z" transform="translate(0 -0.06)"/><path d="M103.2,33.3v.3a.41.41,0,0,1-.5.2,10.84,10.84,0,0,1-1.9-.8,6.07,6.07,0,0,1,.7-1C102.1,32.5,102.7,32.9,103.2,33.3Z" transform="translate(0 -0.06)"/><path d="M102.9,22.5s.4.3.7.5c-.5.6-.9,1.1-1.3,1.6a2.18,2.18,0,0,1-.5-.4A7.12,7.12,0,0,1,102.9,22.5Z" transform="translate(0 -0.06)"/><path d="M102.5,20.4c.1.2.1.4.2.6a6.89,6.89,0,0,1-.3.8c-.2-.1-.4-.2-.4-.3a2.77,2.77,0,0,1,.1-.9A1.42,1.42,0,0,0,102.5,20.4Z" transform="translate(0 -0.06)"/><path d="M102.6,20.4Z" transform="translate(0 -0.06)"/><path d="M102.3,28c.2,0,.4.3.7.5-.3.2-.5.5-.7.5a1,1,0,0,1-.5-.6C101.7,28.3,102.1,28,102.3,28Z" transform="translate(0 -0.06)"/><path d="M102.4,26.7a3,3,0,0,1-.4.8c-.3-.3-.6-.5-.5-.6a1.21,1.21,0,0,1,.5-.5C102.1,26.3,102.4,26.6,102.4,26.7Z" transform="translate(0 -0.06)"/><path d="M102,38.2l.7.6-.8.9a1.27,1.27,0,0,1-.4-.7C101.5,38.8,101.8,38.5,102,38.2Z" transform="translate(0 -0.06)"/><path d="M102.6,37.2c-.2.2-.5.5-.5.4a.66.66,0,0,1-.4-.5c0-.1.2-.3.3-.5Z" transform="translate(0 -0.06)"/><path d="M102.4,43.2l-.9.8c-.2-.2-.5-.5-.5-.8a.56.56,0,0,1,.6-.5C101.9,42.7,102,43,102.4,43.2Z" transform="translate(0 -0.06)"/><path d="M101.7,29.8c.1.2.4.3.4.5s-.2.4-.4.6c-.2-.2-.5-.5-.5-.6S101.5,30,101.7,29.8Z" transform="translate(0 -0.06)"/><path d="M100.9,35.1s.3.3.2.4a1.79,1.79,0,0,1-.5.7,2.74,2.74,0,0,1-.4-.7A5.74,5.74,0,0,1,100.9,35.1Z" transform="translate(0 -0.06)"/><path d="M100.9,40.6l.7.6-.8.6c-.1-.2-.3-.4-.2-.6A1.1,1.1,0,0,1,100.9,40.6Z" transform="translate(0 -0.06)"/><path d="M100.6,46.7a1.42,1.42,0,0,1,.2.6c-.1.2-.2.6-.3.6a1.14,1.14,0,0,1-.8-.3l-1.2-1.5a1.06,1.06,0,0,1-.1-.8c0-.1.5-.3.6-.2C99.6,45.6,100.1,46.2,100.6,46.7Z" transform="translate(0 -0.06)"/><path d="M100.5,174c.1-.1.4.1.7.3-.3.2-.5.5-.7.5s-.3-.2-.5-.3C100.2,174.3,100.3,174.1,100.5,174Z" transform="translate(0 -0.06)"/><path d="M100.6,37.7a6.89,6.89,0,0,1-.3.8,7.76,7.76,0,0,1-.4-.7c0-.1.3-.4.4-.6C100.3,37.4,100.6,37.5,100.6,37.7Z" transform="translate(0 -0.06)"/><path d="M100.8,39.8c-.4.2-.6.4-.8.3a2.65,2.65,0,0,1-.6-.5,3,3,0,0,1,.7-.5C100.3,39.1,100.5,39.5,100.8,39.8Z" transform="translate(0 -0.06)"/><path d="M99.9,178.9c.2,0,.4.3.8.6-.3.1-.7.2-1,.3-.1,0-.3-.4-.3-.4S99.8,178.9,99.9,178.9Z" transform="translate(0 -0.06)"/><path d="M99.2,50.4c.2.3.5.8.4,1a6.89,6.89,0,0,1-1.1,1.3c-.1-.2-.4-.5-.4-.7a11.11,11.11,0,0,1,.7-1.6Z" transform="translate(0 -0.06)"/><path d="M99.6,43.8a9.2,9.2,0,0,1-.3.9l-.8-.9c.2-.2.4-.4.6-.4A.66.66,0,0,1,99.6,43.8Z" transform="translate(0 -0.06)"/><path d="M100.2,41.9c-.4.3-.6.5-.8.5a.7.7,0,0,1-.5-.4c0-.1.3-.6.4-.6A4.54,4.54,0,0,1,100.2,41.9Z" transform="translate(0 -0.06)"/><path d="M99.4,49.3l-.4.4-.7-.9.2-.2Z" transform="translate(0 -0.06)"/><path d="M99.2,159.2a7.76,7.76,0,0,1,.7.4c-.4.2-.6.4-.8.4s-.3-.2-.5-.3A2.65,2.65,0,0,1,99.2,159.2Z" transform="translate(0 -0.06)"/><path d="M98.4,53.6l.7.9c-.3.2-.7.7-1.1.7s-.6-.4-.9-.7Z" transform="translate(0 -0.06)"/><path d="M98.4,166.1c.1-.1.3.2.7.4a3.13,3.13,0,0,1-1,.5c-.1,0-.3-.2-.5-.3C97.9,166.5,98.1,166.3,98.4,166.1Z" transform="translate(0 -0.06)"/><path d="M98.1,47.8a3.55,3.55,0,0,0,.4.9l-.2.2-.6-.8Z" transform="translate(0 -0.06)"/><path d="M98.8,175.9l-.9.6-.7-.7c.2-.2.5-.5.7-.5A4.7,4.7,0,0,1,98.8,175.9Z" transform="translate(0 -0.06)"/><path d="M97.9,170.6c.2,0,.4.3.8.6a1.87,1.87,0,0,1-1,.5c-.3,0-.5-.4-.5-.6A.75.75,0,0,1,97.9,170.6Z" transform="translate(0 -0.06)"/><path d="M97.8,56.7a1.5,1.5,0,0,1-.2,1,2.1,2.1,0,0,1-1.1.4,3.79,3.79,0,0,1-1.5,0c-.2,0-.4-.3-.6-.5l.9-.5.2.3a7.46,7.46,0,0,1,1.2-.7Z" transform="translate(0 -0.06)"/><path d="M97.7,182.9c0,.1-.4.6-.5.5a8.79,8.79,0,0,1-1-.6l.8-.9A6.07,6.07,0,0,1,97.7,182.9Z" transform="translate(0 -0.06)"/><path d="M97.6,49.9c.2,0,.3.2.5.5a3.39,3.39,0,0,0-.6.6,1.08,1.08,0,0,1-.3-.7C97.1,50.1,97.4,49.9,97.6,49.9Z" transform="translate(0 -0.06)"/><path d="M97.2,180a2.8,2.8,0,0,1-.5.8l-1-.9c.2-.1.5-.4.7-.4A2.18,2.18,0,0,1,97.2,180Z" transform="translate(0 -0.06)"/><path d="M96.7,51.9c.2.2.5.5.4.6a1.79,1.79,0,0,1-.5.7l-.6-.5Z" transform="translate(0 -0.06)"/><path d="M96.3,54.4c0,.2.2.5.2.6a1.79,1.79,0,0,1-.5.7c-.2-.2-.5-.4-.5-.6s.2-.3.4-.5Z" transform="translate(0 -0.06)"/><path d="M96.3,60.2a.52.52,0,0,1-.6.8.45.45,0,0,0-.5,0,3.51,3.51,0,0,0-.8.5l-.7-1.3c0-.1,0-.2.1-.2a1.85,1.85,0,0,1,.7-.2A3.92,3.92,0,0,1,96.3,60.2Z" transform="translate(0 -0.06)"/><path d="M95,181.3c.1,0,.3.2.5.4l-.8.9-.4-.6A1.58,1.58,0,0,1,95,181.3Z" transform="translate(0 -0.06)"/><path d="M94.4,179a.76.76,0,0,1-.2.4,4.18,4.18,0,0,1-1,.4c-.1,0-.2-.3-.4-.5l.9-.6A2.12,2.12,0,0,1,94.4,179Z" transform="translate(0 -0.06)"/><path d="M94.1,174.3a4.43,4.43,0,0,1,.6.5,2.18,2.18,0,0,1-.8.5c-.1,0-.3-.2-.5-.3Z" transform="translate(0 -0.06)"/><path d="M93.8,162.4c.2,0,.4.2.8.5-.5.2-.7.5-.9.4s-.4-.3-.7-.5A5.94,5.94,0,0,1,93.8,162.4Z" transform="translate(0 -0.06)"/><path d="M93.3,168.1c.2,0,.4.3.8.6a4.7,4.7,0,0,1-.9.6,1,1,0,0,1-.5-.6A.9.9,0,0,1,93.3,168.1Z" transform="translate(0 -0.06)"/><path d="M93.5,184.4l-.9.7-.8-.7c.3-.2.5-.5.8-.5S93.2,184.2,93.5,184.4Z" transform="translate(0 -0.06)"/><path d="M93.2,182l-.7.6a4.35,4.35,0,0,1-.6-.7c0-.1.3-.5.5-.5S92.9,181.8,93.2,182Z" transform="translate(0 -0.06)"/><path d="M91.3,182.6a2.65,2.65,0,0,1-.5.6c-.1.1-.3-.2-.6-.4.3-.2.5-.4.7-.5S91.1,182.5,91.3,182.6Z" transform="translate(0 -0.06)"/><path d="M90,173.1c.1-.1.3.1.8.3l-.9.6c-.1,0-.3-.2-.5-.4A1,1,0,0,1,90,173.1Z" transform="translate(0 -0.06)"/><path d="M89.4,176.3c.2.3.5.5.4.6s-.3.4-.5.5a1.79,1.79,0,0,1-.5-.7C89,176.6,89.2,176.4,89.4,176.3Z" transform="translate(0 -0.06)"/><path d="M89.2,182.2c.1,0,.3.2.6.5-.3.2-.6.3-.9.5-.1,0-.3-.3-.3-.3A4.35,4.35,0,0,1,89.2,182.2Z" transform="translate(0 -0.06)"/><path d="M88.7,179.7c.2.3.5.5.4.6l-.6.6c-.1-.2-.4-.4-.3-.5S88.5,179.9,88.7,179.7Z" transform="translate(0 -0.06)"/><path d="M89.1,169.6c0,.2-.3.5-.6.9-.2-.4-.3-.8-.5-1.2,0-.1.4-.3.5-.3S89.1,169.4,89.1,169.6Z" transform="translate(0 -0.06)"/><path d="M87.4,181a1.69,1.69,0,0,1,.2.5,1.79,1.79,0,0,1-.5.7c-.1-.1-.3-.3-.3-.4l.3-.6Z" transform="translate(0 -0.06)"/><path d="M87.2,172.7c.2,0,.3.4.7.7a3.55,3.55,0,0,1-1,.2c-.1,0-.3-.4-.3-.4C86.7,173,87,172.7,87.2,172.7Z" transform="translate(0 -0.06)"/><path d="M86.2,177.2c.2.2.4.3.5.5l-2.1,1.7c-.1-.3-.2-.6-.1-.7C85,178.2,85.6,177.7,86.2,177.2Z" transform="translate(0 -0.06)"/><path d="M85.2,174.9l.3.4a1.08,1.08,0,0,1-.8.2c-.3-.1-.4-.3-.6-.5.2-.2.3-.4.6-.5S85,174.7,85.2,174.9Z" transform="translate(0 -0.06)"/><path d="M84.7,181.7a2.91,2.91,0,0,1,1,.5,2.91,2.91,0,0,1-1,.5c-.2,0-.4-.3-.4-.5A.66.66,0,0,1,84.7,181.7Z" transform="translate(0 -0.06)"/><path d="M84.3,179.7l.4.4-.6.6c-.1,0-.3-.2-.5-.4Z" transform="translate(0 -0.06)"/><path d="M83.6,177.7l-.4.6-.9-.6c.1,0,.1-.1.2-.1Z" transform="translate(0 -0.06)"/><path d="M82.1,180.8c.1,0,.3.2.6.4-.3.2-.5.5-.7.5s-.3-.3-.5-.5C81.7,181.1,81.8,180.9,82.1,180.8Z" transform="translate(0 -0.06)"/><path d="M47.9,83.5c.3,1.1.8,2.4-.3,3.6-.3.3-.1,1-.1,1.6-.1,1.6-.2,3.2-.4,4.7a9,9,0,0,1-.6,2.2,1.28,1.28,0,0,1-1.6.9.76.76,0,0,1-.4-.2c-1.6-.9-3.2-2-4.9-2.8-4.5-2.2-7.9-5.8-11.3-9.3-2-2-3.8-4.1-5.8-6.2-1.3-1.3-3.8-5.8-3.8-7.1l1.4-6.2a13,13,0,0,0,.7-3.3,5.3,5.3,0,0,1,2-3.8,63.93,63.93,0,0,1,5.4-5,12.12,12.12,0,0,1,3.2-2.2c1.7-.8,2.9-.4,3.6,1,1.5,2.9,2.9,5.7,4.2,8.7,1.9,4.3,3.6,8.6,5.3,12.9C45.8,76.5,46.9,80,47.9,83.5ZM45.8,94.3c.2-1.5.4-3,.5-4.4h-.1c0-.6.2-1.2,0-1.6s-.8-.7-1.3-1a3.7,3.7,0,0,0-.5,1.1c-.1,1.6-.2,3.3-.2,4.9a2.74,2.74,0,0,0,.2,1.3c.2.3.7.3,1,.4A1.61,1.61,0,0,0,45.8,94.3Zm-2.3-6a3.24,3.24,0,0,0-1.6-3.7c-.2-.1-.3-.2-.5-.2a.6.6,0,0,0-.1.4L41,88.6h.1V91a2.83,2.83,0,0,0,1.5,2.8l.6.3a1.48,1.48,0,0,0,.1-.7,43.49,43.49,0,0,1,.2-5.1Zm-3.2-2.7c.2-1.5.1-2.8-1.3-3.8a6.12,6.12,0,0,1-1.5-1.7c0,.9-.1,1.7-.1,2.6,0,.2.1.4.1.6.2,2.4.3,4.8.5,7.2.1.6,1.1,1.6,1.8,1.4.2-.1.3-.8.4-1.2a43.41,43.41,0,0,1,.1-5.1Zm-3.5,3.9a10,10,0,0,0-.2-1.6c0-2.8,0-5.6-.2-8.4a3.81,3.81,0,0,0-.8-1.7,5.26,5.26,0,0,0-1.4-1.2c-.5-.4-.8-.3-.8.4v3.2a46.14,46.14,0,0,1,.2,5.5A4.63,4.63,0,0,0,36,89.8c.6.3.8.1.8-.3Zm-4.1-2.9a.6.6,0,0,0,.1-.4c0-.8-.1-1.7-.1-2.5,0-2.4.1-4.7,0-7.1a5.66,5.66,0,0,0-.8-2.5,7.28,7.28,0,0,0-1.7-1.8l-.3-.3c-.1.2-.2.3-.2.5-.1,2-.2,4-.4,5.9h.2V82a3.92,3.92,0,0,0,.4,1.8c.8.9,1.6,1.8,2.4,2.6.2.1.3.1.4.2ZM28.8,72.3c.2-1.4-.5-2-1.1-2.8-.2-.1-.5-.3-.7-.4a3.18,3.18,0,0,0-.3.9c-.2,2.1-.3,4.2-.4,6.2h.1a12.92,12.92,0,0,0,.1,3.4c.2.8,1.1,1.5,1.7,2.2a17,17,0,0,0,.4-2.2C28.7,77.2,28.4,74.7,28.8,72.3Zm-3.2-1.7c.2-1.8.3-3.4-1.3-4.7l-.4-.4a1.42,1.42,0,0,0-.2.6,33.64,33.64,0,0,0-.8,9.5c-.1,1.4,1.1,1.8,1.6,2.6.1.2.4.3.6.5a3.09,3.09,0,0,0,.2-.8C25.4,75.4,25.3,73,25.6,70.6Zm-2.7-6.1c.1-.6-.6-1.3-1-1.9a12.13,12.13,0,0,0-.5,1.4c0,.1-.1.1-.1.2-.5,2.1-.9,4.2-1.4,6.6.4,1,.9,2.1,1.4,3.2,0,.1.2.2.3.2a.45.45,0,0,0,.3-.3,19.27,19.27,0,0,1,.1-2.4C22.2,69.3,22.6,66.9,22.9,64.5Z" transform="translate(0 -0.06)"/><path class="cls-6" d="M47,84.3a1.28,1.28,0,0,1-.5,1.5,1,1,0,0,1-1.4-.1c-2.2-2.1-4.4-4.2-6.5-6.4-1.5-1.5-3-3.2-4.5-4.7-.5-.5-.6-.8-.2-1.4.2-.3.1-.9.1-1.4l-1.7.2c-.2,0-.5.1-.6,0-2.7-2.9-5.7-5.6-7.9-9-.4-.6-1.1-1.1-1.3-1.7s-.3-1.6,0-1.9c2.4-2.3,4.9-4.5,7.2-6.8.2-.1.3-.2.5-.3,2.8-1.5,3.3-1.5,4.9,1.7s3,6.5,4.4,9.7a1.27,1.27,0,0,1,.1.6c-.1.3-.1.7-.2,1-.1.8,0,1,.9,1,.2,0,.3.3.4.5.7,1.6,1.3,3.2,2,4.7A80.21,80.21,0,0,1,47,84.3Z" transform="translate(0 -0.06)"/><path d="M44.6,82.3a4.42,4.42,0,0,1,.9.8c-.6.3-.9.6-1.2.6s-.5-.4-.8-.6A4.44,4.44,0,0,1,44.6,82.3Z" transform="translate(0 -0.06)"/><path d="M43.3,78c.2,0,.7.8.6,1a2.19,2.19,0,0,1-1,.9c-.2,0-.6-.5-1.1-1C42.5,78.4,42.9,78,43.3,78Z" transform="translate(0 -0.06)"/><path class="cls-7" d="M40.7,142.1c1.9.6,2.5,1.8,1.8,3.9-1.3,3.6-5.2,4.5-7.9,1.7a6.39,6.39,0,0,1-.8-1.9,3.38,3.38,0,0,1,1.6-2.7A6.2,6.2,0,0,1,40.7,142.1Zm.4,4.9c.9-1.1.8-3.1-.3-3.4a16,16,0,0,0-2.1-.5,4.53,4.53,0,0,0-1.6.3,2.57,2.57,0,0,0-1.9,2.2c-.1,1.3.9,1.6,1.7,2a3.58,3.58,0,0,0,1.1.4A3.4,3.4,0,0,0,41.1,147Z" transform="translate(0 -0.06)"/><path class="cls-3" d="M40.8,143.6c1.1.3,1.2,2.3.3,3.4a3.4,3.4,0,0,1-3.1,1,3.58,3.58,0,0,1-1.1-.4c-.8-.4-1.8-.7-1.7-2a2.57,2.57,0,0,1,1.9-2.2,4.53,4.53,0,0,1,1.6-.3A16,16,0,0,1,40.8,143.6Z" transform="translate(0 -0.06)"/><path d="M41.2,72.7c.2.3.5.5.8.9l-1,1.1c-.2-.3-.6-.6-.6-.8A8.34,8.34,0,0,1,41.2,72.7Z" transform="translate(0 -0.06)"/><path d="M41.2,127.2c.3,3.5-2.1,5.6-6,6.3-2.7.5-6.4-2.3-7-5.3-.3-1.3,1.1-5.2,2.2-5.3,1.8-.2,3.1-1.5,4.8-1.5a7.83,7.83,0,0,1,3.4.5C40.9,123,41,125.2,41.2,127.2Zm-1.2.6a3.3,3.3,0,0,0,0-1.4,12.66,12.66,0,0,0-.6-1.8c-.4-1.2-2.4-2.5-3.6-2.1a26.68,26.68,0,0,0-4.6,2,3,3,0,0,0-1.4,4c0,.1.1.1.1.2,1.4,3.2,3.9,4.2,7.1,3.1C39.4,131,40,130.2,40,127.8Z" transform="translate(0 -0.06)"/><path class="cls-3" d="M40,126.4a3.3,3.3,0,0,1,0,1.4c0,2.4-.6,3.2-3,4-3.2,1.1-5.7.1-7.1-3.1,0-.1-.1-.1-.1-.2a3,3,0,0,1,1.4-4,26.68,26.68,0,0,1,4.6-2c1.2-.4,3.2.9,3.6,2.1A12.66,12.66,0,0,1,40,126.4Z" transform="translate(0 -0.06)"/><path d="M39,102.6a6.24,6.24,0,0,1,1.2,7.4c-1.5,2.8-6,5-8.8,4a11.68,11.68,0,0,1-5.6-4.4c-.5-.7-.4-1.9-.6-2.8a7.76,7.76,0,0,1,2.3-5.8,4.65,4.65,0,0,1,3.9-1.4A11.37,11.37,0,0,1,39,102.6Zm-4.9,10.6c3.2-.6,6-2.1,5.7-5.6a5.72,5.72,0,0,0-1.7-4.4c-2.2-2.2-5.1-2.7-8-2.6a3,3,0,0,0-1.9,1,6.65,6.65,0,0,0-.5,8.5,24.33,24.33,0,0,0,2.5,2A4.28,4.28,0,0,0,34.1,113.2Z" transform="translate(0 -0.06)"/><path class="cls-3" d="M39.8,107.6c.3,3.5-2.5,5-5.7,5.6a4.28,4.28,0,0,1-3.9-1.1,24.33,24.33,0,0,1-2.5-2,6.65,6.65,0,0,1,.5-8.5,3,3,0,0,1,1.9-1c2.9-.1,5.8.4,8,2.6A5.72,5.72,0,0,1,39.8,107.6Z" transform="translate(0 -0.06)"/><path d="M39.6,76.4c0,.3-.5.7-.8,1.1l-1.3-1.4,1.4-1C39.2,75.5,39.6,75.9,39.6,76.4Z" transform="translate(0 -0.06)"/><path d="M39.7,70.2l-1.5,1.3a7.1,7.1,0,0,1-1-1.4c0-.1.6-.8.9-.8A4.46,4.46,0,0,1,39.7,70.2Z" transform="translate(0 -0.06)"/><path d="M35.6,57.5c0,1.1-.8,2.2-1.5,2a2.36,2.36,0,0,1-1.2-1.4c-.2-1.1.8-1.3,1.6-1.4C35,56.7,35.4,57.3,35.6,57.5Z" transform="translate(0 -0.06)"/><path d="M35.4,64.1c.3,0,.6.3,1.2.6a8.26,8.26,0,0,1-1.3.7c-.2,0-.5-.4-.7-.6C34.9,64.5,35.1,64.1,35.4,64.1Z" transform="translate(0 -0.06)"/><path d="M31,65.1c.4,0,.8.8,1.2,1.2a1.62,1.62,0,0,1-1.4,1.6h-.3c-.3,0-.8-.6-.8-.8C30,66.3,29.8,65.1,31,65.1Z" transform="translate(0 -0.06)"/><path d="M30.4,59.4c.2.3.7.6.7.9s-.4.6-.7.9a3.13,3.13,0,0,1-.9-1.1c-.1-.2.3-.7.4-1Z" transform="translate(0 -0.06)"/><path d="M30.1,55.6c.1-.1.4.2.9.4a10.91,10.91,0,0,1-1.1.6c-.1,0-.3-.2-.5-.4C29.6,56,29.9,55.8,30.1,55.6Z" transform="translate(0 -0.06)"/><path d="M25.9,60.3c.2-.1.8.7,1.4,1.3-.6.6-1,1.2-1.5,1.3a1,1,0,0,1-1.2-.7v-.5A2.27,2.27,0,0,1,25.9,60.3Z" transform="translate(0 -0.06)"/><path class="cls-8" d="M66.5,58.9c-.2,4.2-2.2,6.6-6.5,7A8.53,8.53,0,0,1,51.8,62a4.6,4.6,0,0,1-.6-4.1c.7-2.1,1.5-4.3,4-4.7,3.3-.5,6.7-.6,9.5,1.8A5,5,0,0,1,66.5,58.9Z" transform="translate(0 -0.06)"/><path d="M54.6,173l.9-1.09a10,10,0,0,0,1-1.1v-.4c-1.2-.1-1-1.2-1.2-1.9a4.29,4.29,0,0,1,0-1.6c.2-1.2-1-2.3-2.7-2.3-1.9,0-3.6-1-3.6-3.1,0-2.6-1.7-3.8-4.3-3a1.41,1.41,0,0,1-.9-.1c-.1-.7-.5-.4-.8-.2s-.9.4-1.3.6l-.4.2c.1.1.3.2.4.3,2.1.7,2.1.7,2.2,2.8v1.4a2.94,2.94,0,0,0,2.9,2.7.9.9,0,0,0,.5-.1,2.15,2.15,0,0,1,2.6,1.4,1.7,1.7,0,0,1,.1.7c-.1,2.5.5,2.3,2.5,2.1.2,0,.3-.1.5-.1a1.62,1.62,0,0,1,1.6,1.4ZM74.3,151.7c.2,1,.3,2,.4,2.7A12.22,12.22,0,0,1,73,160c-1,1.9-2.1,3.7-3.2,5.6-.8,1.4-1.7,2.6-2.6,4-1.3,1.9-2.5,3.7-3.8,5.6-1.2,1.7-2.4,3.3-3.6,5s-2.3,3.2-3.5,4.6a48.88,48.88,0,0,1-4,3.9c-.7.6-1.4.3-2.1-.2a5,5,0,0,0-2-.8c-1.2-.4-2.5-.5-3.8-.9-2.5-.8-5-1.7-7.4-2.7a27.06,27.06,0,0,1-3.7-2.1,38.67,38.67,0,0,1-3.7-3.2,3.57,3.57,0,0,1-.9-3.4v-.6c-.3-2.1.3-4,.7-6,.3-1.3.5-2.6.7-3.9a2.77,2.77,0,0,1,2.3-2.5c2.4-.7,4.4-2.1,6.6-3.2.8-.4,1.8-.6,2.6-1.1,1.8-.9,3.6-1.9,5.4-2.9a68.89,68.89,0,0,1,13.1-5.6c3.3-1.2,6.7-2.3,10-3.7,2-.8,3.1,0,3.2,2.1A23.09,23.09,0,0,0,74.3,151.7Zm-.8,3.3c-.3-1.5-.7-2.9-1-4.2,0-.2-.2-.3-.3-.4l-.2.4c-.9,1.3-1.7,2.7-2.6,4-2.8,4.1-5.6,8.2-8.5,12.2-1.4,2-2.8,3.9-4.3,5.8l-6,7.5a2.26,2.26,0,0,0-.2,1.6c.5,1.6,1.5,3,.9,4.8v.9a5,5,0,0,0,1.2-.2,1.7,1.7,0,0,0,.6-.6c1.1-1.3,2.2-2.7,3.3-4,1.4-1.8,2.9-3.6,4.2-5.5s2.6-3.9,3.9-5.9c2.6-4,5.2-8,7.7-12.1A29.32,29.32,0,0,0,73.5,155Zm-2.1-7.2c.1-.4.3-.9.2-1.1a1.09,1.09,0,0,0-1.1-.2c-1.9.7-3.7,1.4-5.6,2.2-.1,0-.2.2-.3.3.1.1.3.1.4.2,1.4.3,2,.9,1.9,2.1-.3.6-.1.7.5.7a1.39,1.39,0,0,1,1.1.2c.8.5,1.2.2,1.4-.5a4.35,4.35,0,0,1,.4-.7A20.21,20.21,0,0,0,71.4,147.8Zm-3.7,7.3c.7-1.3.4-1.9-1.1-1.9-1,0-1.1-.4-1.1-1.2s0-1.6-1-1.7c-1.3-.1-2.7-.9-4.1-.1l-.6.3c.2.1.3.3.5.4.6.4,1.5.7,1.8,1.2a3.36,3.36,0,0,1,.2,2.2c-.1.7.1,1.2.8,1.1a3.87,3.87,0,0,1,3.3.6c.1.1.2.1.4.2A3.13,3.13,0,0,0,67.7,155.1Zm-2.7,4c.8-1.7.2-2.6-1.6-2.6h-.5c-1.9-.1-2.5-.8-1.7-2.5a1.06,1.06,0,0,0-.2-1.4l-.1-.1c-1-.7-2-1.4-3.3-1.1a18.41,18.41,0,0,0-2.5.9,2.51,2.51,0,0,0-.7.4,4.88,4.88,0,0,0,.7.3c.6.2,1.2.3,1.8.5,1.7.6,1.9,1.1,1.5,2.8s-.2,1.9,1.6,1.7h.7c1.5-.1,2.3.2,2.7,1.1.2.6.4,1.1.6,1.7A7.54,7.54,0,0,1,65,159.1Zm-3,2.5c.2-1.9-.2-2.5-2.2-2.5h-.3v.1l-2-.3c-.9-.2-1.2-.7-.8-1.5l.3-.9c.5-1.4.3-1.5-1-2.1a2.35,2.35,0,0,0-.8-.2,21.59,21.59,0,0,0-3.5-.3c-.5,0-1.1.5-1.6.8l1.6.7c1.4.6,1.9,1.4,1.6,2.7a4.53,4.53,0,0,0-.3,1.6c0,.3.3.9.6.9a23.25,23.25,0,0,0,3.7.4,2.24,2.24,0,0,1,2.2,1.4c.3,1,.6,1.9.8,2.9,0,.2.1.3.1.5l.3-.4A6.23,6.23,0,0,0,62,161.6Zm-4.3,7.6a5.74,5.74,0,0,0,.93-3.16,6,6,0,0,0-1-3.34,1.34,1.34,0,0,0-.7-.6l-3.9-.6c-.8-.1-1.5-.2-1.4-1.3.1-.7.2-1.5.3-2.2a1.19,1.19,0,0,0-.7-1.5l-3.2-.2a5.27,5.27,0,0,0-1.2.3c-.2.1-.3.3-.5.4.2.1.4.1.6.2,2,.2,3,1.2,3.2,3.3s1,3,3.2,3,3.3,1.2,3.2,3.8c.1.4.2,1.1.3,1.8S57.4,169.7,57.7,169.2Zm-4.5,4c.6-1.5.3-1.8-1.2-1.9-.2,0-.5.1-.7.1a2,2,0,0,1-2.4-1.5c0-.2-.1-.4,0-.6,0-2-.3-2.3-2.3-2.1a2.89,2.89,0,0,1-3.3-2c-.3-1.2-.3-2.4-.5-3.6-.1-.4-.3-1-.6-1.1a7.61,7.61,0,0,0-2.1-.3h-.5c-.1-.9-.5-.4-.9-.2s-.9.4-1.4.7-.7.3-.1.8a2.27,2.27,0,0,1,.6,1.6,20,20,0,0,1-.4,2.4c-.3,1.6.4,2.3,1.9,2.1h1c2.2-.2,2.8.3,2.6,2.4v.8c-.2.8.1,1.4,1,1.3a16.35,16.35,0,0,0,2.2-.2c2.1-.4,3.2.4,3.2,2.6a2.05,2.05,0,0,0,0,1.1c.2.5.4,1.1.8,1.3a2.22,2.22,0,0,0,1.6-.3,7.89,7.89,0,0,0,1.2-1.5v-1.3Zm-2.8,5.4a3.55,3.55,0,0,1,.4-.9,2.77,2.77,0,0,0-.9.1,1,1,0,0,1-1.4-.4c-.7-.8-.4-1.6-.4-2.3,0-1.9-1.1-2.5-2.6-2a6,6,0,0,1-2.3.2,1.65,1.65,0,0,1-1.7-1.5c0-.6.1-1.3.1-1.9s-.1-1.1-.9-1-1.4.1-2.1.2a1.66,1.66,0,0,1-2.1-1.2c0-.2-.1-.3-.1-.5-.1-1.2,0-2.4,0-3.2.7-1.5-.2-1.8-.9-2a4.19,4.19,0,0,0-1.6.4c-2.4.9-2.5,1-1.5,3.3a13.59,13.59,0,0,0,2.1,3.7,37.23,37.23,0,0,0,4.9,4c1.6,1.2,3.3,2.5,5,3.6,1.2.8,2.4,1.4,3.6,2.1a1.42,1.42,0,0,0,2.2-.3C50.3,178.9,50.3,178.7,50.4,178.6Zm-1,7.7c.3.1.7-.3,1-.5-.5-1.6-1-2.9-1.4-4.2,0-.1-.3-.2-.5-.3-2.1-1.2-4.3-2.3-6.4-3.7a67,67,0,0,1-6-4.5A18.18,18.18,0,0,1,33,170a10.49,10.49,0,0,1-1.4-2.8c-.1-.1-.2-.3-.3-.4-.1.1-.2.1-.2.2a54.82,54.82,0,0,0-1,5.6c-.2,2.4-.3,4.8,2.3,6.5s5,3.6,7.9,4.6S46.4,185.5,49.4,186.3Z" transform="translate(0 -0.06)"/><path class="cls-9" d="M66.6,153.2c1.5,0,1.8.6,1.1,1.9a3.13,3.13,0,0,1-.9,1.1c-.2-.1-.3-.1-.4-.2a3.87,3.87,0,0,0-3.3-.6c-.7.1-.9-.4-.8-1.1a3.36,3.36,0,0,0-.2-2.2c-.3-.5-1.2-.8-1.8-1.2-.2-.1-.3-.3-.5-.4l.6-.3c1.4-.8,2.8,0,4.1.1,1,.1,1,.9,1,1.7S65.6,153.2,66.6,153.2Z" transform="translate(0 -0.06)"/><path class="cls-9" d="M59.8,159.1c2,0,2.4.6,2.2,2.5a6.23,6.23,0,0,1-1.3,3.8l-.3.4c0-.2-.1-.3-.1-.5-.2-1-.5-1.9-.8-2.9a2.24,2.24,0,0,0-2.2-1.4,23.25,23.25,0,0,1-3.7-.4c-.3,0-.6-.6-.6-.9a4.53,4.53,0,0,1,.3-1.6c.3-1.3-.2-2.1-1.6-2.7l-1.6-.7c.5-.3,1.1-.8,1.6-.8a21.59,21.59,0,0,1,3.5.3,2.35,2.35,0,0,1,.8.2c1.3.6,1.5.7,1,2.1l-.3.9c-.4.8-.1,1.3.8,1.5l2,.3v-.1Z" transform="translate(0 -0.06)"/><path class="cls-9" d="M56.5,170.4v.4a10,10,0,0,1-1,1.1L54.6,173V171.6a1.62,1.62,0,0,0-1.6-1.4c-.2,0-.3.1-.5.1-2,.2-2.6.4-2.5-2.1a1.7,1.7,0,0,0-.1-.7,2.15,2.15,0,0,0-2.6-1.4.9.9,0,0,1-.5.1,2.94,2.94,0,0,1-2.9-2.7v-1.4c-.1-2.1-.1-2.1-2.2-2.8-.1-.1-.3-.2-.4-.3l.4-.2c.4-.2,1-.4,1.3-.6s.7-.5.8.2a1.41,1.41,0,0,0,.9.1c2.6-.8,4.3.4,4.3,3,0,2.1,1.7,3.1,3.6,3.1,1.7,0,2.9,1.1,2.7,2.3a4.29,4.29,0,0,0,0,1.6C55.5,169.2,55.3,170.3,56.5,170.4Z" transform="translate(0 -0.06)"/><path class="cls-9" d="M50.8,177.7a3.55,3.55,0,0,0-.4.9c-.1.1-.1.3-.2.4a1.42,1.42,0,0,1-2.2.3c-1.2-.7-2.4-1.3-3.6-2.1-1.7-1.1-3.4-2.4-5-3.6a37.23,37.23,0,0,1-4.9-4,13.59,13.59,0,0,1-2.1-3.7c-1-2.3-.9-2.4,1.5-3.3a4.19,4.19,0,0,1,1.6-.4c.7.2,1.6.5.9,2,0,.8-.1,2,0,3.2,0,.2.1.3.1.5a1.66,1.66,0,0,0,2.1,1.2c.7-.1,1.3-.1,2.1-.2s.9.4.9,1-.1,1.3-.1,1.9a1.65,1.65,0,0,0,1.7,1.5,6,6,0,0,0,2.3-.2c1.5-.5,2.6.1,2.6,2,0,.7-.3,1.5.4,2.3a1,1,0,0,0,1.4.4A2.77,2.77,0,0,1,50.8,177.7Z" transform="translate(0 -0.06)"/></svg>