<?xml version="1.0" encoding="utf-8"?>
<!-- Generator: Adobe Illustrator 21.1.0, SVG Export Plug-In . SVG Version: 6.00 Build 0)  -->
<svg version="1.1" id="Warstwa_1" xmlns="http://www.w3.org/2000/svg" xmlns:xlink="http://www.w3.org/1999/xlink" x="0px" y="0px"
	 viewBox="0 0 198.4 198.4" style="enable-background:new 0 0 198.4 198.4;" xml:space="preserve">
<style type="text/css">
	.st0{fill:#39A348;}
	.st1{fill:#DB5252;}
	.st2{fill:#933A28;}
	.st3{fill:#8F3C29;}
	.st4{fill:#60A05B;}
	.st5{fill:#B01E32;}
	.st6{fill:#61BB48;}
	.st7{fill:#629E5D;}
	.st8{fill:#9D3466;}
	.st9{fill:#010101;}
	.st10{fill:none;stroke:#010101;stroke-miterlimit:10;}
	.st11{fill:#F6891F;}
	.st12{fill:#FFFFFF;}
</style>
<title>Obszar roboczy 1</title>
<path d="M46.6,111.7c-0.6,1.9-1.2,3.8-1.9,5.7c-0.8,2.2-1.5,4.4-2.4,6.6c-0.4,0.5-1,0.8-1.7,0.8c-0.5-0.3-0.9-0.8-1-1.5
	c-0.2-2.6-0.4-5.2-0.5-7.8c-0.2-3.7-0.3-7.4-0.5-11.2c0-1.2-0.1-2.4-0.2-3.5c1.8-0.6,2.1-0.4,2.3,1.6c0.2,2.8,0.3,5.6,0.4,8.3
	c0.1,2.1,0.3,4.1,0.4,6.2c0,0.9,0.1,1.8,0.2,2.7c0.7-1.9,1.4-3.9,2.1-5.8c0.8-2.4,1.6-4.9,2.5-7.4c0.2-0.7,2-0.8,2.3-0.1
	c0.2,0.6,0.4,1.2,0.4,1.8c0.3,2.9,0.6,5.9,0.9,8.8c0.1,1.3,0.2,2.5,0.5,3.8c0.7-2.5,1.2-5,2-7.4c1.2-3.2,2.6-6.4,3.9-9.6
	c0.3-0.7,0.1-1.6,1.3-1.3c0.8,0.2,1.1,0.6,0.8,1.4c-0.4,1.1-0.9,2.2-1.3,3.3c-1.2,3.5-2.4,6.9-3.6,10.4c-0.6,1.8-1,3.6-1.5,5.4
	c-0.2,0.9-0.6,1.7-1,2.5c-0.2,0.4-0.9,0.8-1.2,0.7c-0.5-0.2-1.2-0.7-1.3-1.2c-0.6-3.1-1-6.3-1.4-9.4c-0.2-1.2-0.2-2.4-0.2-3.5
	L46.6,111.7z"/>
<path d="M123.1,96.1c0.9-2.1,1.7-3.9,2.4-5.8c0.6-1.5,1-3,1.6-4.4c0.3-0.8,0.7-1.7,0.9-2.5c0.4-1.8,2.4-2.9,3.6-1.9
	c0.7,0.7,1,1.6,1.1,2.5c0,2.4-0.3,4.8-0.4,7.2c0,1.8,0.2,3.5,0.3,5.3c0.1,2,0.1,3.9,0.1,5.9c0,0.4-0.6,0.9-0.8,1.3
	c-1.8-0.9-1.6-2.5-1.7-4c-0.1-2.6-0.2-5.2-0.2-7.9c0-2.2,0.2-4.3,0-6.6c-0.8,2.3-1.6,4.5-2.4,6.8c-0.6,1.5-1.3,2.9-1.9,4.3
	c-0.3,0.9-0.7,1.8-1.1,2.7c-0.3,0.6-0.9,1.3-1.4,1.3c-1.1,0.1-1.7-1-1.9-1.9c-0.5-1.8-0.9-3.7-1.2-5.6c-0.4-2.2-0.7-4.4-1.1-6.6
	h-0.4c-0.2,1.6-0.4,3.1-0.6,4.7c-0.2,3.2-0.4,6.4-0.6,9.6c0,0.4-0.5,1-0.7,1c-0.6,0-1.1-0.2-1.6-0.4c0.1-1.2,0.2-2,0.3-2.8
	c0.3-3.6,0.6-7.2,0.9-10.8c0.1-1.1,0.2-2.2,0.5-3.2c0.2-0.7,0.7-1.7,1.2-1.7c0.8,0,1.7,0.4,2.2,1c0.5,0.9,0.9,1.8,1,2.8
	c0.3,1.3,0.6,2.6,0.8,3.9L123.1,96.1z"/>
<path d="M50,79.3c0.6-1.7,1.2-3.3,1.8-5c0-0.1,0-0.2,0-0.3c-0.3-0.7-0.4-1.3,0.7-1.2s1.7,0.6,1.4,1.6c-0.4,1.8-1,3.5-1.8,5.2
	c-0.6,1.1-0.6,2.4-0.2,3.6c1.3,4.1,0.7,8.6-1.7,12.2c-1.3,2.1-3.5,2.1-5.6,1.9c-2.5-0.3-4.1-1.9-5.2-4c-1.3-2.5-1.9-5.4-1.5-8.2
	c0.1-0.7,0.3-1.3,0.5-2c0.2-0.6,0.4-1.1,0.6-1.7c0.2-2.2,1.1-3.4,3.3-3.9C45,76.8,47.9,77.5,50,79.3z M49.8,83.5
	c-2.7,1.8-6.2,2.1-9.1,0.7c-0.2,0.3-0.3,0.6-0.4,0.9c-0.2,2.3,0.1,4.5,1,6.6c0.8,2,2,3.4,4.4,3.3c1.8-0.1,2.7-0.2,3.3-1.9
	c0.7-1.8,1.2-3.8,1.4-5.7C50.4,86,50.1,84.7,49.8,83.5z M41.7,82.1c1.9,1.1,4.3,1.1,6.2-0.1c0.9-0.7,0.9-1.2-0.1-1.6
	c-0.6-0.3-1.3-0.6-2-0.8c-0.9-0.3-1.8-0.1-2.5,0.6C42.8,80.7,42.3,81.4,41.7,82.1L41.7,82.1z"/>
<path d="M93.6,92.5c1.8,0.1,3.7-0.4,5.5,1.2c-0.8,0.5-1.6,0.9-2.4,1.2c-1,0.1-2,0.1-3-0.1l1.2,6.2c-2.3,0.8-2.4,0.7-2.8-1.5
	c-0.2-1.3-0.5-2.6-0.7-3.9c-0.1-0.6-0.1-0.9-0.9-0.9c-1.6,0-3.2-0.2-4.9-0.2c-0.4,0.1-0.7,0.3-0.9,0.6c-0.5,1.1-0.8,2.3-1.2,3.5
	c-0.2,0.7-0.7,1.1-1.4,0.8c-0.5-0.3-1.2-0.5-0.9-1.4c0.9-2.2,1.7-4.5,2.6-6.8c1-2.4,2-4.8,3-7.2c0.5-1.3,1-2.6,1.4-3.9
	c0.3-0.9,0.8-1.7,1.9-1.6s1.2,1,1.4,1.8c1,3.4,1.2,7,1.6,10.5C93.3,91.4,93.4,92,93.6,92.5z M89.8,83h-0.4c-0.4,1.3-0.9,2.6-1.3,3.8
	c-0.6,1.5-1.2,3-1.7,4.5c-0.1,0.3,0,0.7,0.2,0.9c1.5,0.1,3,0,4.7,0L89.8,83z"/>
<path d="M146.8,97.3c0.1,2,0.4,3.9,0.4,5.7c0,0.7-0.4,1.4-1,1.9c-0.8,0.3-1.5-0.7-1.5-1.9c0-1.9,0-3.7,0-5.9l-5.7-0.5
	c-0.6,1.6-1.2,3.1-1.8,4.6c-0.2,0.6-0.7,1.2-1.4,0.9c-0.6-0.2-0.9-0.9-0.7-1.5c0-0.1,0-0.1,0.1-0.2c0.8-2.2,1.5-4.5,2.3-6.8
	c1-2.8,1.9-5.5,2.9-8.3c0.3-0.7,0.6-1.4,0.9-2.2c0.4-1.1,1.7-1.6,2.7-1.1c0.4,0.2,0.7,0.4,1,0.8c0.4,0.6,0.6,1.2,0.7,1.9
	c0.4,3.3,0.6,6.6,1,9.8c0,0.2,0.4,0.5,0.7,0.5c1.3,0.2,2.6,0.2,3.8,0.5c0.8,0.2,0.6,0.8,0.2,1.3c-0.9,1-2.1,0.7-3.2,0.7
	C147.7,97.5,147.3,97.4,146.8,97.3z M143.5,84.9h-0.3l-3.4,9.5l4.7,0.3L143.5,84.9z"/>
<path d="M67,92.1c0.1-3.1,0.9-6,2.5-8.6c1-1.9,2.6-3.4,4.5-4.3c2.1-0.9,4.4-0.8,6.5,0.1c0.4,0.3,0.6,0.7,0.6,1.2
	c-0.1,0.6-0.7,0.7-1.3,0.5c-2.6-0.7-5.1-0.5-6.9,1.7c-1.9,2-3.1,4.6-3.4,7.4c-0.4,2.9,0.7,5.8,3,7.6c1,1,2.5,1.2,3.7,0.4
	c0.6-0.4,0.9-1.5,1.1-2.3c0.3-1.3,0.3-2.7,0.6-4.1c0.2-1.1-0.4-1.5-1.3-1.5c-0.7,0-1.3,0-2,0c-0.7-0.2-1.3-0.5-1.8-1
	c-0.1-0.2-0.2-0.4-0.1-0.6c0.3-0.3,0.7-0.8,1.1-0.7c1.8,0.2,3.6,0.5,5.4,0.9c1.3,0.3,1.3,1.6,1.1,2.6c-0.3,2.3-0.7,4.6-1.1,6.9
	c-0.3,1.7-2,2.9-3.7,2.6c0,0,0,0-0.1,0c-1.7-0.1-3.2-0.3-4.6-1.6c-1.4-1.1-2.5-2.7-3-4.4C67.6,93.7,67.2,92.7,67,92.1z"/>
<path d="M133.5,108.8c-0.7,2.9-3.1,2.8-4.5,3.7c1.1,2.8,2.1,5.7,3.2,8.4c0.5,1.2,1.2,2.2,1.6,3.4c0.2,0.6,0.1,1.2-0.1,1.8
	c-0.3,0.8-1.1,1-1.7,0.2c-0.7-1.1-1.4-2.2-1.8-3.4c-0.9-2.4-1.6-4.8-2.4-7.2c-0.1-0.4-0.3-0.7-0.5-1c-0.8-1.3-0.9-1.3-2.2-0.5
	c-0.5,0.4-1.1,0.8-1.8,1.1c-1.4,0.4-1.4,1.3-1.3,2.6c0.2,2.2,0.2,4.5,0.3,6.7c0.1,0.7-0.4,1.3-1,1.3c-0.1,0-0.2,0-0.3,0
	c-0.7-0.3-1.2-0.9-1.3-1.6c-0.2-2.2-0.1-4.5-0.1-6.8c0,0,0-0.1,0-0.1c-0.2-0.8-0.9-2.2-0.7-2.3c0.9-0.6,0.7-1.6,0.8-2.3
	c0.1-1.3,0.1-2.7,0.1-4c0-0.9,0-1.8,0.1-2.8c0.2-0.4,0.6-0.7,1-0.7c0.6,0,1.3,0.1,1.2,1c-0.1,1.8-0.2,3.6-0.2,5.4c0,0.5,0,1,0,1.4
	c1.4-0.7,2.9-1.4,4.3-2s2.9-1.6,4.4-2.1C131.4,108.9,132.5,108.8,133.5,108.8z"/>
<path d="M105.4,108.9c0,1.7,0.1,3.2,0,4.7c-0.1,0.9,0.3,1.1,1.1,1.1c1.5,0,3.1,0,4.6,0c0.6,0,1.2,0.2,1,0.9s-0.1,1.5-1.2,1.4
	c-1.8-0.1-3.5-0.2-5.4-0.2c-0.2,1.9-0.4,3.7-0.5,5.6c0,0.3,0.6,0.8,1,0.8c1.5,0,3-0.2,4.5-0.3c0.2,0,0.4,0.1,0.6,0.1
	c0.8,0,1.6,0.4,1.4,1.3s-1,1.1-1.9,1.1c-1.5,0-3,0.2-4.5,0.2c-2.7,0-3.8-0.2-3.4-3.5c0.3-2.9,0.3-5.8,0.4-8.7c0.1-2,0-3.9,0.2-5.9
	c0-0.3,0.7-0.8,1.1-0.8c1.8-0.2,3.7-0.3,5.5-0.3c1.3-0.1,2.5,0,3.8,0.1c0.5,0.1,0.9,0.7,1.3,1c-0.4,0.5-0.5,1.3-1.5,1.3
	c-2.1-0.1-4.1,0-6.2,0C106.8,108.7,106.1,108.8,105.4,108.9z"/>
<path d="M84.4,121.7c0,1.5,0.1,3,0,4.4c0,0.5-0.7,1-1,1.5c-0.4-0.3-1.1-0.6-1.2-1c-0.2-1.2-0.3-2.5-0.3-3.7c0-2.2,0.2-4.5,0.3-6.7
	c0.1-1.1,0.1-2.2,0.1-3.3c-0.1-1.1-0.2-2.1-0.4-3.2c-0.2-1,0.3-1.6,1.1-1.6c1.9,0,3.8-0.1,5.7,0.9s2.2,2.8,2.4,4.4
	c0.4,2.4,0.3,4.8-1.7,6.6C88.2,121.5,86.3,122,84.4,121.7z M84.4,110.2c0.1,0.8,0.2,1.6,0.2,2.4c0,2-0.2,4.1-0.2,6.1
	c0,0.3,0.1,0.6,0.3,0.8c1-0.2,2.1-0.3,2.8-0.9c1.6-1.4,1.6-3.3,1.2-5.2c-0.3-1.4-0.8-2.9-2.6-3.2C85.6,110.2,85.1,110.2,84.4,110.2
	L84.4,110.2z"/>
<path d="M65.4,129.4c-1.2-0.8-1.3-1.6-1-3.1c0.2-0.8,0.3-1.7,0.3-2.6c0.2-2.3,0.5-4.7,0.7-7c0.2-0.9,0-1.8-0.4-2.6
	c-0.7-1.5-1.4-3-2-4.5c-0.5-1.1-1.1-2.2-1.6-3.3c-0.2-0.3-0.2-1-0.1-1.1s1-0.4,1.2-0.2c0.7,0.6,1.3,1.3,1.8,2.1
	c0.8,1.7,1.5,3.6,2.3,5.3c0.3,0.3,0.7,0.4,1.1,0.3c0.7-0.4,1.3-1,1.9-1.6c1.6-1.6,3.2-3.2,4.9-4.7c0.6-0.3,1.2-0.3,1.8,0
	c0.7,0.4,0.3,1-0.1,1.5c-1,0.9-2,1.8-3,2.8c-0.4,0.4-0.7,0.9-1,1.3c-0.7,0.8-1.5,1.7-2.3,2.4c-0.2,0.3-0.5,0.5-0.8,0.6
	c-1.1,0.2-1.4,1.1-1.5,1.9c-0.3,2.8-0.5,5.7-0.7,8.5c0,0.9-0.2,1.8-0.4,2.7C66.4,128.7,65.8,129,65.4,129.4z"/>
<path d="M65.6,95.5c-0.6,1.8-1.3,2.1-3.1,1.7c-1.5-0.3-3-0.1-4.5-0.3c-1.3,0-2.6-0.6-3.4-1.7c-0.2-0.3-0.3-0.7-0.3-1.1
	c0.3-2.7,0.8-5.3,1.1-8s0.7-5.2,1-7.7c0.1-1,0.9-1,1.5-0.8s1.1,0.6,0.6,1.4c-0.2,0.3-0.3,0.7-0.3,1.1c-0.4,3.7-0.8,7.3-1.2,11
	c-0.1,0.9-0.2,1.8-0.2,2.7c0,0.2,0.2,0.7,0.4,0.7c1,0.2,2,0.3,3,0.3C62.1,94.8,63.9,95,65.6,95.5z"/>
<path d="M142.8,108.1c2.1,0.3,2.1,0.3,2.1,2.1c0,2.6-0.1,5.1-0.2,7.7c-0.1,1.8-0.3,3.6-0.4,5.3c0,0.5,0.3,1,0.2,1.4
	c-0.1,0.7-0.4,1.3-0.8,1.9c-0.3,0.3-0.8,0.4-1.1,0.2c-0.5-0.4-0.8-0.9-0.9-1.5c0.1-2.3,0.4-4.5,0.5-6.8c0.2-2.6,0.3-5.2,0.4-7.8
	C142.6,109.9,142.7,109,142.8,108.1z"/>
<path d="M97.6,118.3c0,1.5-0.1,4,0,6.5c0.1,0.7,0,1.5-0.3,2.2c-0.3,0.6-0.8,0.7-1.2,0.4s-1-0.8-1-1.2c0-2.1,0.3-4.2,0.3-6.3
	c-0.1-2.5-0.4-4.9-0.6-7.4c-0.1-1-0.2-2.1-0.1-3.1c0-0.3,0.8-0.9,0.9-0.8c0.5,0.2,1.3,0.7,1.3,1.1C97.3,112.1,97.4,114.7,97.6,118.3
	z"/>
<path d="M197.3,82.3c0.1,2.8-0.3,5.5-1.2,8.2c-0.8,2.2-2.6,3-4.9,2.8c-3.3-0.3-6.6-0.6-9.9-0.8c-3.5-0.2-7-0.2-10.5-0.5
	c-2.7-0.2-5.3-0.6-7.9-1.2c-2.4-0.8-4.7-1.8-7-2.9c-1.5-0.7-1.4-2.1-1.4-3.5c0.1-1.3,0.3-2.5,0.7-3.8c0.3-1,0.9-1.9,1.7-2.5
	c2.6-1.6,5.4-3,8.1-4.4c2.1-1.2,4.1-2.4,6.2-3.6c2.4-1.4,4.8-2.7,7.3-4c0.7-0.4,1.3-0.8,1.9-1.3c0.2-0.2,0.1-0.7,0.1-1.1
	c-0.1-0.9-0.2-1.8-0.1-2.6c0.2-1.1,0.9-1.4,1.9-0.8c0.5,0.3,0.6,0.2,0.8-0.3c0.6-1.5,1.4-3,2.1-4.5c0.2-0.7,0.9-1,1.6-0.8
	c0,0,0,0,0.1,0c0.8,0.3,0.8,1,0.6,1.7c-0.2,1.2-0.4,2.5-0.6,3.7c-0.1,0.8,0.1,0.7,0.7,0.5c0.8-0.3,1.6-0.6,2.4-0.8s1.8-0.5,2.3,0.6
	c0.9,1.9,1.8,3.8,2.5,5.8c1.2,2.8,1.9,5.9,2,8.9C196.6,77.6,197.3,79.9,197.3,82.3z M196.2,82.8c0.1-2.2,0-2.1-2.2-1.8
	c-2.6,0.3-5.2,0.4-7.8,0.5c-4.3,0.2-8.6,0.4-12.9,0.4s-8.4-0.2-12.5-0.4c-0.8,0-1.7-0.1-2.5-0.2c-2.3-0.3-2.3-0.3-2.4,2
	c0.1,0.4,0.3,0.7,0.6,0.8c1.1,0.2,2.3,0.2,3.4,0.5c4.2,1.1,8.6,1.6,13,1.4c1.7-0.1,3.5,0.1,5.2,0.1s3.4-0.2,5-0.3c0,0.1,0,0.1,0,0.2
	c2.4-0.2,4.8-0.3,7.1-0.7c1.8-0.3,3.5-0.8,5.2-1.4C195.8,83.7,196.1,83.3,196.2,82.8L196.2,82.8z M195.5,88.5
	c0.1-0.7-0.2-0.6-0.6-0.4c-2.7,1-5.5,1.5-8.3,1.4c-3.1,0-6.2,0.2-9.3,0.5c-2,0.2-4.1,0.3-6.1,0.2H170c0.4,0.2,0.8,0.3,1.2,0.4
	c2.2,0.2,4.4,0.3,6.6,0.5c1,0.1,2,0.2,3.1,0.2c1.6,0,3.3-0.1,4.9,0c2,0.1,4,0.3,6.1,0.4C194.5,91.8,195.1,91.3,195.5,88.5
	L195.5,88.5z M195,78.5c0-1,0.2-2.1,0.4-3.3c-0.1-1.2-0.3-2.4-0.6-3.6c-0.6-2.3-1.3-4.6-2-6.8c-0.4-1.2-1-2.4-1.7-3.5
	c-0.2-0.3-0.8-0.5-1.2-0.6c-0.1,0-0.4,0.3-0.5,0.5c-0.4,0.9-0.7,1.9-1,2.8c-0.1,0.3,0,0.9,0.1,0.9c0.8,0.1,1.3,0.9,1.2,1.6
	c0,0.2-0.1,0.5-0.3,0.6c-0.9,1.6-2.1,3.1-3.1,4.7c-0.4,0.5-0.7,1.1-1,1.7c-0.9,2-1.4,4.1-3.9,5c-0.6,0.2-1,1.2-1.5,1.8l1.7,0.2
	c0.3,0,0.6,0,0.9,0c0.1,0,0.2-0.3,0.2-0.4c0.1-0.3,0.1-0.6,0.2-0.9c0.3,0.1,1,0.2,1,0.3c0.1,1,0.8,0.8,1.4,0.8s1.3-0.2,2-0.2
	c0.5,0,1,0.2,1-0.7c0-0.2,0.5-0.4,0.8-0.4s0.5,0.4,0.5,0.6c-0.3,0.8,0.2,0.5,0.6,0.5c0.9,0,1.9,0,2.8-0.1
	C193.9,79.8,195,79.9,195,78.5L195,78.5z M193.2,87.5c0.6,0.2,1.6-0.8,1.5-1.4c0-0.3-0.4-0.8-0.5-0.8c-0.7,0.2-1.6,0-1.5,1.5
	C192.8,87,192.9,87.5,193.2,87.5L193.2,87.5z M191.6,87.3c0-0.4-0.4-0.9-0.8-1.6c-0.6,0.9-1.9,0.1-1.9,1.3c0,0.4,0.6,1.3,0.8,1.2
	C190.4,88.2,191.6,88.6,191.6,87.3L191.6,87.3z M187.9,62.9c0.1-0.2,0.1-0.5,0.1-0.8c-0.3,0-0.5,0-0.8,0.1c-0.3,0.2-0.6,0.5-0.9,0.7
	s-0.5,0.2-0.6,0.1c-0.2-0.2-0.3-0.4-0.3-0.7c0.2-1.9,0.4-3.8,0.7-5.7c0-0.3,0-0.5,0-0.8c-0.2,0.1-0.4,0.3-0.6,0.5
	c-0.1,0.2-0.2,0.4-0.3,0.6c-0.5,1.4-0.9,2.8-1.5,4.1c-0.2,0.6-0.4,1.5-1.5,1c-0.3-0.2-0.6-0.3-0.8-0.5c0,0.4,0,0.8,0,1.2
	c0.3,1.1,0.7,2.2,1,3.3c0.1,0.3,0,0.6-0.2,0.9c-0.2,0.2-0.6,0.1-0.9,0s-0.4-0.3-0.6-0.4c-0.2-0.1-0.3-0.1-0.5-0.2
	c0,0.2,0,0.4,0.1,0.6c0.8,1.5,1.5,3,2.5,4.4c0.4,0.7,1.3,0.9,1.9,0.5c0.1-0.1,0.2-0.1,0.3-0.2c0.9-0.9,1.8-1.9,2.6-2.9
	c0.4-0.6,0.8-1.2,1.1-1.8c-0.4-0.3-0.6-0.7-0.9-0.7c-0.8-0.1-1.1-0.5-0.8-1.2S187.6,63.6,187.9,62.9z M186.2,88.5
	c0.8-0.4,1.7,0.2,1.6-1c-0.1-0.4-0.3-0.7-0.5-0.9c-0.6,0.3-1.9-0.3-1.8,1C185.4,88,185.9,88.2,186.2,88.5z M183.4,88.5
	c0.9,0,1-0.6,0.9-1.2c-0.1-0.3-0.6-0.5-1-0.8c-0.6,0.3-1.4,0.6-1.4,0.9C181.9,88.4,182.6,88.6,183.4,88.5L183.4,88.5z M183.8,74.2
	c0.1-0.3,0-1-0.2-1.1c-1.4-0.6-2.3-2.2-4.1-2c-0.5,0-0.9,0.1-1.4,0.2c-0.3,0.1-0.5,0.2-0.8,0.4c0.2,0.1,0.4,0.3,0.7,0.4
	c1.2,0.5,1.3,1,0.4,1.8c-0.4,0.3-0.9,0.6-1.4,0.7c-0.6,0.2-1.2,0.4-1.8,0.6c-0.1,0.1-0.2,0.4-0.3,0.6c0.1,0.1,0.3,0.1,0.5,0.2
	c0.8,0,0.9,0.3,0.4,0.9c-0.7,0.9-1.5,1.8-2.3,2.7c-0.1,0.2-0.2,0.3-0.2,0.5c0.2,0,0.4,0.1,0.5,0c0.7-0.3,1.4-0.6,2.1-0.9
	c0.8-0.4,1.5-1.1,2.2-1.5c0.3-0.1,0.6-0.1,0.9,0c0.1,0.1,0.1,0.5,0.1,0.8s0.1,0.6,0.1,0.8c0.2-0.2,0.5-0.4,0.7-0.6
	c0.6-0.7,1-1.8,1.6-1.9C183.2,76.7,183.4,75.4,183.8,74.2L183.8,74.2z M180.7,88c0-1.4-1.3-0.8-1.9-1.2c-0.2,0.5-0.4,1.1-0.5,1.7
	c0,0.2,0.4,0.4,0.7,0.6C179.8,88.8,180.7,89.2,180.7,88z M179.7,70.2l0.7,0.1c-0.1-0.2-0.1-0.5-0.2-0.7c-0.4-0.6-0.7-1.3-0.9-2
	c-0.2-0.8-0.6-0.7-1.1-0.4c-2.6,1.5-5.3,3-7.9,4.5c-2.6,1.5-5.3,3-7.9,4.5c-1.7,1-3.3,1.9-4.9,3c-0.2,0.1-0.2,0.4-0.4,0.7
	c0.2,0.1,0.4,0.1,0.6,0.2c1.7,0.1,3.4,0.1,5.2,0.1c2.4,0.1,4.8,0.3,7.2,0.4c0.5,0,0.9-0.1,1.3-0.3c0.9-0.8,1.7-1.6,2.6-2.4
	c0.5-0.5,0.4-0.8-0.1-1.1c-0.8-0.6-0.7-1.2,0.1-1.7s1.9-0.9,2.8-1.4c0.2-0.1,0.4-0.2,0.6-0.3c-0.2-0.1-0.3-0.2-0.5-0.3
	c-0.2-0.1-0.5-0.2-0.8-0.3c-0.7-0.4-0.8-1-0.1-1.3c1.3-0.6,2.5-1.1,3.9-1.5C179.6,70,179.6,70.1,179.7,70.2L179.7,70.2z M177.8,80.2
	c0-0.2-0.3-0.4-0.4-0.6l-0.8,0.6l0.6,0.6C177.4,80.6,177.7,80.4,177.8,80.2L177.8,80.2z M176.8,89c0.2-0.1,0.6-0.4,0.6-0.5
	c-0.2-0.5-0.3-1.3-0.7-1.4c-0.8-0.2-1.6-0.3-2.5-0.2c-0.2,0-0.4,0.3-0.4,0.5c-0.1,1.5,0.2,1.8,1.6,1.8
	C175.8,89.2,176.3,89.1,176.8,89L176.8,89z M172.6,88c0-1.5-1.1-1-1.8-1c-1.6,0.1-1.6,0.1-0.8,1.4c0.1,0.1,0,0.3,0.1,0.3
	c0.7,0.2,1.4,0.4,2.1,0.5C172.5,88.8,172.6,88.4,172.6,88z M168.2,88.8c0.5,0,0.7,0.1,0.5-0.6c-0.3-1-1.3-1.6-2.3-1.5
	c-0.7,0-1.2,0-1.3,1s0.6,0.8,1,0.8C166.7,88.7,167.4,88.8,168.2,88.8L168.2,88.8z M165.8,89.9l-0.4-0.3l-0.6,0.3
	c0.1,0.1,0.2,0.1,0.4,0.2C165.3,90,165.6,89.9,165.8,89.9L165.8,89.9z M163.8,87.7c0.1-0.4-0.2-1.2-0.5-1.3
	c-0.8-0.3-1.6-0.5-2.5-0.6c-0.2,0-0.5,0-0.6,0.1c-0.1,0.9,0.2,1.7,0.9,2.2c0.5,0.1,1,0.2,1.5,0.3l0.2,0.2
	C163.2,88.2,163.8,88,163.8,87.7L163.8,87.7z M158.9,87c0.5-1.2-0.3-2-2.2-2c-0.3,0-0.5,0.1-0.8,0.2c-0.1,0.1,0,0.7,0.1,0.8
	c0.8,0.5,1.6,1,2.4,1.4C158.6,87.5,158.9,87.2,158.9,87z"/>
<path d="M194.3,76.2v0.3c-0.3,0.1-0.5,0.3-0.8,0.2c-0.3-0.1-0.6-0.3-0.8-0.5c0.3-0.2,0.5-0.6,0.8-0.6S194,76,194.3,76.2z"/>
<path d="M193.8,69.8l-1.1,1.2l-0.9-1c0.3-0.2,0.5-0.7,0.8-0.7C193,69.4,193.4,69.6,193.8,69.8z"/>
<path d="M190.8,72.3c0.4,0.4,0.7,0.7,0.7,0.8c-0.2,0.4-0.4,0.7-0.7,1c-0.2-0.2-0.7-0.5-0.7-0.6C190.2,73,190.5,72.6,190.8,72.3z"/>
<path d="M190.9,63.7c0.2,0,0.5,0.4,0.7,0.6l-1,0.7l-0.7-0.6C190.2,64,190.5,63.8,190.9,63.7z"/>
<path d="M190.1,70c0,0.1,0,0.2,0,0.3c-0.4,0.2-0.7,0.3-1.1,0.4c-0.1,0-0.2-0.3-0.4-0.4c0.2-0.2,0.5-0.4,0.7-0.5S189.8,70,190.1,70z"
	/>
<path d="M188.2,111.3c1.3,2,1.1,3.5-1.4,5.8c-0.8,0.8-1.7,1.5-2.7,2.1c-1.7,1.2-4.1,1.2-5.8,0c-1.4-0.9-2.8-1.9-3.9-3.2
	c-0.4-0.7-0.8-1.4-0.9-2.2h0.3c-0.3-2.5,0.8-5,2.7-6.5c0.6-0.5,1.3-0.8,2.1-0.8c1.8,0,3.7,0.1,5.5,0.5c1.8,0.3,2.9,1.8,3.7,3.4
	C187.9,110.7,188,111,188.2,111.3z M185.6,117.2c1.5-0.9,2.3-2.6,2-4.3c-0.1-0.9-0.8-1.1-1-1.8c-0.9-2-2.8-3.4-5-3.5
	c-3-0.5-5.9,1.5-6.5,4.5c-0.1,0.4-0.1,0.7-0.1,1.1c0.2,0.8,0.4,1.5,0.7,2.2c0.9,1.5,2.4,2.6,4.1,3c0.8,0.4,1.6,0.5,2.5,0.5
	C183.5,118.6,184.6,118,185.6,117.2L185.6,117.2z"/>
<path class="st0" d="M188,62.1c0,0.3-0.1,0.5-0.1,0.8c-0.3,0.7-0.7,1.4-0.9,2.1s0,1.1,0.8,1.2c0.3,0,0.6,0.4,0.9,0.7
	c-0.3,0.6-0.6,1.3-1.1,1.8c-0.8,1-1.7,2-2.6,2.9c-0.6,0.5-1.5,0.5-2,0c-0.1-0.1-0.1-0.2-0.2-0.3c-0.9-1.4-1.7-2.9-2.5-4.4
	c-0.1-0.2-0.1-0.4-0.1-0.6c0.2,0,0.4,0.1,0.5,0.2c0.2,0.1,0.4,0.3,0.6,0.4s0.7,0.2,0.9,0c0.2-0.2,0.3-0.6,0.2-0.9
	c-0.3-1.1-0.7-2.2-1-3.3c0-0.4,0-0.8,0-1.2c0.3,0.2,0.6,0.3,0.8,0.5c1,0.5,1.2-0.3,1.5-1c0.5-1.3,1-2.7,1.5-4.1
	c0.1-0.2,0.2-0.4,0.3-0.6c0.2-0.2,0.4-0.4,0.6-0.5c0,0.3,0,0.5,0,0.8c-0.2,1.9-0.5,3.8-0.7,5.7c0,0.3,0.1,0.5,0.3,0.7
	c0.1,0.1,0.4,0,0.6-0.1s0.6-0.5,0.9-0.7C187.5,62.1,187.8,62.1,188,62.1z"/>
<path class="st1" d="M187.5,112.9c0.3,1.7-0.5,3.5-2,4.3c-1,0.8-2.1,1.3-3.3,1.7c-0.9,0-1.7-0.1-2.5-0.5c-1.7-0.4-3.2-1.5-4.1-3
	c-0.3-0.7-0.6-1.4-0.7-2.2c-0.1-3.1,2.4-5.6,5.5-5.7c0.4,0,0.7,0,1.1,0.1c2.2,0.1,4.1,1.4,5,3.5C186.8,111.8,187.4,112,187.5,112.9z
	"/>
<path d="M187.1,76.1c0.2,0,0.5,0.1,1,0.3c-0.6,0.4-0.8,0.6-1.1,0.7s-0.4-0.4-0.5-0.6C186.6,76.4,186.8,76.2,187.1,76.1z"/>
<path class="st0" d="M183.6,73.2c0.2,0.1,0.3,0.8,0.2,1.1c-0.4,1.2-0.6,2.4-2.3,2.7c-0.6,0.1-1.1,1.3-1.6,1.9
	c-0.2,0.2-0.4,0.4-0.7,0.6c0-0.3,0-0.6-0.1-0.8s0-0.7-0.1-0.8c-0.3-0.1-0.6-0.1-0.9,0c-0.8,0.5-1.5,1.1-2.2,1.5
	c-0.7,0.4-1.4,0.7-2.1,0.9c-0.1,0.1-0.4,0-0.5,0c0.1-0.2,0.1-0.3,0.2-0.5c0.8-0.9,1.5-1.8,2.3-2.7c0.5-0.6,0.4-0.9-0.4-0.9
	c-0.2,0-0.3-0.1-0.5-0.2c0.1-0.2,0.1-0.5,0.3-0.6c0.6-0.2,1.2-0.4,1.8-0.6c0.5-0.2,1-0.4,1.4-0.7c1-0.8,0.8-1.3-0.4-1.8
	c-0.2-0.1-0.5-0.3-0.7-0.4c0.2-0.2,0.5-0.3,0.8-0.4c0.5-0.1,0.9-0.1,1.4-0.2C181.3,70.9,182.2,72.6,183.6,73.2z"/>
<path d="M178.3,132c2.2,1.5,3.4,4.2,3,6.8c-0.9,4.8-5.2,7-8.7,7.1c-2.2,0.1-4.8-0.3-6.6-2.1c-0.8-0.9-1.4-1.9-1.9-2.9
	c-0.4-0.8-0.6-1.7-0.9-2.6c0.4-2.7,1-5,3.3-6.6c0.8-0.7,1.7-1.2,2.7-1.6c0.9-0.1,1.8-0.1,2.7,0.1C174.1,130.5,176.3,130.6,178.3,132
	z M178.5,142.2c2-1.4,2.2-5.9,0.8-7.8c-1.9-2.4-4.4-3.1-7.2-3.2c-1.8-0.1-3.6,0.1-4.9,1.3c-2.1,1.7-2.9,4.5-1.9,7
	c0.6,1.5,1.3,3.1,2.8,3.8c1.7,0.7,3.4,1.2,5.1,1.6C175.4,144.9,176.9,143.4,178.5,142.2L178.5,142.2z"/>
<path class="st1" d="M179.2,134.5c1.5,1.9,1.2,6.4-0.8,7.8c-1.6,1.1-3.1,2.6-5.4,2.7c-1.8-0.4-3.5-0.9-5.1-1.6
	c-1.4-0.7-2.2-2.3-2.8-3.8c-1-2.5-0.2-5.3,1.9-7c1.3-1.2,3.2-1.3,4.9-1.3C174.8,131.4,177.4,132.1,179.2,134.5z"/>
<path d="M173.2,72c0,0.1-0.3,0.3-0.5,0.6c-0.3-0.4-0.6-0.6-0.6-0.8s0.3-0.4,0.5-0.7C172.8,71.4,173,71.7,173.2,72z"/>
<path d="M170,73.7c0.3,0.3,0.7,0.7,0.6,0.7c-0.2,0.3-0.4,0.6-0.7,0.8c-0.1,0-0.6-0.4-0.6-0.5C169.5,74.4,169.7,74,170,73.7z"/>
<path d="M168.6,77.7c0.1,0,0.5,0.4,0.5,0.4c-0.2,0.3-0.4,0.6-0.6,0.8c-0.3-0.3-0.6-0.6-0.6-0.7C168.1,78.1,168.4,77.9,168.6,77.7z"
	/>
<path d="M167.4,37.8c0.1,2.1,0,4.2-0.1,6.2c0,0.6-0.3,0.8-0.7,1.2c-1.9,2.1-4.6,2.8-6.9,4.3c-0.7,0.5-1.4,1-2.2,1.4
	c-2,1.3-4.1,2.6-6.1,3.9c-2.7,1.8-5.4,3.6-8.1,5.3c-1.8,1.2-3.6,2.2-5.5,3.3c-1,0.6-2,1.3-2.9,2c-3,2.5-6.4,4.4-10.1,5.8
	c-0.8,0.4-1.7,0.1-2.1-0.6c-0.1-0.1-0.1-0.3-0.1-0.4c-0.3-1.9-0.6-3.8-0.8-5.7c-0.1-2.5,1.4-4.5,2.5-6.5c2.5-4.6,5-9.2,7.5-13.8
	c1.6-2.8,3.1-5.7,4.8-8.5c2.7-4.7,5.4-9.3,8.3-13.9c1.9-3,4.1-4,7.6-2.4c2.8,1.3,5.7,2.6,7.7,5c2.2,2.5,4.2,5.1,5.9,7.9
	C167,34.1,167.4,35.9,167.4,37.8z M162.3,46.8c2.6-1.2,4.6-2.9,4.3-6.2c-0.1-0.9-0.2-1.8-0.3-2.7c-0.1-0.7-0.2-0.6-0.7-0.3
	c-1.2,0.9-2.4,1.8-3.7,2.6c-0.7,0.3-1.1,1.1-1,1.8c0.1,1.3,0.2,2.7,0.2,4C161.1,47,161.5,47.2,162.3,46.8L162.3,46.8z M165,36.6
	c0.8-0.5,1.2-1.5,0.7-2.4c0,0,0,0,0,0c-0.4-1.2-1.1-2.3-1.8-3.4c-2.2-2.5-3.8-5.6-6.8-7.3c-2-1.1-4-2.2-6.1-3.2
	c-0.8-0.2-1.6-0.3-2.3-0.1c-0.4,0-1,0.1-1.1,0.3c-1.1,1.5-2.2,3.1-3.3,4.6c-0.1,0.3-0.2,0.7-0.3,1c0.3-0.1,0.7-0.3,1-0.4
	c1.6-1.2,3.2-2.3,4.6-2.2c2.5,0,4.7,2.1,4.5,3.5c-0.2,1.1-0.4,2.2-0.7,3.4c0,0.2,0,0.4,0,0.6c0.2,0,0.4-0.1,0.6-0.1
	c1.6-0.7,3.4-1,5.1-0.8c1.8,0.1,3.5,1,4.6,2.3c0.9,1,1.2,2.5,0.7,3.8c-0.1,0.2,0.1,0.4,0.2,0.6C164.6,36.8,164.8,36.7,165,36.6z
	 M162.9,36c0.1-0.3,0.2-0.7,0.2-1c-0.1-0.4-0.2-0.8-0.4-1.2c-0.1-0.2-0.3-1-0.7-0.1c-0.1,0.2-0.6,0.2-0.9,0.3c0-0.2-0.1-0.6,0-0.7
	c0.9-0.7,0.1-1-0.3-1.2c-1-0.3-2-0.5-3-0.6c-0.1,0-0.3,0.3-0.4,0.5c-0.1,0.2-0.1,0.6-0.2,1c0,0.1-0.3,0.1-0.5,0.1c0-0.3-0.1-0.7,0-1
	c0.4-0.8-0.1-0.6-0.5-0.5c-0.3,0.1-0.6,0.4-0.7,0.7c-0.3,0.6-0.6,0.8-1.1,0.2c-0.2-0.2-0.5-0.2-0.8-0.2c-1.3,0.8-2.2,2.1-2.5,3.6
	c-0.1,0.2-0.2,0.5-0.4,0.7c0,0-0.4-0.1-0.4-0.2c0-0.3,0-0.5,0-0.8c0-0.3,0.1-0.6,0.1-0.8c-0.1-0.4-0.1-0.8,0-1.1
	c0.4-1.1,1-2.1,1.4-3.2c0.1-0.4-0.1-0.9-0.1-1.3c0-0.3,0-0.8,0.2-0.8c0.8-0.3,0.8-0.9,0.5-1.5c-0.5-1.3-1.8-2.1-3.1-2
	c-1.6,0.1-3.1,0.8-4.1,2l0,0c-0.9,0.8-2.8,0.9-1.9,2.9c0,0.1,0,0.2,0,0.4l-0.1,0.1c-0.2-0.1-0.5-0.3-0.7-0.4c-0.2-0.1-0.5-0.1-0.6,0
	c-0.7,0.9-1.4,1.7-2,2.6c-0.1,0.2-0.2,0.4-0.3,0.6c0.2-0.1,0.5-0.2,0.7-0.3c0.5-0.4,1.1-0.7,1.7-0.9c2.4-0.7,5,0.4,6.1,2.7
	c0.1,0.1-0.1,0.5-0.3,0.7c-0.4,0.5-0.9,0.9-0.2,1.6c0.1,0.1-0.2,0.6-0.4,0.8s-0.5,0.2-0.7,0.4c-0.1,0.2-0.2,0.5-0.3,0.7
	c0.2,0,0.5,0,0.7,0c1.3-0.5,2.7-0.9,4-1.4c0.3-0.1,0.5-0.5,0.8-0.7s0.4-0.3,0.6-0.5c0.1,0.2,0.4,0.4,0.4,0.6
	c-0.1,0.9,0.3,0.8,0.9,0.6c0.3-0.1,0.8,0.2,0.9,0.3c0.2,0.7,0.4,0.9,1.1,0.5c0.2-0.1,0.5,0,0.6,0.1c0.1,0.2,0.1,0.4,0,0.5
	c-1.1,0.7-0.4,1.7-0.6,2.6c-0.1,0.2,0.2,0.5,0.3,0.7c0-0.2,0.1-0.4,0.1-0.6c0-0.4,0.1-0.7,0.3-1.1c0.2-0.3,0.4-0.5,0.7-0.8
	c0.1,0.3,0.2,0.6,0.3,0.9c0,0.3,0.1,0.5,0.1,0.8c0.2-0.1,0.5-0.1,0.8-0.2c0.3-0.2,0.7-0.3,1-0.5c0.1,0,0.1-0.2,0-0.3
	s-0.1-0.5-0.1-0.8c0.3,0,0.6,0,0.9,0.1c0.2,0,0.5,0.1,0.7,0.2c0-0.2,0.1-0.4,0.1-0.7c0-0.8,0.2-1.1,1-0.7c0.2,0.1,0.6,0.2,0.7,0.1
	c0.5-0.6,0.4-1.4-0.2-1.9c-0.1-0.1-0.3-0.2-0.4-0.2c-0.2-0.1-0.4-0.2-0.6-0.5c0-0.1,0.2-0.5,0.3-0.5c0.3,0,0.6,0.1,0.8,0.2
	C162.5,35.7,162.7,35.8,162.9,36L162.9,36z M160,47.1c0-1.4,0-2.8,0-4.1h-0.2c0-0.3,0-0.6-0.1-0.9c-0.1-0.2-0.5-0.4-0.6-0.3
	c-1.1,0.6-2.2,1.3-3.3,1.8c-0.7,0.3-1.1,1-1,1.7c0,1.6,0,3.2,0,4.8c0,0.3,0.1,0.7,0.2,1c0.3-0.1,0.7-0.2,1-0.4
	c0.9-0.7,1.9-1.4,2.9-2C159.6,48.5,160.1,47.8,160,47.1z M153.6,42.1c0.3-0.7,0.6-1.6,0.4-2.2c-0.4-1-1.4-1.6-2.5-1.5
	c-2.3,0.2-4.5,1.2-6.3,2.7c-0.3,0.3-0.7,0.5-1,0.8c-0.2,0.1-0.3,0.1-0.5,0.1c0-0.2-0.1-0.5-0.1-0.6c0.7-1.4,1.3-2.8,2.1-4.1
	c0.5-0.9,0.8-3,0.3-3.5c-0.8-1-2.2-1.4-3.4-1c-3,0.9-4.5,3.5-6.3,5.7c-0.2,0.3-0.3,0.6-0.4,1c0.3,0,0.7,0,1,0s0.4-0.2,0.6-0.2
	c0.7-0.2,1.5,0.3,1.6,1c0,0,0,0,0,0.1c0.5,1.8,0.2,3.8-0.9,5.4c-0.1,0.2-0.1,0.3-0.2,0.5c0.2,0,0.4,0,0.6-0.1
	c1.5-0.9,3.1-1.5,4.8-1.7c1.9-0.3,2.6,0.3,2.6,2.5c0,0,0,0.4,0,0.7c0.4-0.1,0.7-0.2,1.1-0.4c0.6-0.5,1.3-0.9,2-1.3
	C151.1,45.2,152.9,44.2,153.6,42.1L153.6,42.1z M153.8,51.4c0.1-1.7,0-3.4,0-5.2c0-0.4-0.1-0.8-0.1-1.2l-1,0.5
	c-0.4,0.2-0.8,0.4-1.2,0.6c-2.1,0.8-2.7,2.5-2.6,4.6c0.1,1.1,0.3,2.2,0.4,3.3c0.1,0.5,0.3,0.8,0.9,0.4c0.9-0.6,1.9-1,2.8-1.7
	C153.4,52.4,153.7,51.9,153.8,51.4L153.8,51.4z M148.2,54.5c0-1.9-0.1-3.7-0.1-5.6c0-0.2,0-0.4,0-0.6c-0.2,0.1-0.3,0.2-0.5,0.2
	c-0.2,0.1-0.5,0.3-0.7,0.4c-2.1,0.8-2.4,2.8-2.9,4.5c-0.1,1-0.1,2,0,3.1h-0.1c0,0.3,0.1,0.7,0.1,1c0.1,0.7,0.5,0.6,0.9,0.3
	c1-0.6,1.9-1.3,2.9-2.1C148.1,55.4,148.3,54.9,148.2,54.5L148.2,54.5z M144.4,46.9l0.7-0.4c-0.4-0.3-0.8-0.6-1.2-0.8
	c0,0-0.2,0.2-0.4,0.3L144.4,46.9z M143.8,49c0.8-0.6,0.6-1.4-0.2-1.9c-0.3-0.2-0.5-0.5-0.7-0.8c-0.1-0.1-0.2-0.3-0.2-0.3
	c-0.5,0-0.9,0.1-1.4,0.2c0.1,0.2,0.3,0.3,0.3,0.5c0.1,0.5,0.1,1,0,1.5c0,0.2-0.4,0.3-0.6,0.4c-0.1-0.4-0.1-0.8-0.2-1.2
	c0,0,0-0.1,0-0.1c0-0.7-0.1-0.8-0.8-0.4c-1.1,0.8-2.2,1.6-3.3,2.3c-0.4,0.2-0.8,0.2-1.2,0.2c0.1-0.3,0.2-0.6,0.3-0.9
	c0.8-1.4,1.6-2.7,2.2-4.1c0.4-0.7,0.8-1.6-0.2-2.3c-0.1-0.1,0-0.5,0-0.8c0-0.2,0.1-0.4,0.1-0.6c-0.2,0-0.4-0.1-0.5,0
	s-0.6,0.4-0.5,0.6c0.1,0.8-0.4,0.9-0.8,0.6c-0.7-0.5-0.9,0-1.2,0.4c-1.4,1.7-2.5,3.6-3.4,5.6c-0.2,0.5-0.4,1.1-0.7,1.6
	c-0.2,0.2-0.4,0.3-0.5,0.5c-1,1.9-2,3.9-3.1,5.8c-0.3,0.5-0.8,0.8,0.2,1.1c0.1,0,0.3,0.4,0.2,0.6c-0.1,0.2-0.3,0.4-0.5,0.5
	c-0.2,0-0.4-0.1-0.5-0.3c-0.2-0.8-0.4-0.2-0.5,0s-0.3,0.7-0.6,1s-0.7,0.8,0.3,0.8c0.1,0,0.2,0.5,0.3,0.7c-0.3,0-0.7,0.2-0.8,0.1
	c-0.4-0.9-0.6-0.2-0.8,0.1c-0.3,0.6-0.6,1.2-0.9,1.8c-0.1,0.4-0.1,0.8,0.1,1.2c0.3,0.2,0.8,0.2,1.1,0c2.3-1.6,4.5-3.2,6.7-4.9
	c0.3-0.2,0.1-1,0.3-1.3s1,0.2,1.3,0c1.6-1,3.1-2,4.5-3.1C139.7,52.1,141.8,50.6,143.8,49z M142.9,53.8c0-0.7,0.1-1.4,0.1-2.1l-1.6,1
	c-0.1,0-0.2,0-0.2,0.1c-0.9,0.8-2.4,1.1-2.7,2.6c-0.2,0.9-0.2,1.9-0.4,2.8c0.1,1,0.2,2,0.4,3c0.2,0.2,0.5,0.4,0.8,0.3
	c1.1-0.7,2.3-1.5,3.3-2.3c0.2-0.2,0.3-0.6,0.3-1C142.9,56.8,142.9,55.3,142.9,53.8L142.9,53.8z M136.4,63.5c0.8-0.3,1.2-1.1,1.1-1.9
	c-0.1-1-0.2-2.1-0.2-3.2c0-0.7,0-1.4,0-2.1s-0.2-0.6-0.6-0.3c-1,0.7-1.9,1.4-2.9,2c-1.7,1.1-2,2.8-1.7,4.6c0.1,0.8,0.3,1.5,0.4,2.3
	h-0.1l0.1,0.8c0.2-0.1,0.5-0.2,0.7-0.3C134.2,64.8,135.2,64,136.4,63.5L136.4,63.5z M130.8,67.1c0.5-0.3,1.6-0.6,0.2-1.2
	c-0.1-0.1,0-0.4,0-0.6c0.1-0.3,0.1-0.6,0.2-0.9c-0.1-1-0.3-1.9-0.4-2.9c0-0.3-0.1-0.5-0.1-0.8c-0.2,0.1-0.5,0.2-0.7,0.3
	c-0.7,0.4-1.4,0.9-2,1.4c-1,0.8-2.7,1.2-2.1,3.2c0.2,1,0.3,2,0.5,3c0.2,0.3,0.5,0.5,0.9,0.4C128.4,68.4,129.6,67.8,130.8,67.1
	L130.8,67.1z M124.9,69.9c0.3-0.1,0.5-0.4,0.5-0.7c-0.2-1.4-0.4-2.8-0.6-4.2c0-0.2-0.2-0.4-0.4-0.6c-0.5,0.3-1.1,0.6-1.1,0.8
	c0.1,1.5,0.4,3,0.6,4.5C124,69.8,124.6,69.9,124.9,69.9L124.9,69.9z"/>
<path d="M162.8,151.2c2.4,0.1,3.8,1.3,3.8,3.1c-0.2,1.8-1.6,3.3-3.4,3.4c-2.1,0-4.1-1.6-4-3.1c0-1.9,1.6-3.4,3.5-3.4
	C162.7,151.2,162.7,151.2,162.8,151.2z M165.1,155c0-0.8-0.3-1.5-0.9-2c-0.9-0.3-1.8-0.4-2.7-0.2c-0.7,0.2-1.2,0.9-1.1,1.6
	c0,0.1,0.1,0.3,0.1,0.4c0.5,1,1.5,1.6,2.6,1.8C164.1,156.6,165,155.9,165.1,155L165.1,155z"/>
<path class="st2" d="M165.7,34.2c0.5,0.8,0.2,1.9-0.7,2.4c0,0,0,0,0,0c-0.2,0.1-0.4,0.2-0.6,0.3c-0.1-0.2-0.2-0.5-0.2-0.6
	c0.5-1.3,0.2-2.8-0.7-3.8c-1.2-1.3-2.9-2.2-4.6-2.3c-1.8-0.2-3.5,0.1-5.1,0.8c-0.2,0.1-0.4,0.1-0.6,0.1c0-0.2,0-0.4,0-0.6
	c0.2-1.1,0.5-2.2,0.7-3.4c0.2-1.5-2-3.5-4.5-3.5c-1.4,0-3,1-4.6,2.2c-0.3,0.2-0.7,0.3-1,0.4c0-0.3,0.1-0.7,0.3-1
	c1.1-1.6,2.1-3.1,3.3-4.6c0.2-0.2,0.8-0.3,1.1-0.3c0.8-0.1,1.6-0.1,2.3,0.1c2.1,1,4.1,2,6.1,3.2c3,1.7,4.6,4.8,6.8,7.3
	C164.6,31.8,165.2,33,165.7,34.2z"/>
<path class="st1" d="M164.2,153c0.6,0.5,0.9,1.2,0.9,2c-0.1,0.9-1,1.6-1.9,1.6c-1.1-0.2-2-0.8-2.6-1.8c-0.4-0.7-0.1-1.5,0.5-1.9
	c0.1-0.1,0.3-0.1,0.4-0.1C162.4,152.6,163.4,152.7,164.2,153z"/>
<path d="M164.2,77.9c0,0.3-0.1,0.7-0.3,1l-0.9-1c0.2-0.1,0.4-0.3,0.7-0.4C163.9,77.6,164.1,77.7,164.2,77.9z"/>
<path d="M162.7,180.2c0.4,3.2-1,5.6-3.7,7.2c-1.8,1.2-3.6,2.2-5.6,3.1c-2.3,1-4.7,1.8-7.1,2.5c-1.9,0.4-3.9,0.7-5.8,0.9
	c-2.5,0.3-4.2-1-5.4-3c-2-3.4-3.8-7-5.9-10.4c-2.3-3.8-3.7-7.9-5.4-11.9c-0.9-1.8-1.8-3.7-2.5-5.6c-1-3.1-2.5-6.2-2.2-9.6
	c0.1-1.6,0.7-3.1,1.7-4.3c1.2-1.4,2.2-2.9,3.4-4.3c0.3-0.3,0.6-0.6,0.9-0.9c0.6-0.7,1.7-0.7,2.3-0.1c0,0,0,0,0.1,0.1
	c2,1.8,4.1,3.7,6.2,5.4s4.2,3,6.4,4.4c1.6,1.1,3.2,2.2,4.9,3.1c0.7,0.4,0.4,0.8,0.2,1.2c-0.1,0.2-0.7,0.2-0.9,0.1
	c-1-0.6-2-1.3-3-1.9c-2.4-1.6-4.9-3.1-7.1-4.8c-2.4-1.9-4.6-4-7-6c-0.2-0.2-0.4-0.3-0.7-0.4c0,0.3-0.1,0.6-0.1,0.8
	c0,2.4,1.6,4.2,2.4,6.2c1.6,3.6,3.4,7.1,5.1,10.7c1.4,3,2.8,6.1,4.1,9.2c0.9,2.1,1.8,4.2,2.6,6.3c0.4,1.1,1,1.6,2.2,1.3
	c1.5-0.4,3-0.7,4.5-0.9c1.7-0.1,3.4-0.5,5-1.2c2.9-0.9,5.2-3.1,6.3-5.8c0.5-1.3,0-2.5-1.5-3.7c-2.1-1.6-4.2-3.1-6.2-4.7
	c-0.6-0.4-0.8-0.4-0.9,0.4s-0.6,1.6-0.8,2.5c-0.4,0.9-0.1,2,0.7,2.5c1.5,1,2,3.1,0.9,4.7c-0.2,0.3-0.4,0.5-0.7,0.8
	c-1.7,1.7-5.6,2.4-7.6,1.1c-0.8-0.6-1.4-1.5-1.7-2.6c-0.6-2.2,0.2-4,2.1-5.4c1.1-0.8,2.3-0.4,3.4-0.3c0.9,0.2,1.8-0.4,2-1.3
	c0-0.1,0-0.2,0-0.2c0.1-0.8,0.3-1.6,0.6-2.4c0.4-0.9,0-1.4-0.6-1.8c-0.3-0.2-0.6-0.4-0.9-0.6s-0.8-0.6-1.2-1
	c-0.5,0.8-1.6,1.1-1.5,2.5c0.3,1.7-0.8,3.3-2.6,3.6c-0.5,0.1-1,0.1-1.4-0.1c-1.3-0.2-2.7-0.4-3.6-1.8s-0.1-3.9,1.9-4.7
	c1.6-0.6,2.9,0.1,4.1,0.9c0.4,0.4,1,0.3,1.4-0.1c0,0,0.1-0.1,0.1-0.1c1.5-1.6,3-3.1,4.4-4.7c0.4-0.5,0.7-1,1-1.5
	c0.6-0.8,1.6-1,2.4-0.6c2,0.7,3.6,2.3,4.1,4.4c0.3,1,0.4,2,0.6,3.1c-0.2,0.8-0.4,1.7-0.6,2.6c-0.9-0.2-1.8-0.6-2.7-1
	c-0.8-0.7-1.6-1.5-2.3-2.3l-0.5-0.6c0,0.2-0.1,0.4-0.2,0.6c-0.4,0.9-0.1,1.5,0.7,2.1c2.3,1.7,4.6,3.4,6.9,5.2
	c0.8,0.7,1.5,1.4,2.2,2.1c0.1,0.1,0.2,0.3,0.2,0.5C161.5,173.4,162.2,176.8,162.7,180.2z M161.1,181.2c0.3-0.2,0.1-1.2,0.1-1.8
	c-0.4,0-0.9,0-1.2,0.1c-0.2,0-0.4,0.1-0.5,0.2c-2.4,1.4-4.8,2.8-7.3,4.1c-1.4,0.7-2.8,1.2-4.3,1.5c-1.7,0.4-3.4,0.7-5.2,0.8
	c-1.5,0.1-1.8,0.1-1.8,1.9c0,1.2,1,0.2,1.4,0.6c1,0,2-0.1,2.9-0.2c4-0.8,7.8-2.2,11.3-4.2C158.1,183.3,159.6,182.3,161.1,181.2
	L161.1,181.2z M161.2,183.2c0-0.1,0-0.3-0.1-0.4c-0.1,0-0.2,0.1-0.3,0.1c-3.2,1.6-6.4,3.2-9.6,4.8c-0.1,0.1-0.1,0.5-0.2,0.7
	s0,0.4-0.1,0.7c-0.3-0.1-0.8-0.1-0.8-0.3c-0.3-1.1-0.7-0.5-1.1-0.1l0,0c-1.1,0.2-2.3,0.4-3.4,0.7c-0.1,0-0.2,0.4-0.4,0.5
	s-0.3,0.6-0.5,0.6s-0.7-0.2-0.7-0.4c0-0.8-0.5-0.6-0.9-0.5s-0.8,0.1-1.2,0.1c-1.2,0.1-2.3,1-2.5,2.2c0,0.2,0,0.5,0.1,0.5
	c0.3,0.1,0.6,0.2,0.9,0.2c0-0.2,0-0.4,0-0.6c0.1-0.3,0.3-0.5,0.6-0.7c0.3-0.1,0.6-0.2,0.8-0.1c0.3,0,0.6,0.1,0.9,0.1
	c-0.2,0.2-0.5,0.5-0.8,0.7c-0.1,0.1-0.3,0.1-0.5,0.2c0.2,0.1,0.4,0.3,0.6,0.3c1.2-0.2,2.5-0.4,3.7-0.7c0.1,0,0.2-0.4,0.3-0.6
	s0.2-0.6,0.3-0.8l0.7,0.6c0.2,0.1,0.4,0.3,0.5,0.3c1.2-0.3,2.4-0.7,3.6-1.1c0.4-0.1,0.5-0.7,0.9-0.9c0.3-0.2,0.6-0.3,1-0.4
	c0.3,0,0.6-0.1,0.9-0.1l0,0c0.8-0.3,1.8-0.3,1.5-1.7c0-0.1,0.9-0.5,1-0.4c0.5,0.5,0.8,0.3,1.2,0c0.3-0.2,0.6-0.3,0.9-0.5
	C159.9,185.7,160.8,184.6,161.2,183.2L161.2,183.2z M160.7,175.7c0-0.5-0.1-1-0.2-1.5c-0.1-0.3-0.3-0.7-0.6-0.7
	c-0.4-0.1-0.9,0-1.3,0.3c-0.9,0.8-1.7,1.6-2.5,2.4c-0.1,0.1,0.1,0.4,0.1,0.5c0,0.8,0.1,1.5,0.1,2.2c0,0-0.1,0-0.2,0.1
	c-0.6,0.2-0.8-0.1-0.8-0.7c-0.1-0.4-0.2-0.8-0.5-1.2c-0.4,0.2-0.7,0.4-1.1,0.6c-0.1,0.1,0.2,0.5,0.2,0.7c0,0.3,0,0.6-0.1,0.9
	c-0.3-0.1-0.6-0.3-0.9-0.4c-0.1,0,0-0.4-0.1-0.4c-0.2-0.1-0.5-0.2-0.8-0.1c-0.2,0.1-0.3,0.4-0.4,0.6s-0.1,0.7-0.3,0.8
	s-0.8-0.1-0.8-0.2c-0.1-0.7-0.4-0.4-0.9-0.3c-1.8,0.5-3.6,0.9-5.4,1.2c-1,0.1-1.2,0.4-1,1.3c-1.2-0.1-1.4,0.1-1.6,1.6
	c0,0.1,0,0.2,0,0.4c0,0.3-0.1,0.7,0,0.9c0.2,0.3,0.5,0.5,0.8,0.6c0.2,0.1,0.5-0.1,0.7-0.1c-0.2-0.2-0.3-0.4-0.4-0.6
	c-0.1-0.3-0.1-0.6-0.1-0.9c0.3,0,0.7-0.1,0.8,0c0.7,1.2,1.4,0.1,2.2,0.1c0.4,0,1.1-0.9,1.3,0s-0.7,0.6-1.1,0.7
	c-0.2,0.1-0.4,0.2-0.6,0.3c0.2,0.1,0.5,0.3,0.7,0.2c0.9-0.1,1.7-0.4,2.5-0.6c0.3-0.1,0.5-0.3,0.7-0.4c-0.2,0-0.5,0-0.7-0.1
	c-0.3-0.2-0.5-0.4-0.7-0.6c0.2-0.2,0.4-0.5,0.6-0.5c0.7,0.1,1.4,0.2,2.1,0.4c1.8,0.1,3.4-0.8,4.4-2.3c0.1-0.3,0.7-0.6,0.9-0.6
	c1.1,0.8,1.9-0.2,2.3-0.8s0.1-1.5,0.1-2.3c0-0.3-0.1-0.6-0.3-0.9c0.2-0.1,0.4-0.1,0.6-0.2c0.2,0.3,0.3,0.6,0.3,0.9
	c0,0.7,0.8,1.5,1.4,1.3c0.4-0.2,0.8-0.5,1.1-0.9c-0.3,0-0.6-0.1-0.9-0.2c-0.2-0.1-0.3-0.4-0.5-0.6c0.2-0.1,0.4-0.3,0.6-0.4
	S160.7,175.9,160.7,175.7L160.7,175.7z M155.8,160.8c0.3-1.2,0.1-2.4-0.6-3.4c-0.7-1.1-1.6-2.1-2.6-3c-0.1-0.1-0.7,0.1-0.7,0.2
	c-0.1,0.7-0.1,1.4-0.2,2.1c-0.1,1.4,2,4.1,3.4,4.5C155.2,161.4,155.7,161,155.8,160.8L155.8,160.8z M150.4,156.7
	c-0.1-0.4-0.2-0.8-0.2-1.1c-0.2,0.2-0.5,0.4-0.7,0.6c-0.6,0.6-1.2,1.3-1.9,2c-0.5,0.5-0.5,0.9,0.1,1.3c0.3,0.3,0.6,0.5,1,0.6
	c0.2,0.1,0.8-0.1,0.9-0.3C149.9,158.8,150.1,157.7,150.4,156.7L150.4,156.7z M147.8,174c1.7-0.3,2.6-2.1,2.2-3
	c-0.6-1.5-1.8-2.6-3.4-3.1c-1-0.3-2-0.2-2.9,0.2c-1.5,0.7-2.2,2.3-1.8,3.9c0.6,1.8,1.3,2.3,3.6,2.3
	C146.3,174.1,147.1,174.1,147.8,174z M143.4,163c0.2-0.4-0.4-1.4-0.9-1.8c-0.7-0.5-1.5-0.9-2.3-1c-0.9-0.1-1.8,0.4-2.2,1.2
	c-0.4,0.6-0.3,1.3,0.3,1.7c0.1,0,0.1,0.1,0.2,0.1c1,0.5,2.1,1,3.1,1.4C142.3,164.1,143.2,163.7,143.4,163z M140.6,183.8
	c0.1-0.2,0.2-0.4,0.2-0.6c-0.2-1.2-0.4-2.5-0.6-3.7c-0.2-0.8-0.7-0.6-1-0.2c-0.7,0.8-1.1,0.5-1.7-0.1c1.9-1.4,2-1.9,0.8-4
	c-0.2-0.4-0.4-0.9-0.6-1.3c-0.2-0.6-0.3-1.2-1.2-0.8c-0.2,0.1-0.5-0.2-0.8-0.4c0,0,0.1-0.4,0.2-0.5c1.1-0.4,0.4-1,0.2-1.5
	c-0.4-1-1.6-1.7-1.4-3c0-0.1-0.3-0.2-0.5-0.3c-0.3,0-0.6-0.1-0.9-0.1c0.2-0.2,0.3-0.5,0.4-0.7c0.1-0.2,0.2-0.5,0.2-0.7
	c-0.2-0.6-0.5-1.2-0.8-1.8c-0.1-0.1-0.2-0.2-0.4-0.3c-0.3-0.1-0.7-0.1-0.8-0.3s0.1-0.6,0.1-0.9s0-1-0.1-1c-0.9-0.2-0.8-0.7-0.7-1.3
	c0-1.5-1-2.7-2.4-3.2c-0.3,0-0.7,0.1-1,0.2c0.1,0.2,0.2,0.5,0.3,0.7c0.2,0.4,0.5,0.9,0.7,1.3l0,0c0.1,0.4,0.2,0.7,0.3,1.1
	c0.3,0.6,0.1,1.7,1.4,1.2c0.1,0,0.3,0.2,0.4,0.4c0,0.2-0.1,0.4-0.3,0.6c-0.2,0.2-0.6,0.5-0.6,0.6c0.4,1.1,0.9,2.2,1.4,3.4l0,0
	c0.3,0.6,0.6,1.3,0.9,1.9c0.1,0.2,0.2,0.5,0.2,0.7c-0.1,0.8,0,1.2,1,1c0.2-0.1,0.6,0.2,0.8,0.3c-0.1,0.3-0.2,0.6-0.4,0.9
	c-0.2,0.2-0.4,0.3-0.7,0.4c0.3,0.3,0.6,0.5,0.9,0.7c0.5,0.3,1.1,0.4,0.3,1.1c-0.1,0.2-0.2,0.4-0.1,0.7c0.9,1.7,1.8,3.3,2.6,4.9
	l2,2.8c0.2,0.4,0.4,0.8,0.6,1.2C140,183.7,140.3,183.8,140.6,183.8L140.6,183.8z M139.9,186.4c0-0.1,0.1-0.3,0.2-0.7
	c-0.1-0.2-0.3-0.6-0.6-0.9c-0.9-1.3-1.9-2.5-2.6-3.9c-1.6-2.9-3.4-5.7-4.4-8.9c-0.7-2.2-1.7-4.2-2.5-6.3c-1.1-2.7-2.1-5.5-3.1-8.2
	s-1.8-5.4-2.7-8.1c-0.2-0.5-0.3-1.1-0.5-1.6c0-0.1-0.4-0.1-0.6-0.2c-0.2,0.6-0.7,1.2-0.5,1.7c0.8,2.6,1.6,5.1,2.5,7.7
	c0.7,2,1.4,3.9,2.2,5.9c1.2,3.5,2.5,7,3.7,10.6c1.6,4.8,3.9,9.3,6.9,13.4c0.5,0.5,1,0.9,1.6,1.3C139.6,187.6,139.7,187,139.9,186.4
	L139.9,186.4z M138.7,189.7l-1.1,0.8c-0.2,0.1-0.4,0.3-0.6,0.4c0.3,0.4,0.5,0.8,0.8,1.2c0.1,0.1,0.6,0,0.6-0.2
	c0.2-0.8,0.4-1.6,0.5-2.4c-0.5-0.4-1.1-0.8-1.4-1.3c-0.4-0.9-1.2,0-1.4-0.5c-0.1-0.6-0.2-1.2-0.2-1.7c0-0.1-0.1-0.1-0.2-0.2
	c-0.9-1.4-1.7-2.8-2.6-4.1c-0.3-0.5-0.1-1.3-1.3-1c-0.5,0.1-1,0.2-0.9,0.6c0.2,0.6,0.7,1.4,1.1,1.5c1,0.2,1.1,0.1,0.6,1.1
	c-0.3,0.6-0.1,0.9,0.5,1c1.1,0.2,1.1,0.2,0.4,1.1c-0.1,0.1-0.1,0.2-0.1,0.3c0.6,1.1,1.3,2.2,1.9,3.2c0.1,0.1,0.4,0,0.6,0
	L138.7,189.7z M131.1,179.8c0.8-0.4,1-0.9,0.4-1.7c-0.4-0.5-0.4-1.6-0.8-1.7c-0.9-0.3-0.7-0.6-0.5-1.3c0.1-0.3,0-1.2-0.8-0.5
	c-0.2,0.1-0.6,0-1-0.1c0-0.6,0.3-0.9,0.9-0.8c0.1,0,0.5-0.4,0.5-0.5c-0.4-1-0.8-2-1.2-3l0,0c-0.2-1.4-0.2-3.1-1.9-3.8
	c-0.2-0.1-0.2-0.6-0.2-0.8c0.1-1.2-0.2-2.3-0.8-3.4c-0.1-0.1-0.2,0-0.3,0s-0.4-0.1-0.7-0.2c0.1-0.3,0.1-0.6,0.2-0.8
	c0.6-0.6,0.3-0.9-0.2-1.3l0,0c-0.1-0.6-0.2-1.3-0.4-1.9s-0.3-1.3-1.2-0.9c-0.1,0-0.4-0.1-0.4-0.2s0-0.6,0.2-0.6
	c1.5-0.5,0.3-1.2,0.2-1.9l-0.2-0.7c-0.2-0.8-0.5-1.5-0.8-2.2l0.1-0.1l-0.2-0.1c-0.1-0.3-0.2-0.6-0.4-1c-0.2-0.1-0.5-0.2-0.7-0.1
	c-0.8,1-1.2,2.3-1,3.6c0,0.5-0.1,1.1,0.7,1c0,0.3,0,0.5,0,0.8c-0.1,0.3-0.4,0.6-0.3,0.9c0.3,1.3,0.7,2.5,1.1,3.8
	c0,0.2,0.5,0.2,0.7,0.3c0.2,0,0.4,0.1,0.7,0.1c-0.1,0.3-0.3,0.6-0.4,0.8s-0.5,0.4-0.4,0.5c0.7,1.3,1.4,2.6,2.1,3.9
	c0.1,0.2,0.2,0.4,0.3,0.6c0.2,0.8,0.1,2,0.6,2.4c1.2,0.8,0.8,1.9,1.1,2.9c0.2,0.7,0.7,1.4,0.9,2.2s0.6,0.9,1.2,0.7
	c-0.1,0.7,0,1.4,0.1,2.1c0.4,1.1,1,2.1,1.7,3C130.3,179.9,130.7,180,131.1,179.8L131.1,179.8z M129,156.6c0.1,0,0.2-0.8,0.1-1.1
	c-0.3-0.9-0.8-1.6-1.1-2.5c-0.5-1.2-1.7-2-1.8-3.4c0-0.4-0.4-0.7-0.6-1.1l-0.4,0.1c-0.1,0.3-0.2,0.6-0.2,0.9
	c0.4,1.2,0.8,2.5,1.2,3.7c0.2,0.5,0.2,0.9,0.9,0.7c0.2,0,0.5,0.3,0.7,0.5c0,0-0.1,0.4-0.2,0.4c-0.5,0.4-0.5,1.4,0,1.7
	C128.1,156.7,128.6,156.7,129,156.6z M125.5,146.4c-0.3-0.5-0.5-0.8-0.7-1.1c-0.3,0.3-0.6,0.8-0.8,1.2c-0.1,0.2,0.4,0.6,0.7,0.9
	L125.5,146.4z"/>
<path class="st3" d="M161.2,179.4c0,0.6,0.2,1.6-0.1,1.8c-1.4,1.1-3,2.1-4.6,3c-3.5,2-7.4,3.4-11.3,4.2c-1,0.1-1.9,0.2-2.9,0.2
	c-0.3-0.4-1.4,0.5-1.4-0.6c0-1.8,0.3-1.8,1.8-1.9c1.8-0.1,3.5-0.4,5.2-0.8c1.5-0.3,2.9-0.9,4.3-1.5c2.5-1.3,4.9-2.7,7.3-4.1
	c0.2-0.1,0.3-0.2,0.5-0.2C160.3,179.4,160.8,179.4,161.2,179.4z"/>
<path d="M159.8,36.7c0.2,0.1,0.5,0.3,0.4,0.4c-0.1,0.3-0.3,0.6-0.5,0.9c-0.2-0.3-0.4-0.5-0.4-0.6C159.5,37.1,159.6,36.9,159.8,36.7z
	"/>
<path d="M160.7,32.7c-0.3,0.3-0.6,0.6-0.7,0.6c-0.3-0.2-0.5-0.4-0.8-0.7c0.2-0.2,0.4-0.5,0.5-0.5C160.1,32.3,160.4,32.5,160.7,32.7z
	"/>
<path d="M159.7,34.6c0.1-0.1,0.4,0.2,0.8,0.4c-0.4,0.3-0.7,0.6-1.1,0.8c-0.1,0-0.3-0.3-0.5-0.5C159.2,35.1,159.4,34.8,159.7,34.6z"
	/>
<path d="M159.2,174.6l0.7,0.6c-0.3,0.2-0.5,0.5-0.6,0.5s-0.4-0.2-0.6-0.3C158.8,175.1,159,174.9,159.2,174.6z"/>
<path d="M158.5,36.2l-0.3,0.5c-0.2,0.1-0.4,0.3-0.6,0.2s-0.4-0.4-0.4-0.5c0.1-0.2,0.3-0.4,0.5-0.4C158,36,158.3,36.1,158.5,36.2z"/>
<path d="M158.7,38.6c-0.4,0.3-0.6,0.6-0.9,0.6s-0.5-0.3-0.6-0.5s0.3-0.5,0.4-0.5S158.2,38.4,158.7,38.6z"/>
<path d="M157.4,33.5c0.1,0.2,0.4,0.4,0.4,0.5c-0.2,0.3-0.4,0.5-0.6,0.7c-0.2-0.2-0.3-0.4-0.4-0.6C156.9,33.9,157.2,33.7,157.4,33.5z
	"/>
<path d="M156.5,35c0.2,0,0.4,0.3,0.7,0.5c-0.4,0.2-0.6,0.5-0.8,0.4s-0.3-0.4-0.4-0.6S156.4,35,156.5,35z"/>
<path class="st4" d="M155.2,157.4c0.7,1,0.9,2.2,0.6,3.4c-0.1,0.2-0.5,0.6-0.7,0.5c-1.4-0.4-3.4-3.2-3.4-4.5c0-0.7,0.1-1.4,0.2-2.1
	c0-0.1,0.6-0.3,0.7-0.2C153.6,155.4,154.4,156.4,155.2,157.4z"/>
<path d="M155.2,33.7c0.1-0.1,0.4,0.2,0.8,0.4c-0.3,0.2-0.6,0.5-0.9,0.7c-0.1,0-0.3-0.2-0.5-0.3C154.8,34.2,155,33.9,155.2,33.7z"/>
<path d="M154.2,35.2c0.1,0,0.5,0.4,0.4,0.5s-0.3,0.5-0.6,0.8c-0.2-0.4-0.5-0.7-0.4-0.8C153.7,35.5,153.9,35.3,154.2,35.2z"/>
<path d="M154.4,187.8l-0.4,1.1l0,0l-0.5-0.9L154.4,187.8z"/>
<path class="st2" d="M154.1,39.9c0.2,0.5-0.1,1.5-0.4,2.2c-0.8,2.1-2.6,3.1-4.5,4c-0.7,0.4-1.4,0.8-2,1.3c-0.3,0.2-0.7,0.3-1.1,0.4
	c0-0.3,0-0.7,0-0.7c0.1-2.2-0.6-2.8-2.6-2.5c-1.7,0.2-3.3,0.8-4.8,1.7c-0.2,0.1-0.4,0.1-0.6,0.1c0-0.2,0.1-0.4,0.2-0.5
	c1-1.6,1.4-3.6,0.9-5.4c-0.1-0.7-0.8-1.2-1.6-1.1c0,0,0,0-0.1,0c-0.2,0-0.4,0.1-0.6,0.2s-0.7,0-1,0c0.1-0.4,0.2-0.7,0.4-1
	c1.8-2.2,3.3-4.8,6.3-5.7c1.2-0.4,2.6,0,3.4,1c0.5,0.5,0.2,2.5-0.3,3.5c-0.8,1.3-1.4,2.7-2.1,4.1c-0.1,0.2,0,0.4,0.1,0.6
	c0.2,0,0.4,0,0.5-0.1c0.3-0.2,0.7-0.5,1-0.8c1.8-1.5,4-2.4,6.3-2.7C152.7,38.3,153.7,38.9,154.1,39.9z"/>
<path d="M153.7,32.9c0.2,0.3,0.4,0.6,0.4,0.7c-0.1,0.2-0.3,0.4-0.5,0.5c0,0-0.4-0.2-0.3-0.3C153.4,33.5,153.5,33.2,153.7,32.9z"/>
<path d="M154.3,181c-0.5,0.3-0.7,0.6-1,0.6s-0.4-0.2-0.6-0.4c0.2-0.2,0.3-0.5,0.5-0.5S153.7,180.9,154.3,181z"/>
<path d="M151.7,26.8c0.1,0.1,0.2,0.3,0.3,0.5c-0.2,0.1-0.5,0.4-0.6,0.3c-0.4-0.2-0.8-0.4-1.1,0.2c0,0.1-0.4,0-0.7,0
	c0.1-0.3,0.1-0.8,0.3-0.9C150.6,26.9,151.1,26.8,151.7,26.8z"/>
<path d="M151.7,181.5c0,0.2-0.3,0.4-0.6,0.9c-0.2-0.5-0.4-0.8-0.3-1.1s0.3-0.4,0.5-0.7C151.4,181,151.7,181.2,151.7,181.5z"/>
<path d="M151.7,29.8c-0.5,0.2-0.7,0.5-0.9,0.4c-0.2-0.1-0.4-0.3-0.5-0.5c0-0.1,0.3-0.5,0.4-0.4C151.1,29.4,151.4,29.6,151.7,29.8z"
	/>
<path d="M150.5,31.4c0.1,0,0.3,0.1,0.6,0.3c-0.2,0.2-0.5,0.5-0.8,0.6c0,0-0.3-0.3-0.4-0.5C150.1,31.7,150.3,31.6,150.5,31.4z"/>
<path class="st5" d="M150,171c0.4,0.9-0.5,2.7-2.2,3c-0.7,0.1-1.5,0.2-2.2,0.2c-2.3,0-3.1-0.5-3.6-2.3c-0.4-1.6,0.3-3.2,1.8-3.9
	c0.9-0.4,2-0.4,2.9-0.2C148.2,168.4,149.4,169.5,150,171z"/>
<path d="M149.8,25.3c0.2,0,0.4,0.2,0.8,0.4l-0.9,0.8c-0.1-0.2-0.4-0.5-0.4-0.7S149.6,25.3,149.8,25.3z"/>
<path d="M149.5,189.4c0,0.1-0.2,0.3-0.4,0.4s-0.3-0.1-0.4-0.1c0.1-0.3,0.2-0.6,0.4-0.9C149.2,188.9,149.4,189.2,149.5,189.4z"/>
<path d="M149.8,34.2c0,0.2-0.3,0.4-0.5,0.6c-0.2-0.2-0.4-0.3-0.5-0.5s0.2-0.3,0.4-0.6C149.5,33.8,149.8,34,149.8,34.2z"/>
<path d="M148.8,29c0.3,0.3,0.6,0.6,0.5,0.7s-0.3,0.4-0.6,0.5s-0.4-0.3-0.4-0.4S148.6,29.4,148.8,29z"/>
<path d="M149.1,32c0.1,0.3,0,0.6-0.1,0.8c0,0.1-0.3,0.1-0.5,0.2c-0.2-0.6-0.4-1.2-0.6-1.8c0-0.1,0.2-0.2,0.5-0.4
	C148.7,31.1,148.9,31.5,149.1,32z"/>
<path d="M149.1,188.7L149.1,188.7L149.1,188.7L149.1,188.7z"/>
<path d="M148.9,180.4c0.1,0,0.3,0.2,0.6,0.3l-0.6,0.8c-0.1-0.2-0.4-0.4-0.4-0.6S148.7,180.5,148.9,180.4z"/>
<path d="M148.8,36.2c0,0,0.3,0.2,0.5,0.3l-0.6,0.7c-0.1-0.1-0.3-0.3-0.3-0.4C148.5,36.6,148.6,36.4,148.8,36.2z"/>
<path d="M147.9,25.7c0.1,0,0.4,0.3,0.4,0.4c-0.1,0.3-0.3,0.6-0.5,0.9c-0.2-0.4-0.5-0.7-0.5-0.8C147.4,25.9,147.6,25.7,147.9,25.7z"
	/>
<path d="M148.6,27.7c-0.3,0.3-0.5,0.5-0.7,0.5s-0.5-0.3-0.4-0.4c0-0.2,0.2-0.5,0.4-0.6C148.1,27.3,148.3,27.5,148.6,27.7z"/>
<path d="M145,28.7c0.6,0,2.1,1.8,2,2.4c0,0.2-0.2,0.3-0.3,0.4c-0.1,0-0.4-0.1-0.4-0.3c-0.1-0.2-0.2-0.5-0.3-0.8
	c-0.2-0.5-0.2-1.1-1-0.9c-0.1,0-0.5-0.3-0.5-0.6s0.1-0.5,0.2-0.8L145,28.7z"/>
<path d="M147.7,181c-0.4,0.2-0.6,0.5-0.8,0.4c-0.3-0.1-0.6-0.3-0.9-0.5c0.2-0.2,0.4-0.5,0.7-0.5S147.2,180.7,147.7,181z"/>
<path d="M146.3,27.5l-0.5,0.4c-0.2-0.2-0.3-0.5-0.5-0.7c0-0.1-0.1-0.3-0.1-0.4c0.1,0.1,0.3,0.1,0.4,0.2L146.3,27.5z"/>
<path d="M145.8,181.8c0,0.2,0,0.5-0.1,0.5c-0.7,0.2-1.4,0.4-2.1,0.5c-0.1-0.3-0.2-0.7-0.2-1c0.7,0,1.4,0.9,2.1-0.1
	C145.4,181.6,145.8,181.7,145.8,181.8z"/>
<polygon points="145.2,26.7 145.2,26.7 145.2,26.7 "/>
<path d="M144,30.4l-0.3,0.4l-0.5-0.8l0.1-0.1L144,30.4z"/>
<path class="st5" d="M142.6,161.3c0.5,0.4,1.1,1.4,0.9,1.8c-0.3,0.7-1.1,1.1-1.8,1.6c-1.1-0.4-2.1-0.8-3.1-1.4
	c-0.6-0.3-0.9-1.1-0.6-1.7c0-0.1,0.1-0.1,0.1-0.2c0.4-0.8,1.3-1.3,2.2-1.2C141.1,160.4,141.9,160.7,142.6,161.3z"/>
<polygon points="143.3,181.7 143.3,181.8 143.3,181.8 "/>
<path d="M143.3,181.7L143.3,181.7L143.3,181.7z"/>
<path d="M141.7,48.7c0.2,0.2,0.5,0.4,0.5,0.5c-0.1,0.2-0.3,0.4-0.4,0.6c-0.2-0.2-0.4-0.3-0.4-0.6S141.5,48.9,141.7,48.7z"/>
<path d="M140,49.6c0.2,0,0.4,0.2,0.8,0.4l-0.8,0.7c-0.1-0.2-0.4-0.4-0.4-0.6C139.6,49.9,139.8,49.7,140,49.6z"/>
<path d="M140,180.9l-0.8,1.3c0-0.5,0-1,0-1.4L140,180.9z"/>
<path class="st3" d="M140,185.8c-0.1,0.4-0.1,0.5-0.2,0.7c-0.1,0.6-0.3,1.1-0.4,1.7c-0.6-0.4-1.1-0.8-1.6-1.3c-3-4-5.4-8.6-6.9-13.4
	c-1.2-3.6-2.4-7.1-3.7-10.6c-0.7-2-1.5-3.9-2.2-5.9c-0.9-2.6-1.8-5.1-2.5-7.7c-0.1-0.5,0.3-1.1,0.5-1.7c0.2,0.1,0.5,0.1,0.6,0.2
	c0.2,0.5,0.3,1.1,0.5,1.6c0.9,2.7,1.7,5.4,2.7,8.1s2,5.5,3.1,8.2c0.8,2.1,1.9,4.1,2.5,6.3c1,3.2,2.8,6,4.4,8.9
	c0.8,1.4,1.8,2.6,2.6,3.9C139.7,185.2,139.9,185.6,140,185.8z"/>
<path d="M139.5,48.7c-0.4,0.2-0.6,0.4-0.8,0.4s-0.3-0.2-0.5-0.4c0.2-0.2,0.4-0.5,0.5-0.5S139.2,48.5,139.5,48.7z"/>
<path d="M138.9,51.7c-0.2,0.2-0.3,0.5-0.4,0.5c-0.2,0-0.4-0.1-0.6-0.3c-0.3-0.4-0.5-0.9-0.7-1.4c0.2-0.1,0.4-0.2,0.5-0.2
	C138.1,50.7,138.5,51.2,138.9,51.7z"/>
<path d="M137.7,177.1c0,0.1-0.2,0.4-0.4,0.7c-0.3-0.3-0.6-0.5-0.6-0.7s0.2-0.4,0.4-0.6C137.3,176.8,137.6,176.9,137.7,177.1z"/>
<path d="M137.1,43.8c0.2,0.3,0.3,0.5,0.3,0.6c-0.2,0.2-0.3,0.5-0.6,0.7c-0.1-0.2-0.4-0.3-0.3-0.4C136.7,44.3,136.9,44,137.1,43.8z"
	/>
<path d="M136.6,52c0,0-0.2,0.2-0.3,0.4l-0.5,0.3c-0.1-0.3-0.2-0.6-0.2-0.9c0-0.2,0.4-0.4,0.4-0.4C136.3,51.6,136.5,51.8,136.6,52z"
	/>
<path d="M136.4,42.8l0.6,0.5c-0.3,0.1-0.5,0.3-0.6,0.3s-0.4-0.3-0.3-0.4C136.1,43.1,136.3,42.9,136.4,42.8z"/>
<path d="M136.4,174.2c0.1-0.1,0.3,0.2,0.6,0.4l-0.7,0.7c-0.2-0.2-0.5-0.4-0.5-0.5C135.9,174.5,136.1,174.3,136.4,174.2z"/>
<path d="M135.8,46.5c0.1,0,0.4,0.2,0.4,0.3s-0.2,0.4-0.4,0.7c-0.2-0.3-0.4-0.4-0.4-0.6S135.7,46.5,135.8,46.5z"/>
<path d="M136.2,53.8c-0.1,0.2-0.3,0.4-0.5,0.5c-0.1,0-0.3-0.2-0.4-0.3c0.1-0.2,0.2-0.4,0.4-0.5S136,53.7,136.2,53.8z"/>
<path d="M135.2,43.8c0.2,0.5,0.4,0.7,0.4,0.9s-0.2,0.4-0.4,0.6c-0.1-0.2-0.4-0.3-0.4-0.5S135,44.5,135.2,43.8z"/>
<path d="M135.5,49.2L135.5,49.2L135.5,49.2z"/>
<path d="M135.5,49.2L135.5,49.2L135.5,49.2z"/>
<path d="M135.5,52.9c-0.4,0.2-0.6,0.4-0.8,0.3c-0.3-0.1-0.5-0.3-0.8-0.5c0.2-0.2,0.5-0.6,0.6-0.6C134.9,52.3,135.2,52.6,135.5,52.9z
	"/>
<path d="M134.4,49.5c0.3-0.1,0.7-0.2,1-0.2c-0.4,0.7-0.9,1.3-1.4,1.9c-0.1,0.1-0.7-0.1-1-0.2c0.2-0.3,0.4-0.5,0.6-0.7
	C133.8,50,134.1,49.7,134.4,49.5z"/>
<path d="M134.9,48c-0.2,0.2-0.4,0.4-0.6,0.5c-0.4,0.1-0.8,0.2-1.1,0.1c-0.3-0.1-0.5-0.3-0.6-0.6c0-0.3,0-0.6,0.2-0.9
	c0.1-0.2,0.3-0.5,0.5-0.7l0.4,0.7l-0.2,0.4c0.3,0,0.6,0.1,0.8,0.2C134.4,47.8,134.7,47.9,134.9,48z"/>
<path d="M134,55.3l-0.6,0.5c-0.1-0.2-0.2-0.4-0.3-0.6s-0.3-0.5-0.4-0.8s-0.3-0.4-0.3-0.5c0.1-0.2,0.3-0.4,0.5-0.5
	c0.1,0,0.4,0.2,0.5,0.3C133.7,54.2,133.8,54.7,134,55.3z"/>
<path d="M133.4,44.8c0.1,0.2,0.2,0.3,0.2,0.3c-0.1,0.1-0.2,0.3-0.3,0.4c-0.1-0.1-0.2-0.2-0.2-0.2C133.2,45.1,133.3,44.9,133.4,44.8z
	"/>
<path d="M132.4,165.7l0.4,0.5l-1.1,0.5c0,0,0-0.1,0-0.1L132.4,165.7z"/>
<path d="M132.1,51.5l0.5,0.5c-0.3,0.4-0.6,0.7-0.9,1c-0.1-0.2-0.3-0.4-0.3-0.5C131.7,52.2,131.9,51.9,132.1,51.5z"/>
<path d="M130.8,49.2l1.4,0.2c-0.2,0.2-0.4,0.3-0.6,0.5C130.9,50.3,130.8,49.8,130.8,49.2C130.7,49.2,130.8,49.2,130.8,49.2z"/>
<path d="M131.7,166.7L131.7,166.7L131.7,166.7C131.7,166.7,131.7,166.7,131.7,166.7z"/>
<path d="M130.6,54.7l0.8,0.4c-0.1,0.1-0.1,0.3-0.2,0.4c-0.3,0.1-0.6,0.1-0.8,0.1c-0.3,0-0.6,0-0.9,0c-0.3,0-0.5-0.1-0.8-0.1
	c0-0.2,0.1-0.4,0.1-0.7c0.1-0.3,0.2-0.5,0.4-0.7c0.2-0.2,0.4-0.3,0.6-0.5c0.1,0.2,0.3,0.5,0.4,0.7c0.1,0.2,0.1,0.4,0.1,0.5
	L130.6,54.7z"/>
<path d="M130.8,50.8c0.2,0.1,0.5,0.3,0.5,0.4c-0.2,0.4-0.4,0.7-0.6,1.1c-0.2-0.3-0.4-0.4-0.3-0.5C130.5,51.4,130.6,51.1,130.8,50.8z
	"/>
<path d="M130.6,177.7c0,0.2-0.2,0.4-0.4,0.9c-0.2-0.4-0.4-0.9-0.5-1.4c0-0.1,0.3-0.2,0.4-0.4C130.3,177.1,130.5,177.4,130.6,177.7z"
	/>
<path d="M130.2,159.1c0,0.3-0.1,0.6-0.2,0.9l-0.4-0.2c-0.2-0.1-0.4-0.2-0.6-0.2c0.2-0.2,0.4-0.4,0.7-0.6
	C129.8,158.9,130.2,159,130.2,159.1z"/>
<path d="M129.8,57.2c0.1,0,0.3,0.2,0.6,0.5c-0.5,0.3-1.1,0.5-1.7,0.7c-0.2,0-0.5-0.4-0.8-0.6C128.5,57.6,129.1,57.4,129.8,57.2z"/>
<path d="M129,159.5L129,159.5L129,159.5z"/>
<path d="M128.5,170.2L128.5,170.2c-0.2,0.3,0.3,1.2-0.6,0.8c-0.3-0.1-0.4-0.6-0.6-0.8L128.5,170.2z"/>
<path d="M127.7,172.5c0.1,0.3,0.3,0.5,0.3,0.7s-0.3,0.3-0.4,0.5c-0.1-0.2-0.3-0.4-0.3-0.5S127.5,172.8,127.7,172.5z"/>
<path d="M127,59.4c0.2,0.2,0.5,0.4,0.5,0.5s-0.3,0.5-0.6,0.9c-0.2-0.4-0.4-0.7-0.4-0.9S126.9,59.6,127,59.4z"/>
<path d="M126.8,168.3c0.2,0,0.4,0.3,0.7,0.6c-0.4,0.2-0.6,0.4-0.8,0.4s-0.4-0.3-0.4-0.4C126.4,168.6,126.6,168.3,126.8,168.3z"/>
<path d="M125.6,167.4c0.1-0.1,0.3,0.2,0.6,0.4l-0.7,0.7c-0.2-0.2-0.5-0.4-0.5-0.6S125.4,167.5,125.6,167.4z"/>
<path d="M126.2,164.5c-0.4,0.2-0.6,0.4-0.8,0.4s-0.3-0.3-0.5-0.5c0.2-0.2,0.3-0.4,0.6-0.5S125.8,164.2,126.2,164.5z"/>
<path d="M125.5,61.7c0,0.2-0.2,0.5-0.5,1c-0.2-0.6-0.4-0.8-0.4-1s0.2-0.4,0.4-0.6C125.2,61.3,125.5,61.5,125.5,61.7z"/>
<path d="M124.8,160L124.8,160c-0.2,0.2-0.3,0.5-0.5,0.6c-0.3,0.1-0.5,0-0.7-0.2c-0.1-0.2-0.1-0.4,0-0.6c0.2-0.1,0.5-0.1,0.7-0.1
	C124.5,159.8,124.6,159.9,124.8,160z"/>
<path d="M124,163.2c0.2,0.1,0.4,0.3,0.8,0.6l-0.8,0.6c-0.2-0.2-0.3-0.5-0.4-0.8C123.5,163.5,123.8,163.1,124,163.2z"/>
<path d="M122.9,153.8l0.2,0.7c-0.1,0.1-0.2,0.2-0.3,0.2c-0.4-0.1-0.8-0.2-1.2-0.3c0-0.1,0-0.4,0.1-0.4
	C122.1,153.9,122.5,153.9,122.9,153.8z"/>
<path d="M121.9,157.9c0.3,0.4,0.5,0.6,0.4,0.7c-0.1,0.2-0.3,0.4-0.5,0.5c0,0-0.4-0.3-0.3-0.4C121.5,158.4,121.7,158.1,121.9,157.9z"
	/>
<path d="M122.2,151.5l-0.1,0.1l-0.1-0.2L122.2,151.5z"/>
<path d="M122.1,151.4l0.1,0.2l-0.9,0.9c-0.2-0.2-0.5-0.5-0.6-0.8s0.4-0.5,0.6-0.6C121.5,151.1,121.8,151.2,122.1,151.4z"/>
<path d="M119.9,35.7c0.5,0.9,0.6,2,0.4,3.1c-0.4,1.6-1.4,3-2.9,3.9c-3.1,1.9-6.8,2.2-10.2,0.8c-4-1.5-5.4-7.3-1.7-10.3
	c2-1.7,3.7-1.8,6.7-2C115.3,31.3,118.2,33,119.9,35.7z M117,41.6c2.1-1.1,3.3-3.9,1.3-5.8c-1.1-1-2.3-1.9-3.7-2.6
	c-2.7-1.5-6.1-1.1-8.4,1.1c-1.9,1.7-2,4.7-0.3,6.6c0.2,0.2,0.3,0.3,0.5,0.5c1.6,1.3,3.3,1.7,6.1,1.8C114,42.7,115.6,42.2,117,41.6z"
	/>
<path class="st1" d="M118.3,35.7c2,2,0.8,4.8-1.3,5.8c-1.4,0.6-2.9,1.2-4.5,1.5c-2.7-0.1-4.5-0.5-6.1-1.8c-2-1.6-2.3-4.6-0.7-6.6
	c0.1-0.2,0.3-0.3,0.5-0.5c2.2-2.2,5.6-2.6,8.4-1.1C116,33.8,117.2,34.7,118.3,35.7z"/>
<path d="M115.5,186.3c-0.2,2.9-1,5.1-2.9,6.5c-1.6,1-3.4,1.3-5.2,1.1c-2,0-4-0.8-5.4-2.3c-2.5-2.8-2.4-7,0.4-9.6
	c0.1-0.1,0.2-0.2,0.3-0.2c1.7-1.6,3.8-1.7,6.1-1.3c2.4,0.3,4.6,1.6,5.9,3.6C115,184.7,115.3,185.5,115.5,186.3z M110.8,192.2
	c2.3-0.4,4.1-3.9,3.3-6.2c-1.1-3.1-3.5-4.5-7.3-4.6c-0.6,0-1.3,0.1-1.9,0.3c-3.4,1.1-4.4,6-1.8,8.8
	C105.2,192.8,108,192.7,110.8,192.2z"/>
<path class="st1" d="M114.1,186c0.8,2.3-0.9,5.7-3.3,6.2c-2.8,0.5-5.6,0.6-7.7-1.7c-2.6-2.8-1.6-7.6,1.8-8.8
	c0.6-0.2,1.2-0.2,1.9-0.3C110.6,181.5,112.9,182.9,114.1,186z"/>
<path d="M89.5,16.7c0,2.2,0.3,4.5,0.2,6.7c-0.2,3.3-0.7,6.6-1.2,9.9c-0.4,2.8-1,5.5-1.6,8.2c-0.5,2.1-0.9,4.2-1.5,6.3
	c-0.7,2.7-1.5,5.3-2.3,7.9c-0.3,0.9-0.7,1.7-1.3,2.4c-1.3,1.8-3.6,2-5.8,0.5c-1.4-0.8-2.6-1.7-3.8-2.8c-1.2-1.3-2.1-2.8-2.7-4.4
	c-1.7-4.1-3.2-8.3-4.7-12.5c-1.3-3.6-2.4-7.2-3.7-10.7c-1-2.6-2.4-5-3.5-7.6c-0.9-2-1.4-4.1-1.4-6.3c-0.1-1.5-0.5-2.9-1-4.3
	c-0.6-2.2,0.1-3,2.3-2.6c2.7,0.4,5.3,1.4,7.5,3c0.2,0.2,0.5,0.2,0.8,0.2c2.1-0.2,4.2-0.4,6.3-0.8c0.8-0.1,1.4-1,2.2-1.4
	c1.3-0.8,2.6-1.6,4-2.2s1.7-0.3,2,1c0.1,0.6,0.1,1.2,0.2,1.8h-0.1c0,0.7-0.3,1.8,0.1,2.1c0.8,0.6,1.7,1,2.7,1.2c1.3,0.4,2.7,0.5,4,1
	C89.2,14.2,89.6,15.2,89.5,16.7z M88.4,26.8c0.2-2.9,0.1-5.9,0-8.8c0-0.8-0.2-1.6-0.4-2.4c-0.2-0.7-0.5-0.7-1-0.1
	c-0.1,0.1-0.2,0.1-0.2,0.2c-0.1-0.1-0.2-0.2-0.2-0.3c0-1.1-0.8-1.1-1.5-1.1c-0.2-0.2-0.5-0.3-0.8-0.5c-1.3-0.4-1.4-0.3-1.4,1
	c0,0.8,0,1.5-0.1,2.3c-0.9,4.7-1.7,9.3-2.6,13.9c-0.6,3.1-1.4,6.2-2.2,9.2c-0.3,1.2-0.3,2.5-0.7,3.7c-0.5,1.7-1.2,3.2-1.8,4.9
	c-0.7,2-1.5,3.9-2.2,5.9c-0.1,0.1-0.1,0.4,0,0.4c1.1,0.6,2.2,1.2,3.4,1.8c0,0,0.1-0.1,0.2-0.2l0.7-0.3c0,0.4,0.1,0.7,0.1,1.1
	c0,0.2-0.1,0.5,0,0.6c1,0.6,2.4,0.4,3.2-0.5c0.7-1.1,1.3-2.2,1.8-3.4c0.3-1,0.6-2.1,0.8-3.2c0.7-2.8,1.5-5.5,2.2-8.3
	c0.4-1.7,0.7-3.4,1.1-5.1s0.6-3.1,0.8-4.6C87.9,30.9,88.2,28.9,88.4,26.8z M81.9,15.6C81.8,15,81.5,14,81.1,13
	c-0.1-0.3-0.5-0.4-0.8-0.6c-0.2,0.2-0.3,0.5-0.4,0.8c-0.8,1.2-1.3,2.7-2.4,3.5c-1.9,1.4-3.9,2.9-6.5,2.7c-0.3,0-0.5,0.1-0.8,0.2
	c-1.7,0.5-3.5,1-5.2,1.5c-1.3,0.4-2.7,0.1-3.7-0.8c-1-0.8-2-1.7-2.8-2.6c-0.3-0.3-0.6-0.6-0.9-0.9c0.1,0.5,0.1,1,0.2,1.5
	c0.1,0.4,0.3,0.7,0.5,1.1c1.6,3.7,3.2,7.5,4.8,11.2c0.2,0.5,0.4,1,0.6,1.5c0-0.5,0-1,0-1.5c0-0.1,0-0.2,0-0.2c1-3.6,2.7-6.7,6.1-8.4
	c0.5-0.2,1.5-0.1,1.7,0.2c0.4,0.8,0.7,1.6,0.7,2.5c0.4,2.6-0.7,5.1-2.7,6.7c-1.3,1-2.5,2.2-4.3,2.2c-1.1,0-0.9,0.4-0.7,1.1
	c1.6,4.5,3.1,8.9,4.7,13.4c0.7,1.8,1.6,3.6,2.5,5.3c0.1,0.3,0.5,0.4,0.8,0.6c0.2-0.2,0.4-0.5,0.6-0.8c0.6-1.5,1-3.1,1.6-4.6
	c1.2-2.4,2-4.9,2.3-7.5c0.3-1.9,0.7-3.8,1.3-5.6c0.5-2.3,1-4.5,1.5-6.8c0.3-1.5,0.5-3.1,0.8-4.7C80.9,21.2,81.4,18.7,81.9,15.6z
	 M79.2,11c-0.1-0.2-0.2-0.5-0.2-0.7l-1.5,2.2c0.2,0.1,0.5,0.4,0.7,0.4C79.4,12.7,78.8,11.6,79.2,11z M78.8,8.2
	C78.9,7.9,79,7.7,79,7.4c-0.3-0.1-0.5-0.1-0.8,0c-4.6,2-7,4.5-7.5,9.6c0,0.1,0,0.2,0,0.3c0,0.3,0.1,0.5,0.1,0.8l0.5-0.6
	c0.5-0.8,1.2-1.5,1.8-2.2C75.6,13.5,77.6,11,78.8,8.2L78.8,8.2z M77.4,15.2c0.3-0.2,0.4-0.6,0.5-1c-0.3-0.1-0.7-0.5-0.9-0.4
	c-0.8,0.4-1.5,0.9-2.2,1.4c0.1,0.1,0.2,0.2,0.3,0.3c0.3,0,0.5,0,0.8,0c0,0.1,0,0.1,0,0.1C76.4,15.5,76.9,15.4,77.4,15.2L77.4,15.2z
	 M75.2,16.9c0,0-0.1-0.4-0.2-0.4c-1,0-2-0.4-2.6,0.9l-0.2,0.5l0.8,0.2C73.7,17.7,74.5,17.3,75.2,16.9z M71,12.3
	c0.4-1.2,0.5-1.2-0.8-1.2h-0.5c0,0,0-0.1,0-0.1c-0.9,0.2-1.8,0.3-2.7,0.5c-0.2,0.2-0.3,0.4-0.2,0.6c0.6,1.2,1.2,2.4,1.8,3.7
	c0.3,0.5,0.4,1.1,0.7,1.6c0.1,0.1,0.2,0.2,0.3,0.3c0-0.1,0.1-0.2,0.1-0.4C70.1,15.7,70.4,14,71,12.3z M71,24.7
	c0-0.2-0.1-0.4-0.2-0.5c-0.1,0.1-0.3,0.2-0.4,0.4c-0.4,0.8-0.8,1.6-1.2,2.3c-1,1.6-2.2,3.1-3.2,4.6c-0.1,0.2-0.2,0.3-0.2,0.5
	c0.1,0.1,0.2,0.1,0.3,0.2c0.2-0.1,0.3-0.1,0.4-0.2c2.3-1.6,4.7-3.1,4.3-6.5C70.8,25.2,71,24.9,71,24.7z M69.8,23.4
	c0,0-0.3-0.3-0.3-0.3c-0.5,0.4-1,0.7-1.7,1.3c0.6,0.2,1,0.5,1.1,0.4C69.3,24.3,69.6,23.9,69.8,23.4z M67.2,17.3c0.2,0,0.4,0,0.6,0
	c0-0.2,0-0.4-0.1-0.5c-0.7-1.4-1.4-2.7-2.1-4.1c-0.2-0.3-0.4-0.5-0.7-0.7c-0.1,0.3-0.2,0.6-0.2,0.8c0.1,1.3,0.2,2.3,0.3,3.4
	c0,0.2,0.2,0.4,0.4,0.5C66,16.9,66.6,17.1,67.2,17.3L67.2,17.3z M68.5,26.4c-0.3-0.2-0.9-0.7-1-0.6c-0.6,0.4-1.1,0.9-1.6,1.4
	c0,0,0.3,0.4,0.7,0.8L68.5,26.4z M67,19.4c0.5-0.1,0.9-0.3,1.3-0.5c-0.4-0.2-0.9-0.4-1.4-0.5c-3.9-0.8-6.9-3.2-9.5-6.1
	c-0.2-0.1-0.4-0.2-0.5-0.3c0,0.2-0.1,0.5,0,0.6c0.6,1.4,1.4,2.8,2.2,4.2c1.1,1.8,2.9,3,5,3.4C65,19.9,66,19.7,67,19.4z M66.5,29.3
	c0-0.3-0.1-0.5-0.3-0.6c-0.9-0.2-1.5,0.5-1.4,1.9L65,31c0.2-0.1,0.3-0.2,0.5-0.3C65.9,30.2,66.2,29.8,66.5,29.3L66.5,29.3z
	 M63.8,12.4c0.2-1.2-0.5-1.6-1.3-2.1c-0.5-0.3-0.8-0.2-0.8,0.5c0,1.1,0.1,2.2,0.3,3.2c0.2,0.7,1.1,1.1,1.7,1.7
	c0.1-0.4,0.2-0.7,0.3-0.9C63.8,14,63.7,13.2,63.8,12.4z M60.7,13.7l0.2-0.7c-0.1-3.4-0.3-3.7-2.6-4.2c-0.4-0.1-0.8-0.1-1.2-0.1
	c-0.2,0-0.4,0.4-0.4,0.5c1,1.3,2.1,2.7,3.1,4C60.1,13.4,60.4,13.6,60.7,13.7z"/>
<path d="M87.4,141.2c1.5,0.6,1.6,1.8,1.5,3.1c0,2.7-0.1,5.4-0.1,8.1c0,1.6-0.2,3.1-0.2,4.7c0,0.9,0.2,1.9,0.2,2.8
	c-0.1,4.9-0.3,9.8-0.5,14.7c0,0.7,0,1.4,0,2.1l0,0c0,2,0.1,4,0,6s-0.5,3.9-2.7,4.7l-0.1,0.1c-2.4,2.6-5.7,2.4-8.8,2.2
	s-6.1-0.5-9.2-1c-1.6-0.3-3.2-0.7-4.8-1.3c-1-0.4-1.6-1.9-1.5-3.3c0.2-1,0.2-2,0.2-3c-0.3-5.2,1.7-9.6,4.1-14
	c1.1-2.1,2.2-4.2,3.4-6.2c1.7-2.7,3.4-5.4,5.1-8.1s3.3-5.6,5-8.3c1-1.5,2.1-3,3.2-4.4c0.5-0.4,1.1-0.7,1.7-0.9
	c0.2-0.1,0.6,0,0.6,0.1C85.2,140.6,86.4,140.8,87.4,141.2z M87.7,145.4c0.3-1.3-0.3-2.7-1.5-3.3c-0.2-0.1-0.5-0.3-0.7-0.2
	s-0.3,0.4-0.3,0.7c0,1.3-0.1,2.6,0,3.8c0,2.4,0.1,4.7,0.2,7.1c0,1.1,0.3,2.2,0.3,3.3c-0.1,2.5-0.3,4.9-0.3,7.4
	c0,3.2,0.1,6.4,0.2,9.6c0,0.8,0,1.6,0,2.4c0,0.7,0,1.5,0,2.2c0.2,1.6,0.6,3.2,0.9,4.8h-0.2c0,0.1,0,0.2,0,0.4
	c0.1,0.5,0.1,1.1,0.2,1.6c0.3-0.6,0.5-1.2,0.6-1.8c0.2-6.7,0.3-13.3,0.4-20c0-2.2-0.1-4.5-0.1-6.8c0-1.9,0.1-3.7,0.2-5.6
	S87.6,147.2,87.7,145.4L87.7,145.4z M83.6,182.5c0.6,0,1.5,0.3,1.3-0.9c-0.2-0.9-0.3-1.7-0.6-2.5c-0.1-0.1-0.3-0.2-0.5-0.1
	c-2.2,1.4-4.7,1.4-7.1,1.6c-2.6,0.1-5.2-0.2-7.7-1.1c-2-0.6-3.9-1.3-5.9-1.9H63c-0.2,0.5-0.3,1-0.3,1.5c0,0.3,0.2,0.8,0.4,0.9
	c3.8,1.4,7.6,2.6,11.8,2.3C77.8,182.1,80.7,182.2,83.6,182.5z M82.9,188c1.2-0.1,2.1-0.9,1.7-1.5s-1.3-0.7-2-0.8s-1.3,0.4-1.9,0.4
	c-2.2,0.1-4.3,0.1-6.5,0c-1.1,0-2.3-0.1-3.4-0.4c-2.4-0.6-4.7-1.3-7-1.9c-0.3-0.1-0.9-0.1-1,0.1c-0.4,0.9,0,1.9,0.9,2.3
	c0,0,0,0,0.1,0c4.7,1.5,9.6,1.9,14.8,2.3L82.9,188z M83.6,175.7c0.7,0.2,0.7,0,0.6-0.6c-0.2-2.7-0.3-5.5-0.3-8.2c0-4,0.2-8,0.2-12
	c0-1.4-0.5-2.7-0.4-4.1c0-3,0.3-6,0.4-9c-0.1-0.4-0.2-0.8-0.4-1.2c-0.3,0.2-0.7,0.4-0.9,0.6c-0.8,1.1-1.6,2.2-2.4,3.4
	c-1.7,2.8-3.4,5.6-5.1,8.4c-1.1,1.7-2.2,3.4-3.2,5.1c-0.2,0.2-0.6,0.6,0.2,0.7c0.2,0.1,0.5,0.1,0.7,0.2c-0.1,0.2-0.2,0.6-0.4,0.7
	s-0.7,0-0.8-0.1c-0.5-0.8-0.6-0.1-0.8,0.2c-1.2,2.1-2.4,4.3-3.5,6.4c-0.9,1.7-1.8,3.5-2.6,5.2l0,0c-0.3,0.8-0.7,1.5-1,2.3
	c-0.7,1.8-0.1,2.8,1.7,3.2c1.5,0.4,3,0.8,4.4,1.2c0.6,0.2,1.2,0.4,1.7-0.2c0.4-0.4,0.8-0.4,0.8,0.4c0.1,0.3,0.3,0.6,0.6,0.7
	c0.7,0.3,1.4,0.3,2.1,0.2c0.8-0.3,2.3,0.7,2.3-1.1c0-0.1,0.4-0.2,0.7-0.3c0,0.2,0,0.4,0.1,0.7c0,0.2,0.1,0.6,0.2,0.7
	c1.1,0,2.2-0.4,3-1.1c0.2-0.2,0.8-0.4,0.9-0.3c1.1,0.7,1.3-0.1,1.6-0.9c0-0.1-0.2-0.4-0.3-0.4c-0.3,0-0.6,0-0.9,0
	c0,0-0.1-0.4-0.1-0.4C82.9,175.9,83.3,175.7,83.6,175.7L83.6,175.7z M83.6,184.2c-0.2-0.2-0.5-0.4-0.8-0.6c-0.8-0.2-1.6-0.4-2.6-0.6
	c-0.1,0.1-0.5,0.2-0.5,0.3c-0.1,0.5-0.1,1.1,0,1.6c0,0.1,0.3,0.3,0.4,0.3c0.2,0,0.4-0.1,0.6-0.3c0.1-0.2,0-0.5,0-0.7
	c0.1-0.2,0.2-0.4,0.3-0.6c0.2,0.1,0.3,0.2,0.5,0.3c0.1,0.1,0.1,0.5,0.2,0.5c0.3,0.2,0.7,0.2,1.1,0.2
	C83.1,184.8,83.3,184.5,83.6,184.2L83.6,184.2z M78.7,185.2l0.3-0.9c-0.1-1-0.1-1-1.1-1.1c-0.5,0-0.9,0-1.4-0.1
	c-1.5-0.2-1.5-0.2-1.2,1.2c0.1,0.3,0.4,0.5,0.6,0.7c0.2-0.2,0.4-0.4,0.6-0.6s0.4-0.5,0.6-0.8c0.2,0.2,0.4,0.5,0.6,0.7
	C77.9,184.8,78.3,185,78.7,185.2L78.7,185.2z M73.4,185.1l0.8-0.9c-0.4-0.4-0.7-0.7-0.9-1c-0.2,0.3-0.5,0.5-0.4,0.8
	C73,184.4,73.2,184.8,73.4,185.1L73.4,185.1z M71.1,184.6l0.8-0.7l-0.8-0.8c-0.2,0.2-0.5,0.4-0.5,0.5
	C70.8,184,70.9,184.3,71.1,184.6L71.1,184.6z M68.9,184.1c0.1,0.1,0.6-0.5,0.6-0.5c-0.3-0.4-0.6-0.8-0.9-1.2
	c-0.3,0.5-0.7,0.8-0.6,0.9C68.2,183.6,68.5,183.9,68.9,184.1L68.9,184.1z M66.4,183.6c0.1,0,0.5-0.4,0.4-0.5c-0.3-0.5-0.6-1-1.1-1.7
	c-0.2,0.3-0.4,0.6-0.5,0.9C65.1,183.3,65.8,183.4,66.4,183.6L66.4,183.6z M64.6,182.1l-0.6-0.7c-0.2,0.3-0.4,0.5-0.5,0.9
	c0,0.1,0.3,0.4,0.5,0.5L64.6,182.1z"/>
<path class="st3" d="M86.2,142.1c1.2,0.6,1.8,2,1.5,3.3c-0.2,1.9-0.2,3.8-0.2,5.6s-0.1,3.7-0.2,5.6c0,2.2,0.1,4.5,0.1,6.8
	c-0.1,6.7-0.2,13.3-0.4,20c-0.1,0.6-0.3,1.2-0.6,1.8c-0.1-0.5-0.1-1.1-0.2-1.6c0-0.1,0-0.2,0-0.4h0.2c-0.3-1.6-0.6-3.2-0.9-4.8
	c0-0.7,0-1.5,0-2.2c0-0.8,0-1.6,0-2.4c-0.1-3.2-0.2-6.4-0.2-9.6c0-2.5,0.3-5,0.3-7.4c0-1.1-0.2-2.2-0.3-3.3
	c-0.1-2.4-0.1-4.7-0.2-7.1c0-1.3,0-2.6,0-3.8c0-0.2,0.1-0.6,0.3-0.7S86,141.9,86.2,142.1z"/>
<path d="M86.8,18.2c0,0.2-0.2,0.4-0.4,0.8c-0.2-0.3-0.3-0.6-0.3-0.9c0-0.1,0.2-0.2,0.4-0.3C86.6,17.9,86.8,18.1,86.8,18.2z"/>
<path d="M86.3,20.9c0.1,0,0.4,0.3,0.4,0.4c-0.2,0.4-0.4,0.7-0.7,1c-0.1-0.5-0.3-0.7-0.2-0.9C86,21.1,86.1,21,86.3,20.9z"/>
<path d="M86.2,25c0.1,0.2-0.3,0.5-0.5,0.8c-0.3-0.4-0.5-0.8-0.8-1.2l0.5-1C85.7,24,86,24.5,86.2,25z"/>
<path d="M85.2,28.4c0.3,0.3,0.5,0.5,0.5,0.6c-0.1,0.4-0.3,0.7-0.5,1c-0.2-0.2-0.5-0.5-0.5-0.7S85,28.9,85.2,28.4z"/>
<path d="M85.7,27.2c0,0.2,0,0.2,0,0.3s-0.3,0.3-0.5,0.2c-0.7-0.2-1.3-0.5-1.9-0.8c0.2-0.3,0.4-0.7,0.7-1
	C84.6,26.4,85.2,26.8,85.7,27.2z"/>
<path d="M85.4,16.4c0,0,0.4,0.3,0.7,0.5c-0.5,0.6-0.9,1.1-1.3,1.6c-0.2-0.1-0.4-0.3-0.5-0.4C84.6,17.4,85,16.9,85.4,16.4z"/>
<path d="M85,14.3c0.1,0.2,0.1,0.4,0.2,0.6c-0.1,0.3-0.2,0.6-0.3,0.8c-0.2-0.1-0.4-0.2-0.4-0.3c0-0.3,0-0.6,0.1-0.9
	C84.6,14.5,84.9,14.4,85,14.3z"/>
<path d="M85.1,14.3L85.1,14.3L85.1,14.3z"/>
<path class="st3" d="M84.9,181.6c0.1,1.2-0.7,0.9-1.3,0.9c-2.9-0.3-5.8-0.4-8.7-0.3c-4.2,0.3-8-0.9-11.8-2.3
	c-0.2-0.1-0.4-0.6-0.4-0.9c0-0.5,0.1-1,0.3-1.5h0.2c2,0.6,3.9,1.3,5.9,1.9c2.5,0.8,5.1,1.2,7.7,1.1c2.5-0.2,4.9-0.2,7.1-1.6
	c0.2,0,0.4,0,0.5,0.1C84.6,179.9,84.8,180.7,84.9,181.6z"/>
<path d="M84.8,21.9c0.2,0,0.4,0.3,0.7,0.5c-0.3,0.2-0.5,0.5-0.7,0.5c-0.2-0.1-0.4-0.3-0.5-0.6C84.2,22.2,84.6,21.9,84.8,21.9z"/>
<path d="M84.9,20.6c-0.1,0.3-0.2,0.5-0.4,0.8c-0.3-0.3-0.6-0.5-0.5-0.6c0.1-0.2,0.3-0.4,0.5-0.5C84.6,20.2,84.9,20.5,84.9,20.6z"/>
<path d="M84.5,32.1l0.7,0.6l-0.8,0.9c-0.2-0.2-0.4-0.5-0.4-0.7S84.3,32.4,84.5,32.1z"/>
<path class="st3" d="M84.5,186.6c0.4,0.6-0.5,1.3-1.7,1.5l-4.5,0.6c-5.2-0.4-10.1-0.8-14.8-2.3c-0.9-0.4-1.3-1.4-1-2.3
	c0,0,0,0,0-0.1c0.1-0.2,0.7-0.2,1-0.1c2.4,0.6,4.7,1.4,7,1.9c1.1,0.2,2.3,0.4,3.4,0.4c2.2,0.1,4.3,0.1,6.5,0c0.7,0,1.3-0.5,1.9-0.4
	S84.2,186.1,84.5,186.6z"/>
<path d="M85.1,31.1c-0.2,0.2-0.5,0.5-0.5,0.4c-0.2-0.1-0.4-0.3-0.4-0.5c0-0.1,0.2-0.3,0.3-0.5L85.1,31.1z"/>
<path d="M84.9,37.1L84,37.9c-0.2-0.2-0.5-0.5-0.5-0.8s0.3-0.5,0.6-0.5S84.5,36.9,84.9,37.1z"/>
<path d="M84.2,23.7c0.1,0.2,0.4,0.3,0.4,0.5s-0.2,0.4-0.4,0.6c-0.2-0.2-0.5-0.5-0.5-0.6S84,23.9,84.2,23.7z"/>
<path d="M83.4,29c0,0,0.3,0.3,0.2,0.4c-0.1,0.3-0.3,0.5-0.5,0.7c-0.2-0.3-0.4-0.6-0.4-0.7C83,29.2,83.2,29.1,83.4,29z"/>
<path d="M83.4,34.5l0.7,0.6l-0.8,0.6c-0.1-0.2-0.3-0.4-0.2-0.6C83.1,35,83.2,34.7,83.4,34.5z"/>
<path d="M83.1,40.6c0.1,0.2,0.2,0.4,0.2,0.6c-0.1,0.2-0.2,0.6-0.3,0.6c-0.3,0-0.6-0.1-0.8-0.3C81.8,41,81.4,40.5,81,40
	c-0.1-0.2-0.2-0.5-0.1-0.8c0-0.1,0.5-0.3,0.6-0.2C82.1,39.5,82.6,40.1,83.1,40.6z"/>
<path d="M83,167.9c0.1-0.1,0.4,0.1,0.7,0.3c-0.3,0.2-0.5,0.5-0.7,0.5s-0.3-0.2-0.5-0.3C82.7,168.2,82.8,168,83,167.9z"/>
<path d="M83.1,31.6c-0.1,0.3-0.2,0.6-0.3,0.8c-0.2-0.4-0.4-0.6-0.4-0.7s0.3-0.4,0.4-0.6C82.8,31.3,83.1,31.4,83.1,31.6z"/>
<path d="M83.3,33.7c-0.4,0.2-0.6,0.4-0.8,0.3s-0.4-0.3-0.6-0.5c0.2-0.2,0.5-0.4,0.7-0.5C82.8,33,83,33.4,83.3,33.7z"/>
<path d="M82.4,172.8c0.2,0,0.4,0.3,0.8,0.6c-0.3,0.1-0.7,0.2-1,0.3c-0.1,0-0.3-0.4-0.3-0.4S82.3,172.8,82.4,172.8z"/>
<path d="M81.7,44.3c0.2,0.3,0.5,0.8,0.4,1c-0.3,0.5-0.7,0.9-1.1,1.3c-0.1-0.2-0.4-0.5-0.4-0.7c0.2-0.5,0.4-1.1,0.7-1.6L81.7,44.3z"
	/>
<path d="M82.1,37.7c0,0.2-0.2,0.5-0.3,0.9l-0.8-0.9c0.2-0.2,0.4-0.4,0.6-0.4C81.8,37.3,82,37.5,82.1,37.7z"/>
<path d="M82.7,35.8c-0.4,0.3-0.6,0.5-0.8,0.5s-0.5-0.3-0.5-0.4s0.3-0.6,0.4-0.6S82.2,35.5,82.7,35.8z"/>
<path d="M81.9,43.2l-0.4,0.4l-0.7-0.9l0.2-0.2L81.9,43.2z"/>
<path d="M81.7,153.1c0.1,0,0.3,0.2,0.7,0.4c-0.4,0.2-0.6,0.4-0.8,0.4s-0.3-0.2-0.5-0.3C81.3,153.4,81.5,153.2,81.7,153.1z"/>
<path d="M80.9,47.5l0.7,0.9c-0.3,0.2-0.7,0.7-1.1,0.7s-0.6-0.4-0.9-0.7L80.9,47.5z"/>
<path d="M80.9,160c0.1-0.1,0.3,0.2,0.7,0.4c-0.3,0.2-0.6,0.4-1,0.5c-0.1,0-0.3-0.2-0.5-0.3C80.4,160.4,80.6,160.2,80.9,160z"/>
<path d="M80.6,41.7c0.1,0.3,0.2,0.6,0.4,0.9l-0.2,0.2L80.2,42L80.6,41.7z"/>
<path d="M81.3,169.8l-0.9,0.6l-0.7-0.7c0.2-0.2,0.5-0.5,0.7-0.5C80.7,169.4,81,169.5,81.3,169.8z"/>
<path d="M80.4,164.5c0.2,0,0.4,0.3,0.8,0.6c-0.4,0.3-0.7,0.5-1,0.5s-0.5-0.4-0.5-0.6C79.8,164.7,80.1,164.5,80.4,164.5z"/>
<path d="M80.3,50.6c0,0.4,0,0.8-0.2,1c-0.3,0.2-0.7,0.4-1.1,0.4c-0.5,0.1-1,0.1-1.5,0c-0.2,0-0.4-0.3-0.6-0.5l0.9-0.5l0.2,0.3
	c0.4-0.3,0.8-0.5,1.2-0.7C79.6,50.6,79.9,50.6,80.3,50.6z"/>
<path d="M80.2,176.8c0,0.1-0.4,0.6-0.5,0.5c-0.4-0.2-0.7-0.4-1-0.6l0.8-0.9C79.8,176.1,80,176.5,80.2,176.8z"/>
<path d="M80.1,43.8c0.2,0,0.3,0.2,0.5,0.5c-0.3,0.2-0.4,0.4-0.6,0.6c-0.2-0.2-0.3-0.5-0.3-0.7C79.6,44,79.9,43.8,80.1,43.8z"/>
<path d="M79.7,173.9c0,0.1-0.2,0.4-0.5,0.8l-1-0.9c0.2-0.1,0.5-0.4,0.7-0.4C79.2,173.5,79.5,173.7,79.7,173.9z"/>
<path d="M79.2,45.8c0.2,0.2,0.5,0.5,0.4,0.6c-0.1,0.3-0.3,0.5-0.5,0.7l-0.6-0.5L79.2,45.8z"/>
<path class="st6" d="M79,10.3c0.1,0.2,0.2,0.4,0.2,0.7c-0.4,0.6,0.2,1.8-1,1.9c-0.2,0-0.5-0.3-0.7-0.4L79,10.3z"/>
<path d="M78.8,48.3c0,0.2,0.2,0.5,0.2,0.6c-0.1,0.3-0.3,0.5-0.5,0.7C78.3,49.4,78,49.2,78,49s0.2-0.3,0.4-0.5L78.8,48.3z"/>
<path class="st7" d="M79,7.4c0,0.3-0.1,0.5-0.2,0.7c-1.2,2.9-3.2,5.3-5.7,7.2c-0.7,0.7-1.3,1.4-1.8,2.2l-0.5,0.6
	c0-0.3-0.1-0.5-0.1-0.8c0-0.1,0-0.2,0-0.3c0.5-5.1,2.9-7.6,7.5-9.6C78.5,7.4,78.7,7.4,79,7.4z"/>
<path d="M78.8,54.1c0.2,0.1,0.2,1-0.6,0.8c-0.2-0.1-0.3-0.1-0.5,0c-0.3,0.1-0.5,0.3-0.8,0.5l-0.7-1.3c0-0.1,0-0.2,0.1-0.2
	c0.2-0.1,0.5-0.2,0.7-0.2C77.6,53.7,78.2,53.8,78.8,54.1z"/>
<path d="M77.5,175.2c0.1,0,0.3,0.2,0.5,0.4l-0.8,0.9c-0.2-0.3-0.4-0.6-0.4-0.6C77,175.6,77.2,175.3,77.5,175.2z"/>
<path class="st6" d="M77.9,14.2c-0.2,0.3-0.3,0.8-0.5,1c-0.5,0.2-1,0.4-1.5,0.5c0,0,0-0.1,0-0.1c-0.3,0-0.5,0-0.8,0
	c-0.1,0-0.2-0.2-0.3-0.3c0.7-0.5,1.4-1,2.2-1.5C77.2,13.7,77.6,14.1,77.9,14.2z"/>
<path d="M76.9,172.9c0,0.1-0.1,0.3-0.2,0.4c-0.3,0.2-0.7,0.3-1,0.4c-0.1,0-0.2-0.3-0.4-0.5c0.3-0.2,0.6-0.4,0.9-0.6
	C76.4,172.6,76.7,172.8,76.9,172.9z"/>
<path d="M76.6,168.2c0,0,0.3,0.2,0.6,0.5c-0.2,0.2-0.5,0.4-0.8,0.5c-0.1,0-0.3-0.2-0.5-0.3C76.1,168.7,76.4,168.4,76.6,168.2z"/>
<path d="M76.3,156.3c0.2,0,0.4,0.2,0.8,0.5c-0.5,0.2-0.7,0.5-0.9,0.4s-0.4-0.3-0.7-0.5C75.7,156.6,76,156.4,76.3,156.3z"/>
<path d="M75.8,162c0.2,0,0.4,0.3,0.8,0.6c-0.3,0.2-0.6,0.5-0.9,0.6c-0.1,0-0.5-0.4-0.5-0.6C75.3,162.3,75.5,162.1,75.8,162z"/>
<path d="M76,178.3l-0.9,0.7l-0.8-0.7c0.3-0.2,0.5-0.5,0.8-0.5S75.7,178.1,76,178.3z"/>
<path class="st6" d="M75.1,16.5c0.1,0,0.2,0.4,0.2,0.4c-0.8,0.4-1.6,0.8-2.2,1.2l-0.8-0.2l0.2-0.5C73.1,16.1,74.1,16.5,75.1,16.5z"
	/>
<path d="M75.7,175.9l-0.7,0.6c-0.2-0.2-0.4-0.4-0.6-0.7c0-0.1,0.3-0.5,0.5-0.5S75.4,175.7,75.7,175.9z"/>
<path d="M73.8,176.5c-0.1,0.2-0.3,0.4-0.5,0.6c-0.1,0.1-0.3-0.2-0.6-0.4c0.3-0.2,0.5-0.4,0.7-0.5S73.6,176.4,73.8,176.5z"/>
<path d="M72.5,167c0.1-0.1,0.3,0.1,0.8,0.3c-0.3,0.2-0.6,0.4-0.9,0.6c-0.1,0-0.3-0.2-0.5-0.4C72,167.3,72.2,167.1,72.5,167z"/>
<path d="M71.9,170.2c0.2,0.3,0.5,0.5,0.4,0.6s-0.3,0.4-0.5,0.5c-0.2-0.2-0.4-0.4-0.5-0.7C71.5,170.5,71.7,170.3,71.9,170.2z"/>
<path d="M71.7,176.1c0.1,0,0.3,0.2,0.6,0.5c-0.3,0.2-0.6,0.3-0.9,0.5c-0.1,0-0.3-0.3-0.3-0.3C71.3,176.5,71.5,176.3,71.7,176.1z"/>
<path d="M71.2,173.6c0.2,0.3,0.5,0.5,0.4,0.6c-0.2,0.2-0.4,0.4-0.6,0.6c-0.1-0.2-0.4-0.4-0.3-0.5S71,173.8,71.2,173.6z"/>
<path d="M71.6,163.5c0,0.2-0.3,0.5-0.6,0.9c-0.2-0.4-0.3-0.8-0.5-1.2c0-0.1,0.4-0.3,0.5-0.3S71.6,163.3,71.6,163.5z"/>
<path class="st7" d="M70.9,24.1c0.1,0.2,0.1,0.3,0.2,0.5c0,0.3-0.2,0.5-0.1,0.8c0.4,3.4-2,4.9-4.3,6.5c-0.1,0.1-0.3,0.1-0.4,0.2
	c-0.1,0-0.2-0.1-0.3-0.1c0-0.2,0.1-0.4,0.2-0.5c1.1-1.5,2.2-3.1,3.2-4.6c0.5-0.7,0.8-1.5,1.2-2.3C70.6,24.4,70.7,24.3,70.9,24.1z"/>
<path d="M69.9,174.9c0.1,0.2,0.2,0.4,0.2,0.5c-0.1,0.3-0.3,0.5-0.5,0.7c-0.1-0.1-0.3-0.3-0.3-0.4c0.1-0.2,0.2-0.4,0.3-0.6
	L69.9,174.9z"/>
<path class="st6" d="M69.6,23.1c0,0,0.3,0.3,0.3,0.3c-0.2,0.5-0.5,0.9-0.8,1.3c-0.1,0.1-0.6-0.2-1.1-0.4
	C68.6,23.8,69.1,23.4,69.6,23.1z"/>
<path d="M69.7,166.6c0.2,0,0.3,0.4,0.7,0.7c-0.3,0.1-0.7,0.2-1,0.2c-0.1,0-0.3-0.4-0.3-0.4C69.2,166.9,69.5,166.6,69.7,166.6z"/>
<path d="M68.7,171.1c0.2,0.2,0.4,0.3,0.5,0.5l-2.1,1.7c-0.1-0.3-0.2-0.6-0.1-0.7C67.5,172.1,68.1,171.6,68.7,171.1z"/>
<path d="M67.7,168.8l0.3,0.4c-0.2,0.1-0.5,0.3-0.8,0.2s-0.4-0.3-0.6-0.5c0.2-0.2,0.3-0.4,0.6-0.5S67.5,168.6,67.7,168.8z"/>
<path class="st6" d="M67.9,17.3c-0.2,0-0.4,0-0.6,0c-0.6-0.2-1.2-0.4-1.8-0.6c-0.2-0.1-0.3-0.3-0.4-0.5c-0.1-1-0.2-2.1-0.3-3.4
	c0-0.1,0.1-0.5,0.2-0.8c0.3,0.2,0.5,0.4,0.7,0.7c0.7,1.3,1.4,2.7,2.1,4.1C67.8,17,67.9,17.2,67.9,17.3z"/>
<path class="st6" d="M67.5,25.7c0.2-0.1,0.7,0.4,1,0.6l-1.9,1.5c-0.3-0.4-0.7-0.8-0.7-0.8C66.4,26.6,66.9,26.1,67.5,25.7z"/>
<path class="st7" d="M68.4,18.9c-0.4,0.2-0.9,0.4-1.3,0.5c-1,0.3-2,0.5-2.9,0.7c-2.1-0.4-3.9-1.6-5-3.4c-0.8-1.3-1.6-2.7-2.2-4.2
	c-0.1-0.2,0-0.4,0-0.6c0.2,0.1,0.4,0.2,0.5,0.3c2.5,2.9,5.5,5.2,9.5,6.1C67.5,18.5,67.9,18.7,68.4,18.9z"/>
<path d="M67.2,175.6c0.2,0,0.5,0.2,1,0.5c-0.5,0.3-0.8,0.5-1,0.5s-0.4-0.3-0.4-0.5C66.8,175.9,67,175.7,67.2,175.6z"/>
<path d="M66.8,173.6c0.1,0.1,0.3,0.3,0.4,0.4c-0.2,0.2-0.4,0.4-0.6,0.6c-0.1,0-0.3-0.2-0.5-0.4L66.8,173.6z"/>
<path class="st6" d="M66.2,28.6c0.2,0.2,0.3,0.4,0.3,0.6c-0.3,0.5-0.7,1-1.1,1.4c-0.1,0.1-0.3,0.2-0.5,0.3l-0.2-0.5
	C64.8,29.1,65.3,28.4,66.2,28.6z"/>
<path d="M66.1,171.6l-0.4,0.6l-0.9-0.6c0.1,0,0.1-0.1,0.2-0.1L66.1,171.6z"/>
<path d="M64.6,174.7c0.1,0,0.3,0.2,0.6,0.4c-0.3,0.2-0.5,0.5-0.7,0.5s-0.3-0.3-0.5-0.5C64.2,175,64.3,174.8,64.6,174.7z"/>
<path class="st6" d="M62.5,10.3c0.8,0.4,1.5,0.9,1.3,2.1c0,0.8,0.1,1.7,0.2,2.5c-0.1,0.2-0.2,0.5-0.3,0.9c-0.6-0.6-1.4-1-1.7-1.7
	c-0.3-1.1-0.4-2.2-0.3-3.3C61.6,10.1,61.9,10,62.5,10.3z"/>
<path class="st6" d="M60.8,13l-0.2,0.7c-0.3-0.1-0.6-0.3-0.8-0.5c-1.1-1.3-2.1-2.7-3.1-4c0-0.1,0.2-0.5,0.4-0.5c0.4,0,0.8,0,1.2,0.1
	C60.6,9.3,60.7,9.6,60.8,13z"/>
<path class="st1" d="M49,52.8c-0.2,4.2-2.2,6.6-6.5,7c-3.2,0.4-6.4-1.1-8.2-3.9c-0.8-1.2-1.1-2.7-0.6-4.1c0.7-2.1,1.5-4.3,4-4.7
	c3.3-0.5,6.7-0.6,9.5,1.8C48.4,49.9,49,51.3,49,52.8z M47.1,56.4c2.6-4.1-0.5-7.5-3.8-8.1c-0.9-0.2-1.9-0.2-2.8-0.3
	c-2.2,0-2.2,0-4.1,1.4c-1.5,1.4-1.9,3.6-1,5.5c1.6,2.7,4.6,4.1,7.6,3.7C44.6,58.6,46.1,57.8,47.1,56.4L47.1,56.4z"/>
<path class="st1" d="M43.2,48.3c3.4,0.7,6.4,4,3.8,8.2c-0.9,1.3-2.4,2.1-4,2.2c-3.1,0.5-6.1-1-7.7-3.7c-0.9-1.8-0.5-4.1,1-5.5
	c1.8-1.4,1.8-1.5,4-1.4C41.4,48.1,42.3,48.1,43.2,48.3z"/>
<path d="M30.4,77.4c0.3,1.1,0.8,2.4-0.3,3.6c-0.3,0.3-0.1,1-0.1,1.6c-0.1,1.6-0.2,3.2-0.4,4.7c-0.1,0.7-0.3,1.5-0.6,2.2
	c-0.2,0.7-0.9,1.1-1.6,0.9c-0.1,0-0.3-0.1-0.4-0.2c-1.6-0.9-3.2-2-4.9-2.8c-4.5-2.2-7.9-5.8-11.3-9.3c-2-2-3.8-4.1-5.8-6.2
	c-1.3-1.3-3.8-5.8-3.8-7.1l1.4-6.2c0.4-1.1,0.6-2.2,0.7-3.3c0-1.7,1-2.8,2-3.8c1.7-1.8,3.5-3.4,5.4-5c0.9-0.9,2-1.6,3.2-2.2
	c1.7-0.8,2.9-0.4,3.6,1c1.5,2.9,2.9,5.7,4.2,8.7c1.9,4.3,3.6,8.6,5.3,12.9C28.3,70.4,29.4,73.9,30.4,77.4z M29,79.7
	c0.6-0.4,0.6-0.9,0.5-1.5c-1.1-4.4-2.5-8.7-4.3-12.8c-0.7-1.5-1.3-3.1-2-4.7c-0.1-0.2-0.2-0.5-0.4-0.5c-0.9,0-1-0.2-0.9-1
	c0.1-0.3,0.1-0.7,0.2-1c0-0.2,0-0.4-0.1-0.6c-1.4-3.2-2.8-6.5-4.4-9.7s-2.1-3.2-4.9-1.7c-0.2,0.1-0.3,0.2-0.5,0.3
	C9.9,48.8,7.4,51,5,53.3c-0.3,0.3-0.2,1.3,0,1.9s0.9,1.1,1.3,1.7c2.2,3.4,5.2,6.1,7.9,9c0.1,0.1,0.4,0,0.6,0l1.7-0.2
	c0,0.5,0.1,1.1-0.1,1.4c-0.4,0.6-0.3,0.9,0.2,1.4c1.5,1.5,3,3.2,4.5,4.7c2.1,2.2,4.3,4.3,6.5,6.4C27.9,80,28.5,80.1,29,79.7
	C29,79.7,29,79.7,29,79.7z M28.3,88.2c0.2-1.5,0.4-3,0.5-4.4h-0.1c0-0.6,0.2-1.2,0-1.6s-0.8-0.7-1.3-1c-0.2,0.3-0.4,0.7-0.5,1.1
	c-0.1,1.6-0.2,3.3-0.2,4.9c0,0.5,0,0.9,0.2,1.3c0.2,0.3,0.7,0.3,1,0.4C28.1,88.7,28.2,88.5,28.3,88.2z M26,82.2
	c0.4-1.5-0.3-3-1.6-3.7c-0.2-0.1-0.3-0.2-0.5-0.2c-0.1,0.1-0.1,0.3-0.1,0.4l-0.3,3.8h0.1c0,0.8,0,1.6,0,2.4
	c-0.1,1.2,0.5,2.3,1.5,2.8c0.2,0.1,0.4,0.2,0.6,0.3c0.1-0.2,0.1-0.4,0.1-0.7C25.8,85.6,25.8,83.9,26,82.2L26,82.2z M22.8,79.5
	c0.2-1.5,0.1-2.8-1.3-3.8c-0.6-0.5-1.1-1-1.5-1.7c0,0.9-0.1,1.7-0.1,2.6c0,0.2,0.1,0.4,0.1,0.6c0.2,2.4,0.3,4.8,0.5,7.2
	c0.1,0.6,1.1,1.6,1.8,1.4c0.2-0.1,0.3-0.8,0.4-1.2C22.7,82.9,22.6,81.2,22.8,79.5L22.8,79.5z M19.3,83.4c0-0.5-0.1-1-0.2-1.6
	c0-2.8,0-5.6-0.2-8.4c-0.1-0.6-0.4-1.2-0.8-1.7c-0.4-0.5-0.9-0.9-1.4-1.2c-0.5-0.4-0.8-0.3-0.8,0.4c0,0.9,0,1.8,0,3.2
	c0.1,1.5,0.3,3.5,0.2,5.5c0,1.7,0.9,3.3,2.4,4.1C19.1,84,19.3,83.8,19.3,83.4L19.3,83.4z M15.2,80.5c0.1-0.1,0.1-0.3,0.1-0.4
	c0-0.8-0.1-1.7-0.1-2.5c0-2.4,0.1-4.7,0-7.1c-0.1-0.9-0.3-1.7-0.8-2.5c-0.5-0.7-1-1.3-1.7-1.8c-0.1-0.1-0.2-0.2-0.3-0.3
	c-0.1,0.2-0.2,0.3-0.2,0.5c-0.1,2-0.2,4-0.4,5.9H12c0,1.2,0,2.4,0,3.6c0,0.6,0.1,1.2,0.4,1.8c0.8,0.9,1.6,1.8,2.4,2.6
	C15,80.4,15.1,80.4,15.2,80.5L15.2,80.5z M11.3,66.2c0.2-1.4-0.5-2-1.1-2.8C10,63.3,9.7,63.1,9.5,63c-0.1,0.3-0.3,0.6-0.3,0.9
	C9,66,8.9,68.1,8.8,70.1h0.1c-0.1,1.1-0.1,2.3,0.1,3.4c0.2,0.8,1.1,1.5,1.7,2.2c0.2-0.7,0.3-1.5,0.4-2.2
	C11.2,71.1,10.9,68.6,11.3,66.2z M8.1,64.5c0.2-1.8,0.3-3.4-1.3-4.7c-0.1-0.1-0.3-0.3-0.4-0.4c-0.1,0.2-0.2,0.4-0.2,0.6
	c-0.7,3.1-1,6.3-0.8,9.5c-0.1,1.4,1.1,1.8,1.6,2.6c0.1,0.2,0.4,0.3,0.6,0.5c0.1-0.3,0.2-0.6,0.2-0.8C7.9,69.3,7.8,66.9,8.1,64.5z
	 M5.4,58.4c0.1-0.6-0.6-1.3-1-1.9c-0.2,0.5-0.4,1-0.5,1.4c0,0.1-0.1,0.1-0.1,0.2c-0.5,2.1-0.9,4.2-1.4,6.6c0.4,1,0.9,2.1,1.4,3.2
	c0,0.1,0.2,0.2,0.3,0.2s0.3-0.2,0.3-0.3c0-0.8,0-1.6,0.1-2.4C4.7,63.2,5.1,60.8,5.4,58.4z"/>
<path class="st8" d="M29.5,78.3c0.1,0.6,0.2,1-0.5,1.5c-0.4,0.3-1.1,0.3-1.4-0.2c0,0,0,0,0,0c-2.2-2.1-4.3-4.2-6.5-6.4
	c-1.5-1.6-3-3.2-4.5-4.7c-0.5-0.5-0.6-0.8-0.2-1.4c0.2-0.3,0.1-1,0.1-1.4l-1.7,0.2c-0.2,0-0.6,0.2-0.6,0c-2.7-2.9-5.7-5.6-7.9-9
	c-0.4-0.6-1-1.1-1.3-1.7s-0.3-1.6,0-1.9c2.4-2.3,4.8-4.5,7.3-6.7c0.1-0.1,0.3-0.2,0.5-0.3c2.8-1.5,3.3-1.4,4.9,1.8s3,6.5,4.4,9.7
	c0.1,0.2,0.1,0.4,0.1,0.6c-0.1,0.3-0.2,0.7-0.2,1c-0.1,0.9,0,1,0.9,1c0.1,0,0.3,0.3,0.4,0.5c0.7,1.6,1.3,3.1,2,4.7
	C27,69.6,28.4,73.9,29.5,78.3z M28,77c-0.5-0.4-0.8-0.8-0.9-0.8c-0.4,0.2-0.8,0.4-1.1,0.7c0.3,0.2,0.5,0.6,0.8,0.6S27.5,77.3,28,77z
	 M26.4,72.8c0.1-0.2-0.4-1-0.6-1c-0.4,0-0.8,0.4-1.5,0.8c0.6,0.6,0.9,1.1,1.1,1C25.8,73.6,26.2,73.3,26.4,72.8L26.4,72.8z
	 M24.4,67.5c-0.3-0.4-0.6-0.7-0.8-0.9c-0.3,0.4-0.6,0.7-0.8,1.2c-0.1,0.2,0.4,0.6,0.6,0.8L24.4,67.5z M21.3,71.3
	c0.3-0.3,0.8-0.7,0.8-1.1s-0.4-0.9-0.7-1.3L20,70L21.3,71.3z M20.7,65.4l1.5-1.3c-0.7-0.4-1.1-0.9-1.5-0.8s-1,0.6-0.9,0.8
	C20.1,64.5,20.4,65,20.7,65.4L20.7,65.4z M16.6,53.4c0.6,0.2,1.5-0.9,1.5-2c-0.2-0.2-0.7-0.8-1-0.7c-0.8,0.1-1.8,0.3-1.6,1.4
	C15.7,52.6,16.1,53.1,16.6,53.4L16.6,53.4z M19.1,58.5c-0.6-0.3-1-0.6-1.2-0.6s-0.5,0.4-0.8,0.7c0.2,0.2,0.5,0.6,0.7,0.6
	C18.3,59,18.7,58.8,19.1,58.5L19.1,58.5z M14.6,60.2c-0.4-0.4-0.8-1.2-1.2-1.2c-1.1,0-0.9,1.2-1.3,2c0,0.1,0.5,0.8,0.8,0.8
	c0.8,0.1,1.6-0.4,1.7-1.3C14.6,60.4,14.6,60.3,14.6,60.2L14.6,60.2z M13.5,54.2c0-0.3-0.4-0.6-0.7-0.9L12.4,53
	c-0.2,0.3-0.5,0.8-0.4,1c0.2,0.4,0.5,0.8,0.9,1.1C13.1,54.8,13.6,54.5,13.5,54.2L13.5,54.2z M13.5,49.9c-0.5-0.2-0.8-0.5-0.9-0.4
	c-0.3,0.2-0.5,0.4-0.7,0.7c0.2,0.1,0.4,0.4,0.5,0.4C12.8,50.3,13.1,50.2,13.5,49.9L13.5,49.9z M9.8,55.4c-0.6-0.6-1.2-1.3-1.4-1.3
	c-0.6,0.3-1.1,0.7-1.3,1.3c-0.2,0.5,0.1,1.1,0.7,1.2c0.2,0.1,0.4,0.1,0.5,0C8.8,56.6,9.2,56,9.8,55.4z"/>
<path d="M27.1,76.2c0.1,0,0.5,0.4,0.9,0.8c-0.6,0.3-0.9,0.6-1.2,0.6S26.3,77.2,26,77C26.3,76.7,26.7,76.4,27.1,76.2z"/>
<path d="M25.8,71.9c0.2,0,0.7,0.8,0.6,1c-0.2,0.4-0.6,0.7-1,0.9c-0.2,0-0.6-0.5-1.1-1C25,72.3,25.4,71.9,25.8,71.9z"/>
<path class="st9" d="M23.2,136c1.9,0.6,2.5,1.8,1.8,3.9c-1.3,3.6-5.2,4.5-7.9,1.7c-0.4-0.6-0.6-1.2-0.8-1.9c0.1-1.1,0.6-2.1,1.6-2.7
	C19.4,135.9,21.3,135.5,23.2,136z M23.6,140.9c0.9-1.1,0.8-3.1-0.3-3.4c-0.7-0.2-1.4-0.4-2.1-0.5c-0.5,0-1.1,0.1-1.6,0.3
	c-1,0.3-1.8,1.1-1.9,2.2c-0.1,1.3,0.9,1.6,1.7,2c0.3,0.2,0.7,0.3,1.1,0.4C21.7,142.1,22.9,141.7,23.6,140.9L23.6,140.9z"/>
<path class="st1" d="M23.4,137.4c1,0.4,1.2,2.3,0.3,3.4c-0.8,0.9-2,1.3-3.1,0.9c-0.4-0.1-0.8-0.2-1.1-0.4c-0.8-0.4-1.8-0.7-1.7-2
	c0.1-1,0.9-1.9,1.9-2.2c0.5-0.2,1-0.3,1.6-0.3C22,137,22.7,137.2,23.4,137.4z"/>
<path d="M23.7,66.6c0.2,0.3,0.5,0.5,0.8,0.9l-1,1.1c-0.2-0.3-0.6-0.6-0.6-0.8C23.1,67.4,23.4,67,23.7,66.6z"/>
<path d="M23.7,121.1c0.3,3.5-2.1,5.6-6,6.3c-2.7,0.5-6.4-2.3-7-5.3c-0.3-1.3,1.1-5.2,2.2-5.3c1.8-0.2,3.1-1.5,4.8-1.5
	c1.2-0.1,2.3,0.1,3.4,0.5C23.4,116.9,23.5,119.1,23.7,121.1z M22.5,121.7c0.1-0.5,0.1-1,0-1.4c-0.1-0.6-0.4-1.2-0.6-1.8
	c-0.4-1.2-2.4-2.5-3.6-2.1c-1.6,0.5-3.1,1.2-4.6,2c-1.5,0.7-2.1,2.5-1.4,4c0,0.1,0.1,0.1,0.1,0.2c1.4,3.2,3.9,4.2,7.1,3.1
	C21.9,124.9,22.5,124.1,22.5,121.7L22.5,121.7z"/>
<path d="M21.5,96.5c2,2,2.5,4.9,1.2,7.4c-1.5,2.8-6,5-8.8,4c-2.3-0.9-4.3-2.4-5.6-4.4c-0.5-0.7-0.4-1.9-0.6-2.8
	c-0.1-2.2,0.8-4.3,2.3-5.8c1-1,2.4-1.6,3.9-1.4C16.7,93.5,19.4,94.6,21.5,96.5z M16.6,107.1c3.2-0.6,6-2.1,5.7-5.6
	c0.1-1.6-0.5-3.2-1.7-4.4c-2.2-2.2-5.1-2.7-8-2.6c-0.7,0.1-1.4,0.4-1.9,1c-2.2,2.3-2.4,5.9-0.5,8.5c0.8,0.7,1.6,1.4,2.5,2
	C13.7,107,15.2,107.4,16.6,107.1z"/>
<path class="st1" d="M22.5,120.3c0.1,0.5,0.1,1,0,1.4c0,2.4-0.6,3.2-3,4c-3.2,1.1-5.7,0.1-7.1-3.1c-0.8-1.4-0.3-3.3,1.1-4.1
	c0.1,0,0.1-0.1,0.2-0.1c1.5-0.8,3-1.5,4.6-2c1.2-0.4,3.2,0.8,3.6,2.1C22.1,119.1,22.4,119.7,22.5,120.3z"/>
<path class="st1" d="M22.3,101.5c0.3,3.5-2.5,5-5.7,5.6c-1.4,0.3-2.8-0.1-3.9-1.1c-0.9-0.6-1.7-1.3-2.5-2c-2-2.6-1.8-6.2,0.5-8.5
	c0.5-0.6,1.2-0.9,1.9-1c2.9,0,5.8,0.4,8,2.6C21.8,98.3,22.4,99.9,22.3,101.5z"/>
<path d="M22.1,70.3c0,0.3-0.5,0.7-0.8,1.1L20,70l1.4-1C21.7,69.4,22.1,69.8,22.1,70.3z"/>
<path d="M22.2,64.1l-1.5,1.3c-0.4-0.4-0.7-0.9-1-1.4c0-0.1,0.6-0.8,0.9-0.8S21.5,63.6,22.2,64.1z"/>
<path d="M18.1,51.4c0,1.1-0.8,2.2-1.5,2c-0.6-0.3-1-0.8-1.2-1.4c-0.2-1.1,0.8-1.3,1.6-1.4C17.5,50.6,17.9,51.2,18.1,51.4z"/>
<path d="M17.9,58c0.3,0,0.6,0.3,1.2,0.6c-0.4,0.3-0.9,0.5-1.3,0.7c-0.2,0-0.5-0.4-0.7-0.6C17.4,58.4,17.6,58,17.9,58z"/>
<path d="M13.5,59c0.4,0,0.8,0.8,1.2,1.2c0,0.8-0.6,1.5-1.4,1.6c-0.1,0-0.2,0-0.3,0c-0.3,0-0.8-0.6-0.8-0.8
	C12.5,60.2,12.3,59,13.5,59z"/>
<path d="M12.9,53.3c0.2,0.3,0.7,0.6,0.7,0.9s-0.4,0.6-0.7,0.9c-0.4-0.3-0.7-0.7-0.9-1.1c-0.1-0.2,0.3-0.7,0.4-1L12.9,53.3z"/>
<path d="M12.6,49.5c0.1-0.1,0.4,0.2,0.9,0.4c-0.3,0.2-0.7,0.4-1.1,0.6c-0.1,0-0.3-0.2-0.5-0.4C12.1,49.9,12.4,49.7,12.6,49.5z"/>
<path d="M8.4,54.2c0.2-0.1,0.8,0.7,1.4,1.3c-0.6,0.6-1,1.2-1.5,1.3c-0.5,0.1-1.1-0.2-1.2-0.7c0-0.2,0-0.4,0-0.5
	C7.4,54.9,7.8,54.4,8.4,54.2z"/>
<path class="st10" d="M49,52.8c-0.2,4.2-2.2,6.6-6.5,7c-3.2,0.4-6.4-1.1-8.2-3.9c-0.8-1.2-1.1-2.7-0.6-4.1c0.7-2.1,1.5-4.3,4-4.7
	c3.3-0.5,6.7-0.6,9.5,1.8C48.4,49.9,49,51.3,49,52.8z"/>
<path class="st11" d="M33.2,171.6c-0.1,0.3-0.2,0.6-0.4,0.9c0,0.2-0.1,0.3-0.2,0.4c-0.6,0.8-1.2,0.9-2.2,0.3
	c-1.2-0.7-2.5-1.3-3.6-2.1c-1.7-1.1-3.3-2.4-5-3.6c-1.7-1.2-3.4-2.5-4.9-4c-0.9-1.1-1.7-2.4-2.1-3.7c-1-2.3-0.9-2.4,1.5-3.3
	c0.5-0.3,1-0.4,1.6-0.4c0.8,0.1,1.6,0.5,0.9,2c0,0.9,0,2,0,3.2c0,1,0.8,1.7,1.7,1.7c0.2,0,0.4,0,0.5-0.1c0.7-0.1,1.4-0.1,2.1-0.2
	s1,0.4,0.9,1c-0.1,0.6-0.1,1.3-0.1,1.9c0,0.9,0.7,1.6,1.6,1.6c0,0,0,0,0,0c0.8,0.1,1.6,0,2.3-0.2c1.6-0.5,2.7,0,2.6,2
	c0,0.8-0.3,1.6,0.4,2.3c0.4,0.5,0.8,0.7,1.4,0.4C32.6,171.7,32.9,171.6,33.2,171.6z"/>
<path d="M56.8,145.6c0.2,1,0.3,2,0.4,2.7c-0.1,2-0.7,3.9-1.7,5.6c-1,1.9-2.1,3.7-3.2,5.6c-0.8,1.4-1.7,2.6-2.6,4
	c-1.3,1.9-2.5,3.7-3.8,5.6c-1.2,1.7-2.4,3.3-3.6,5s-2.3,3.2-3.5,4.6c-1.3,1.4-2.6,2.7-4,3.9c-0.7,0.6-1.4,0.3-2.1-0.2
	c-0.6-0.4-1.3-0.7-2-0.8c-1.2-0.4-2.5-0.5-3.8-0.9c-2.5-0.8-5-1.7-7.4-2.7c-1.3-0.6-2.5-1.3-3.7-2.1c-1.3-1-2.6-2.1-3.7-3.2
	c-0.9-0.9-1.2-2.2-0.9-3.4c0-0.2,0-0.4,0-0.6c-0.3-2.1,0.3-4,0.7-6c0.3-1.3,0.5-2.6,0.7-3.9c0.1-1.3,1.1-2.3,2.3-2.5
	c2.4-0.7,4.4-2.1,6.6-3.2c0.8-0.4,1.8-0.6,2.6-1.1c1.8-0.9,3.6-1.9,5.4-2.9c4.2-2.3,8.5-4.2,13.1-5.6c3.3-1.2,6.7-2.3,10-3.7
	c2-0.8,3.1,0,3.2,2.1C56,142.9,56.3,144.3,56.8,145.6z M56,148.9c-0.3-1.5-0.7-2.9-1-4.2c0-0.2-0.2-0.3-0.3-0.4l-0.2,0.4
	c-0.9,1.3-1.7,2.7-2.6,4c-2.8,4.1-5.6,8.2-8.5,12.2c-1.4,2-2.8,3.9-4.3,5.8c-2,2.5-4,5-6,7.5c-0.3,0.5-0.3,1.1-0.2,1.6
	c0.5,1.6,1.5,3,0.9,4.8c0,0.3,0,0.6,0,0.9c0.4,0,0.8-0.1,1.2-0.2c0.2-0.1,0.4-0.3,0.6-0.6c1.1-1.3,2.2-2.7,3.3-4
	c1.4-1.8,2.9-3.6,4.2-5.5s2.6-3.9,3.9-5.9c2.6-4,5.2-8,7.7-12.1C55.3,151.6,55.7,150.3,56,148.9z M53.9,141.7
	c0.1-0.4,0.3-0.9,0.2-1.1c-0.3-0.3-0.7-0.3-1.1-0.2c-1.9,0.7-3.7,1.4-5.6,2.2c-0.1,0-0.2,0.2-0.3,0.3c0.1,0.1,0.3,0.1,0.4,0.2
	c1.4,0.3,2,0.9,1.9,2.1c-0.3,0.6-0.1,0.7,0.5,0.7c0.4-0.1,0.8,0,1.1,0.2c0.8,0.5,1.2,0.2,1.4-0.5c0.1-0.3,0.3-0.5,0.4-0.7
	C53.3,143.8,53.6,142.8,53.9,141.7L53.9,141.7z M50.2,149c0.7-1.3,0.4-1.9-1.1-1.9c-1,0-1.1-0.4-1.1-1.2s0-1.6-1-1.7
	c-1.3-0.1-2.7-0.9-4.1-0.1c-0.2,0.1-0.4,0.2-0.6,0.3c0.2,0.1,0.3,0.3,0.5,0.4c0.6,0.4,1.5,0.7,1.8,1.2c0.3,0.7,0.4,1.5,0.2,2.2
	c-0.1,0.7,0.1,1.2,0.8,1.1c1.1-0.3,2.4-0.1,3.3,0.6c0.1,0.1,0.2,0.1,0.4,0.2C49.7,149.8,50,149.4,50.2,149z M47.5,153
	c0.8-1.7,0.2-2.6-1.6-2.6h-0.5c-1.9-0.1-2.5-0.8-1.7-2.5c0.3-0.5,0.2-1.1-0.2-1.4c0,0-0.1-0.1-0.1-0.1c-1-0.7-2-1.4-3.3-1.1
	c-0.9,0.2-1.7,0.6-2.5,0.9c-0.2,0.1-0.5,0.2-0.7,0.4c0.2,0.1,0.4,0.2,0.7,0.3c0.6,0.2,1.2,0.3,1.8,0.5c1.7,0.6,1.9,1.1,1.5,2.8
	s-0.2,1.9,1.6,1.7c0.2,0,0.4,0,0.7,0c1.5-0.1,2.3,0.2,2.7,1.1c0.2,0.6,0.4,1.1,0.6,1.7C46.7,154.1,47.1,153.6,47.5,153
	C47.4,153.1,47.5,153,47.5,153z M44.5,155.5c0.2-1.9-0.2-2.5-2.2-2.5l-0.3,0c0,0,0,0.1,0,0.1c-0.7-0.1-1.3-0.2-2-0.3
	c-0.9-0.2-1.2-0.7-0.8-1.5c0.1-0.3,0.2-0.6,0.3-0.9c0.5-1.4,0.3-1.5-1-2.1c-0.3-0.1-0.5-0.2-0.8-0.2c-1.2-0.2-2.4-0.3-3.5-0.3
	c-0.5,0-1.1,0.5-1.6,0.8l1.6,0.7c1.4,0.6,1.9,1.4,1.6,2.7c-0.2,0.5-0.3,1.1-0.3,1.6c0,0.3,0.3,0.9,0.6,0.9c1.2,0.2,2.5,0.4,3.7,0.4
	c0.9-0.1,1.8,0.5,2.2,1.4c0.3,1,0.6,1.9,0.8,2.9c0,0.2,0.1,0.3,0.1,0.5l0.3-0.4C44,158.3,44.5,156.9,44.5,155.5L44.5,155.5z
	 M40.2,163.1c1.3-2,1.2-4.6-0.1-6.5c-0.2-0.3-0.4-0.5-0.7-0.6c-1.3-0.2-2.6-0.4-3.9-0.6c-0.8-0.1-1.5-0.2-1.4-1.3
	c0.1-0.7,0.2-1.5,0.3-2.2c0.2-0.6-0.1-1.3-0.7-1.5c-0.1,0-0.2-0.1-0.3-0.1c-1-0.1-1.9-0.1-2.9-0.1c-0.4,0-0.8,0.2-1.2,0.3
	c-0.2,0.1-0.3,0.3-0.5,0.4c0.2,0.1,0.4,0.1,0.6,0.2c2,0.2,3,1.2,3.2,3.3c0.2,2,1,3,3.2,3s3.3,1.2,3.2,3.8c0.1,0.4,0.2,1.1,0.3,1.8
	S39.9,163.6,40.2,163.1L40.2,163.1z M39,164.7c0-0.1,0-0.3,0-0.4c-1.2-0.1-1-1.2-1.2-1.9c-0.1-0.5-0.1-1,0-1.6
	c0.2-1.2-1-2.3-2.7-2.3c-1.9,0-3.6-1-3.6-3.1c0-2.6-1.7-3.8-4.3-3c-0.3,0.1-0.6,0-0.9-0.1c-0.1-0.7-0.5-0.4-0.8-0.2
	s-0.9,0.4-1.3,0.6l-0.4,0.2c0.1,0.1,0.3,0.2,0.4,0.3c2.1,0.7,2.1,0.7,2.2,2.8c0,0.5,0,0.9,0,1.4c0.1,1.5,1.4,2.7,2.9,2.7
	c0.2,0,0.3,0,0.5-0.1c1.1-0.3,2.2,0.3,2.6,1.4c0.1,0.2,0.1,0.5,0.1,0.7c-0.1,2.5,0.5,2.3,2.5,2.1c0.2,0,0.3-0.1,0.5-0.1
	c0.8,0.1,1.5,0.5,1.6,1.4c0,0.4,0,0.9,0,1.4l0.9-1.1C38.4,165.4,38.7,165.1,39,164.7z M35.7,167.1c0.6-1.5,0.3-1.8-1.2-1.9
	c-0.2,0-0.5,0.1-0.7,0.1c-1.1,0.2-2.1-0.4-2.4-1.5c0-0.2-0.1-0.4,0-0.6c0-2-0.3-2.3-2.3-2.1c-1.4,0.3-2.9-0.6-3.3-2
	c-0.3-1.2-0.3-2.4-0.5-3.6c-0.1-0.4-0.3-1-0.6-1.1c-0.7-0.2-1.4-0.3-2.1-0.3c-0.2,0-0.5,0-0.5,0c-0.1-0.9-0.5-0.4-0.9-0.2
	s-0.9,0.4-1.4,0.7s-0.7,0.3-0.1,0.8c0.4,0.4,0.6,1,0.6,1.6c-0.1,0.8-0.2,1.6-0.4,2.4c-0.3,1.6,0.4,2.3,1.9,2.1c0.3,0,0.7,0,1,0
	c2.2-0.2,2.8,0.3,2.6,2.4c0,0.2,0,0.5,0,0.8c-0.2,0.8,0.1,1.4,1,1.3c0.7,0,1.5-0.1,2.2-0.2c2.1-0.4,3.2,0.4,3.2,2.6
	c-0.1,0.4-0.1,0.7,0,1.1c0.2,0.5,0.4,1.1,0.8,1.3c0.6,0.1,1.1,0,1.6-0.3c0.5-0.5,0.9-1,1.2-1.5c0,0,0-1.3,0-1.3
	C35.5,167.5,35.6,167.3,35.7,167.1L35.7,167.1z M32.9,172.5c0.1-0.3,0.2-0.6,0.4-0.9c-0.3,0-0.6,0-0.9,0.1c-0.6,0.3-1,0.1-1.4-0.4
	c-0.7-0.8-0.4-1.6-0.4-2.3c0-1.9-1.1-2.5-2.6-2c-0.8,0.2-1.5,0.3-2.3,0.2c-0.9,0-1.6-0.6-1.7-1.5c0,0,0,0,0,0c0-0.6,0.1-1.3,0.1-1.9
	c0-0.6-0.1-1.1-0.9-1s-1.4,0.1-2.1,0.2c-0.9,0.3-1.9-0.3-2.1-1.2c0-0.2-0.1-0.3-0.1-0.5c-0.1-1.2,0-2.4,0-3.2c0.7-1.5-0.2-1.8-0.9-2
	c-0.6,0-1.1,0.2-1.6,0.4c-2.4,0.9-2.5,1-1.5,3.3c0.5,1.3,1.2,2.6,2.1,3.7c1.5,1.5,3.2,2.8,4.9,4c1.6,1.2,3.3,2.5,5,3.6
	c1.2,0.8,2.4,1.4,3.6,2.1c0.9,0.6,1.6,0.5,2.2-0.3C32.8,172.8,32.8,172.6,32.9,172.5L32.9,172.5z M31.9,180.2c0.3,0.1,0.7-0.3,1-0.5
	c-0.5-1.6-1-2.9-1.4-4.2c0-0.1-0.3-0.2-0.5-0.3c-2.1-1.2-4.3-2.3-6.4-3.7s-4.1-2.9-6-4.5c-1.1-0.9-2.2-1.9-3.1-3.1
	c-0.6-0.9-1.1-1.8-1.4-2.8c-0.1-0.1-0.2-0.3-0.3-0.4c-0.1,0.1-0.2,0.1-0.2,0.2c-0.4,1.9-0.8,3.7-1,5.6c-0.2,2.4-0.3,4.8,2.3,6.5
	s5,3.6,7.9,4.6S28.9,179.4,31.9,180.2L31.9,180.2z"/>
<path class="st12" d="M55,144.6c0.3,1.4,0.6,2.7,1,4.2c-0.3,1.4-0.8,2.7-1.4,4c-2.5,4.1-5.1,8.1-7.6,12.2c-1.3,2-2.5,3.9-3.9,5.8
	s-2.8,3.7-4.2,5.5c-1.1,1.4-2.2,2.7-3.3,4c-0.1,0.2-0.3,0.5-0.6,0.6c-0.4,0.1-0.7,0.2-1.1,0.2c0-0.3,0-0.6,0-0.9
	c0.6-1.8-0.4-3.2-0.9-4.8c-0.2-0.5-0.1-1.1,0.2-1.6c1.9-2.5,4-5,6-7.5c1.5-1.9,2.9-3.8,4.3-5.8c2.9-4,5.7-8.1,8.5-12.2
	c0.9-1.3,1.7-2.7,2.6-4l0.2-0.4C54.8,144.3,55,144.5,55,144.6z"/>
<path class="st12" d="M54.1,140.6c0.2,0.2-0.1,0.7-0.2,1.1c-0.3,1.1-0.7,2.1-1,3.2c-0.1,0.3-0.3,0.5-0.4,0.7c-0.3,0.7-0.7,1-1.4,0.5
	c-0.3-0.2-0.7-0.2-1.1-0.2c-0.6,0-0.8-0.1-0.5-0.7c0.1-1.3-0.4-1.9-1.9-2.1c-0.1,0-0.3-0.1-0.4-0.2c0.1-0.1,0.2-0.3,0.3-0.3
	c1.8-0.8,3.7-1.5,5.6-2.2C53.4,140.3,53.8,140.4,54.1,140.6z"/>
<path class="st11" d="M49.1,147c1.5,0,1.8,0.6,1.1,1.9c-0.2,0.4-0.5,0.8-0.8,1.3c-0.2-0.1-0.3-0.1-0.4-0.2c-0.9-0.7-2.1-0.9-3.2-0.7
	c-0.6,0.1-0.8-0.4-0.8-1.1c0.1-0.8,0.1-1.5-0.2-2.2c-0.3-0.6-1.2-0.8-1.8-1.2c-0.2-0.1-0.3-0.3-0.5-0.4c0.2-0.1,0.4-0.2,0.6-0.3
	c1.4-0.8,2.7-0.1,4.1,0.1c1,0.1,1,1,1,1.7S48.2,147.1,49.1,147z"/>
<path class="st12" d="M45.9,150.4c1.8,0,2.4,1,1.6,2.6c0,0-0.1,0.1-0.1,0.1c-0.4,0.5-0.7,1-1.1,1.5c-0.2-0.6-0.4-1.1-0.6-1.7
	c-0.3-0.9-1.2-1.2-2.7-1.1c-0.3,0-0.5,0-0.7,0c-1.8,0.2-2,0-1.6-1.7s0.3-2.2-1.5-2.8c-0.6-0.2-1.2-0.3-1.8-0.5
	c-0.2-0.1-0.5-0.2-0.7-0.3c0.2-0.1,0.5-0.3,0.7-0.4c0.8-0.4,1.6-0.7,2.5-0.9c1.3-0.3,2.3,0.4,3.3,1.1c0.5,0.2,0.7,0.8,0.5,1.3
	c0,0,0,0.1-0.1,0.1c-0.8,1.7-0.2,2.5,1.7,2.5L45.9,150.4z"/>
<path class="st11" d="M42.4,153c2,0,2.4,0.6,2.2,2.5c-0.1,1.4-0.6,2.7-1.5,3.8l-0.3,0.4c0-0.2,0-0.3-0.1-0.5c-0.2-1-0.5-2-0.8-2.9
	c-0.3-0.9-1.2-1.4-2.2-1.4c-1.2-0.1-2.5-0.2-3.7-0.4c-0.2-0.1-0.5-0.6-0.6-0.9c0.1-0.5,0.2-1.1,0.3-1.6c0.3-1.4-0.2-2.1-1.6-2.7
	l-1.6-0.7c0.5-0.3,1.1-0.8,1.6-0.8c1.2,0,2.4,0.1,3.5,0.3c0.3,0,0.5,0.1,0.8,0.2c1.3,0.6,1.5,0.6,1,2.1c-0.1,0.3-0.2,0.6-0.3,0.9
	c-0.4,0.9-0.1,1.4,0.8,1.5c0.7,0.1,1.3,0.2,2,0.3c0,0,0-0.1,0-0.1L42.4,153z"/>
<path class="st12" d="M40.2,156.6c1.3,2,1.3,4.5,0.1,6.5c-0.4,0.5-0.7,0.6-0.8-0.1s-0.3-1.4-0.3-1.8c0.1-2.6-0.9-3.8-3.2-3.8
	s-3-1-3.2-3c-0.2-2.1-1.2-3.1-3.2-3.3c-0.2,0-0.4-0.1-0.6-0.2c0.1-0.1,0.3-0.4,0.5-0.4c0.4-0.2,0.8-0.3,1.2-0.3c1,0,1.9,0,2.9,0.1
	c0.6,0.1,1.1,0.6,1.1,1.3c0,0.1,0,0.2-0.1,0.3c-0.2,0.7-0.2,1.5-0.3,2.2c-0.2,1.1,0.6,1.2,1.4,1.3c1.3,0.2,2.6,0.4,3.9,0.6
	C39.8,156.1,40,156.3,40.2,156.6z"/>
<path class="st11" d="M39,164.3c0,0.1,0,0.3,0,0.4c-0.2,0.4-0.5,0.7-0.8,1l-0.9,1.1c0-0.4,0-0.9,0-1.4c-0.1-0.9-0.8-1.3-1.6-1.4
	c-0.1,0-0.3,0.1-0.5,0.1c-2,0.2-2.5,0.4-2.5-2.1c0.1-1.1-0.8-2.1-1.9-2.2c-0.3,0-0.6,0-0.8,0.1c-1.5,0.4-3-0.5-3.4-2
	c0-0.2-0.1-0.4-0.1-0.6c0-0.5,0-0.9,0-1.4c-0.1-2.1-0.1-2.1-2.2-2.8c-0.2-0.1-0.3-0.2-0.4-0.3l0.4-0.2c0.4-0.2,0.9-0.4,1.3-0.6
	s0.6-0.4,0.8,0.2c0.3,0.1,0.6,0.2,0.9,0.1c2.6-0.8,4.3,0.3,4.3,3c0,2.1,1.7,3.1,3.6,3.1c1.7,0,2.8,1.1,2.7,2.3c-0.1,0.5-0.1,1,0,1.6
	C37.9,163.1,37.8,164.1,39,164.3z"/>
<path class="st12" d="M34.4,165.3c1.5,0,1.8,0.4,1.2,1.9c-0.1,0.2-0.1,0.4-0.2,0.5c0,0,0,1.3,0,1.3c-0.4,0.6-0.8,1.1-1.3,1.5
	c-0.5,0.3-1.1,0.4-1.6,0.3c-0.4-0.1-0.6-0.8-0.8-1.3c-0.1-0.4-0.1-0.7,0-1.1c0-2.1-1.1-3-3.2-2.6c-0.7,0.1-1.5,0.2-2.2,0.2
	c-0.9,0-1.2-0.5-1-1.3c0-0.2,0-0.5,0-0.8c0.2-2.2-0.4-2.6-2.6-2.4c-0.3,0-0.7,0-1,0c-1.5,0.2-2.2-0.5-1.9-2.1
	c0.2-0.8,0.3-1.6,0.4-2.4c0-0.6-0.2-1.2-0.6-1.6c-0.6-0.5-0.2-0.6,0.1-0.8s0.9-0.4,1.4-0.7s0.7-0.7,0.9,0.2c0,0,0.3,0,0.5,0
	c0.7,0,1.4,0.1,2.1,0.3c0.3,0.1,0.5,0.7,0.6,1.1c0.2,1.2,0.2,2.4,0.5,3.6c0.4,1.4,1.8,2.3,3.3,2c2-0.2,2.3,0,2.3,2.1
	c-0.1,1.1,0.7,2.1,1.8,2.1c0.2,0,0.4,0,0.6,0C34,165.4,34.2,165.3,34.4,165.3z"/>
<path class="st12" d="M33,179.7c-0.4,0.2-0.8,0.6-1,0.5c-3-0.7-6.1-1.4-9.1-2.4s-5.4-2.9-7.9-4.6s-2.5-4.1-2.3-6.5
	c0.2-1.9,0.6-3.8,1-5.6c0-0.1,0.1-0.1,0.2-0.2c0.1,0.1,0.2,0.2,0.3,0.4c0.4,1,0.8,1.9,1.3,2.8c0.9,1.1,2,2.2,3.1,3.1
	c2,1.6,4,3.1,6.1,4.5s4.3,2.5,6.4,3.7c0.2,0.1,0.4,0.1,0.5,0.3C32,176.8,32.4,178.1,33,179.7z"/>
</svg>
